<svg id="Layer_1" data-name="Layer 1" xmlns="http://www.w3.org/2000/svg" xmlns:xlink="http://www.w3.org/1999/xlink" viewBox="0 0 140.93994 109.16901"><defs><style>.cls-1{fill:#008a96;}.cls-2{fill:#00d6d9;}.cls-3{fill:#1e6975;}.cls-4{fill:url(#New_Gradient_Swatch_1);}</style><linearGradient id="New_Gradient_Swatch_1" x1="-230.79255" y1="-345.71542" x2="-230.79255" y2="-344.69096" gradientTransform="matrix(0, 52.2444, 52.2444, 0, 18105.40406, 12083.74065)" gradientUnits="userSpaceOnUse"><stop offset="0" stop-color="#008a96"/><stop offset="0.27983" stop-color="#008d99"/><stop offset="0.49234" stop-color="#0097a1"/><stop offset="0.68268" stop-color="#00a7b0"/><stop offset="0.85898" stop-color="#00bec4"/><stop offset="1" stop-color="#00d6d9"/></linearGradient></defs><path class="cls-1" d="M17.59229,76.86139v-7.084h-6.8877v7.084H6.36475V58.99811h4.33984v7.05567h6.8877V58.99811h4.34082V76.86139Z"/><path class="cls-1" d="M44.05225,73.44538a6.20753,6.20753,0,0,1-1.666,2.04394,7.76516,7.76516,0,0,1-2.46387,1.30274,10.0398,10.0398,0,0,1-6.0205,0A7.76516,7.76516,0,0,1,31.438,75.48932a6.04912,6.04912,0,0,1-1.65235-2.04394,5.92111,5.92111,0,0,1-.60156-2.6875V58.99811h4.33985V70.3653a2.86872,2.86872,0,0,0,.93847,2.22656,3.57707,3.57707,0,0,0,2.50586.85352,3.631,3.631,0,0,0,2.51953-.85352,2.85032,2.85032,0,0,0,.95215-2.22656V58.99811h4.22852V70.75788A5.81686,5.81686,0,0,1,44.05225,73.44538Z"/><path class="cls-1" d="M67.51611,67.92975a8.79312,8.79312,0,0,1-.76953,3.752,8.33989,8.33989,0,0,1-2.08594,2.7998,9.34036,9.34036,0,0,1-3.05273,1.76367,10.87414,10.87414,0,0,1-3.668.61621H51.92041V58.99811h6.01953a10.89788,10.89788,0,0,1,3.668.61524A9.36,9.36,0,0,1,64.66064,61.378a8.34953,8.34953,0,0,1,2.08594,2.7998A8.79,8.79,0,0,1,67.51611,67.92975Zm-4.33984,0a5.27552,5.27552,0,0,0-.46191-2.26855,4.75331,4.75331,0,0,0-1.2461-1.6377A5.20164,5.20164,0,0,0,59.648,63.044a7.405,7.405,0,0,0-2.21191-.32226H56.09229v10.416H57.436A7.405,7.405,0,0,0,59.648,72.8155a5.18566,5.18566,0,0,0,1.82031-.9795,4.78471,4.78471,0,0,0,1.2461-1.624A5.24688,5.24688,0,0,0,63.17627,67.92975Z"/><path class="cls-1" d="M85.93994,71.49616a5.49709,5.49709,0,0,1-1.68066,4.20606,7.02982,7.02982,0,0,1-4.9834,1.5791,11.12463,11.12463,0,0,1-3.05274-.3916,7.24919,7.24919,0,0,1-2.35156-1.12012L73.479,71.59772A8.79464,8.79464,0,0,0,79.09814,73.67a3.15571,3.15571,0,0,0,1.8545-.46289,1.483,1.483,0,0,0,.64648-1.27637,1.62373,1.62373,0,0,0-.58984-1.291A7.77,7.77,0,0,0,78.76123,69.546a7.858,7.858,0,0,1-3.56934-2.25782,4.99285,4.99285,0,0,1-1.208-3.29687,5.386,5.386,0,0,1,.41992-2.11719,5.10944,5.10944,0,0,1,1.20508-1.73926,5.54328,5.54328,0,0,1,1.93457-1.16406,7.64108,7.64108,0,0,1,2.63476-.4209,9.16319,9.16319,0,0,1,2.73242.33594,6.68884,6.68884,0,0,1,1.63965.72754L84.21436,63.254a7.81392,7.81392,0,0,0-1.64063-.751,6.31788,6.31788,0,0,0-2.06152-.3418,2.711,2.711,0,0,0-1.72559.44727,1.3608,1.3608,0,0,0-.54687,1.08984,1.34061,1.34061,0,0,0,.57421,1.09082,7.92927,7.92927,0,0,0,2.16993.97754,10.43923,10.43923,0,0,1,1.97363.9082,6.8846,6.8846,0,0,1,1.56836,1.27246,5.72828,5.72828,0,0,1,1.03516,1.6211A4.88077,4.88077,0,0,1,85.93994,71.49616Z"/><path class="cls-1" d="M111.1123,67.90143a9.08245,9.08245,0,0,1-.81152,3.89258,9.2118,9.2118,0,0,1-2.15625,2.9541,9.62907,9.62907,0,0,1-3.08008,1.876,10.10065,10.10065,0,0,1-7.168,0,9.462,9.462,0,0,1-3.0664-1.876,9.29063,9.29063,0,0,1-2.1416-2.9541,9.2625,9.2625,0,0,1,2.1416-10.69629,9.59848,9.59848,0,0,1,3.0664-1.8623,10.08673,10.08673,0,0,1,7.168,0,9.77011,9.77011,0,0,1,3.08008,1.8623,8.98354,8.98354,0,0,1,2.96777,6.80371Zm-4.3955,0a5.68392,5.68392,0,0,0-.43457-2.26757,5.39233,5.39233,0,0,0-1.17578-1.73633,5.31208,5.31208,0,0,0-1.67969-1.12012,5.03243,5.03243,0,0,0-3.89258,0,5.14782,5.14782,0,0,0-1.666,1.12012,5.51751,5.51751,0,0,0-1.16211,1.73633,5.68382,5.68382,0,0,0-.43359,2.26757,5.79056,5.79056,0,0,0,.43359,2.28223,5.471,5.471,0,0,0,1.16211,1.75,5.14782,5.14782,0,0,0,1.666,1.12012,5.03243,5.03243,0,0,0,3.89258,0,5.3108,5.3108,0,0,0,2.85547-2.87012A5.79071,5.79071,0,0,0,106.7168,67.90143Z"/><path class="cls-1" d="M132.3916,77.05768l-6.94433-7.61621q-.83936-.92431-1.72168-1.97363-.88184-1.0503-1.61036-1.94629l-.05566.02832q.05567.95216.07031,1.93164.01319.98.01367,1.82031v7.55957h-4.33984V58.99811h3.5l6.04785,6.66309q.64453.7002,1.46973,1.666.82617.9668,1.44238,1.75l.05567-.02735q-.08351-1.59667-.084-3.332V58.99811h4.33985V77.05768Z"/><path class="cls-2" d="M0,80.04933H2.98641a9.849,9.849,0,0,1,4.29005.71483,5.59352,5.59352,0,0,1,2.31182,2.32771,7.52911,7.52911,0,0,1,.90863,3.76266,7.593,7.593,0,0,1-.50833,2.81273,5.84068,5.84068,0,0,1-1.40319,2.12861,4.961,4.961,0,0,1-1.938,1.17021,13.80378,13.80378,0,0,1-3.61546.324H0Zm2.5035,2.43043v8.35347H3.67265a5.85415,5.85415,0,0,0,2.50773-.39713,2.99534,2.99534,0,0,0,1.27293-1.33329,4.88756,4.88756,0,0,0,.49562-2.30653A4.38369,4.38369,0,0,0,6.76919,83.525a4.72222,4.72222,0,0,0-3.41107-1.04524Z"/><path class="cls-2" d="M28.43124,80.04933h7.22881v2.46644H30.93474v2.39442h4.72531v2.42089H30.93474v3.48415h4.72531v2.4749H28.43124Z"/><path class="cls-2" d="M60.48112,81.84965l-1.867,1.64676a2.64841,2.64841,0,0,0-2.00153-1.36824,1.21659,1.21659,0,0,0-.8112.26581.77365.77365,0,0,0-.31665.59834,1.02394,1.02394,0,0,0,.22557.63011,17.05359,17.05359,0,0,0,1.849,1.70183Q59.0017,86.52995,59.3088,86.845a5.31565,5.31565,0,0,1,1.08654,1.48049,3.70734,3.70734,0,0,1,.31982,1.544,3.54176,3.54176,0,0,1-1.12678,2.692,4.1091,4.1091,0,0,1-2.9377,1.06219,4.36543,4.36543,0,0,1-2.46431-.69365,5.47369,5.47369,0,0,1-1.7982-2.17838l2.11908-1.27823q.95628,1.75531,2.19956,1.75584a1.61824,1.61824,0,0,0,1.09078-.37807,1.12648,1.12648,0,0,0,.44267-.87368,1.51118,1.51118,0,0,0-.33465-.90016,9.59815,9.59815,0,0,0-1.46885-1.37671A14.7909,14.7909,0,0,1,53.641,84.9769a3.45889,3.45889,0,0,1-.63117-1.91257,3.1261,3.1261,0,0,1,1.04948-2.36265,3.64115,3.64115,0,0,1,2.59139-.98594,4.08822,4.08822,0,0,1,1.88822.45961A6.88292,6.88292,0,0,1,60.48112,81.84965Z"/><path class="cls-2" d="M78.461,80.04933h2.50244v13.2408H78.461Z"/><path class="cls-2" d="M111.54606,82.20971l-1.7749,1.75478a5.24748,5.24748,0,0,0-3.92787-1.78231,4.49031,4.49031,0,0,0-3.27552,1.29623,4.25006,4.25006,0,0,0-1.31953,3.15055,4.36323,4.36323,0,0,0,1.3693,3.2501,4.66318,4.66318,0,0,0,3.37931,1.33224,4.1441,4.1441,0,0,0,2.2038-.54963,3.87352,3.87352,0,0,0,1.4466-1.71877h-3.83573V86.575h6.66117l.01906.5581a6.48765,6.48765,0,0,1-.90015,3.29458,6.28691,6.28691,0,0,1-2.33194,2.37642,6.64,6.64,0,0,1-3.35707.81967,7.45627,7.45627,0,0,1-3.67794-.89592,6.55179,6.55179,0,0,1-2.55645-2.55222,7.11452,7.11452,0,0,1-.9404-3.5731,6.63985,6.63985,0,0,1,1.73784-4.5728,6.84512,6.84512,0,0,1,5.36494-2.31394,8.1568,8.1568,0,0,1,3.231.63964A7.40171,7.40171,0,0,1,111.54606,82.20971Z"/><path class="cls-2" d="M130.335,80.04933h2.41878l5.66571,8.71354V80.04933h2.52044v13.2408h-2.42513l-5.65935-8.686v8.686H130.335Z"/><path class="cls-2" d="M9.13037,106.587l1.03711-.62207q1.09571,2.01709,2.53125,2.0166a2.42931,2.42931,0,0,0,1.1543-.28613,2.03872,2.03872,0,0,0,.82226-.76758,1.99328,1.99328,0,0,0,.28125-1.02148,2.06956,2.06956,0,0,0-.41406-1.20313,9.97841,9.97841,0,0,0-2.0918-1.959,10.672,10.672,0,0,1-1.90136-1.66895,3.04977,3.04977,0,0,1-.64746-1.86719,2.83362,2.83362,0,0,1,.38183-1.45312,2.73178,2.73178,0,0,1,1.0752-1.0332,3.09421,3.09421,0,0,1,1.50586-.37793,3.211,3.211,0,0,1,1.61523.42773,5.54679,5.54679,0,0,1,1.58984,1.57324l-.99609.75489a4.79355,4.79355,0,0,0-1.1748-1.20313,2.02056,2.02056,0,0,0-1.0586-.291,1.6771,1.6771,0,0,0-1.208.44824,1.46788,1.46788,0,0,0-.46875,1.10449,1.88465,1.88465,0,0,0,.166.77148,2.84092,2.84092,0,0,0,.60547.81348q.2417.23291,1.57812,1.2207a8.87583,8.87583,0,0,1,2.17383,2.083,3.35607,3.35607,0,0,1,.58985,1.835,3.11327,3.11327,0,0,1-1.00879,2.30762,3.38989,3.38989,0,0,1-2.45215.97949,3.60073,3.60073,0,0,1-2.01758-.59375A5.42319,5.42319,0,0,1,9.13037,106.587Z"/><path class="cls-2" d="M27.3999,97.84675V96.65143h9.44141v1.19532h-3.8416v11.01464H31.2415V97.84675Z"/><path class="cls-2" d="M50.646,96.65143h1.63591v7.3711a11.48256,11.48256,0,0,0,.06543,1.63476,2.32176,2.32176,0,0,0,.568,1.208,3.35364,3.35364,0,0,0,1.36893.81348,5.50843,5.50843,0,0,0,1.85709.32812,4.73,4.73,0,0,0,1.55738-.25781,3.51317,3.51317,0,0,0,1.24591-.71387,2.71433,2.71433,0,0,0,.7342-1.10351,6.87285,6.87285,0,0,0,.16752-1.90918v-7.3711H61.481v7.3711a6.85825,6.85825,0,0,1-.428,2.64355,3.86024,3.86024,0,0,1-1.71312,1.75586,6.09088,6.09088,0,0,1-3.10954.74707,7.521,7.521,0,0,1-3.39353-.70605,3.70283,3.70283,0,0,1-1.88981-1.86719,7.45687,7.45687,0,0,1-.301-2.57324Z"/><path class="cls-2" d="M75.99072,108.86139v-12.21H78.522a12.94741,12.94741,0,0,1,3.97657.43946,5.31859,5.31859,0,0,1,2.77636,2.1582,6.55877,6.55877,0,0,1,1,3.66113,6.42115,6.42115,0,0,1-.793,3.22852,5.079,5.079,0,0,1-2.05859,2.05859,7.74213,7.74213,0,0,1-3.54785.66406Zm1.16992-1.15332h1.41114a13.15021,13.15021,0,0,0,3.51074-.31543,4.047,4.047,0,0,0,2.167-1.61328,4.96605,4.96605,0,0,0,.78809-2.84863,5.21885,5.21885,0,0,0-.85449-3.01855,4.3126,4.3126,0,0,0-2.38184-1.71778,14.45319,14.45319,0,0,0-3.77734-.34765h-.86329Z"/><path class="cls-2" d="M99.7207,96.65143h1.21973v12.21H99.7207Z"/><path class="cls-2" d="M123.56152,96.34382a6.33328,6.33328,0,0,1,4.64258,1.85156,6.419,6.419,0,0,1-4.543,10.97363,6.25056,6.25056,0,0,1-4.585-1.85937,6.11338,6.11338,0,0,1-1.86914-4.499,6.50886,6.50886,0,0,1,.85156-3.26269,6.28669,6.28669,0,0,1,5.50293-3.2041Zm.05371,1.1875a5.21233,5.21233,0,0,0-4.46484,2.6084,5.29434,5.29434,0,0,0-.68164,2.666,5.13494,5.13494,0,0,0,5.14648,5.17578,5.224,5.224,0,0,0,2.63184-.68945,4.93657,4.93657,0,0,0,1.88672-1.88574,5.29283,5.29283,0,0,0,.67773-2.65821,5.16354,5.16354,0,0,0-.67773-2.6289,5.05982,5.05982,0,0,0-1.9082-1.88184A5.1639,5.1639,0,0,0,123.61523,97.53132Z"/><path class="cls-3" d="M90.53107,10.37036a37.49487,37.49487,0,0,0-11.466-7.64084c-.82678-.37316-1.68707-.72694-2.56515-1.05893C74.91751,1.07229,73.241.50208,71.48813,0c0,12.07211-.02643,24.14455.03229,36.21655-3.79523.06574-6.61747-1.20871-11.59717-2.7277-.72119-12.34069,1.3009-20.13528,6.14105-31.47528-1.24762.238-1.99155.25659-6.46545,1.01588-6.12546,10.53305-8.59232,17.2056-7.796,29.422-3.49042.40994-4.06141,1.09355-8.09366,2.932,1.63537,1.25177,2.16525,1.87855,3.60666,3.02665a14.56912,14.56912,0,0,1,5.159-1.76777c.68759,3.2941,1.61783,7.30667,3.5177,13.49939,3.36533.02215,4.6828-.01491,7.14163.06112-1.48-5.769-2.21054-9.50853-2.71994-12.67523,4.62458,1.44394,7.3154,2.83911,11.068,3.23561-.03968,4.243-.00809,6.84877.006,11.48122,1.80609-.5078,3.52786-1.03273,5.14731-1.64818.82562-.31376,1.63455-.64554,2.4194-1.00683A38.50632,38.50632,0,0,0,90.4762,41.874a21.80364,21.80364,0,0,0,.05487-31.50368ZM79.03467,43.19948Q79.088,26.38294,79.06512,9.567,89.746,16.756,89.75494,26.36412C89.75494,32.67215,86.23907,37.78954,79.03467,43.19948Z"/><path class="cls-4" d="M90.53107,10.37036a37.49487,37.49487,0,0,0-11.466-7.64084c-.82678-.37316-1.68707-.72694-2.56515-1.05893C74.91751,1.07229,73.241.50208,71.48813,0c0,12.07211-.02643,24.14455.03229,36.21655-3.79523.06574-6.61747-1.20871-11.59717-2.7277-.72119-12.34069,1.3009-20.13528,6.14105-31.47528-1.24762.238-1.99155.25659-6.46545,1.01588-6.12546,10.53305-8.59232,17.2056-7.796,29.422-3.49042.40994-4.06141,1.09355-8.09366,2.932,1.63537,1.25177,2.16525,1.87855,3.60666,3.02665a14.56912,14.56912,0,0,1,5.159-1.76777c.68759,3.2941,1.61783,7.30667,3.5177,13.49939,3.36533.02215,4.6828-.01491,7.14163.06112-1.48-5.769-2.21054-9.50853-2.71994-12.67523,4.62458,1.44394,7.3154,2.83911,11.068,3.23561-.03968,4.243-.00809,6.84877.006,11.48122,1.80609-.5078,3.52786-1.03273,5.14731-1.64818.82562-.31376,1.63455-.64554,2.4194-1.00683A38.50632,38.50632,0,0,0,90.4762,41.874a21.80364,21.80364,0,0,0,.05487-31.50368ZM79.03467,43.19948Q79.088,26.38294,79.06512,9.567,89.746,16.756,89.75494,26.36412C89.75494,32.67215,86.23907,37.78954,79.03467,43.19948Z"/></svg>
