<?xml version="1.0" encoding="utf-8"?>
<!-- Generator: Adobe Illustrator 25.2.1, SVG Export Plug-In . SVG Version: 6.00 Build 0)  -->
<svg version="1.1" id="Layer_1" xmlns="http://www.w3.org/2000/svg" xmlns:xlink="http://www.w3.org/1999/xlink" x="0px" y="0px"
	 viewBox="0 0 64.5 60.9" style="enable-background:new 0 0 64.5 60.9;" xml:space="preserve">
<style type="text/css">
	.st0{fill-rule:evenodd;clip-rule:evenodd;fill:#FF9900;}
</style>
<symbol  id="A" viewBox="-32.2 -30.4 64.5 60.9">
	<path class="st0" d="M-1,30.4l-14.3-5.1V4.4L-1,9.3V30.4z M1.6,30.4l14.3-5.1V4.4L1.6,9.3V30.4z M-13.8,2.8L0.6-1.2L14,3.1L0.6,7.6
		L-13.8,2.8z M-18,1.2l-14.3-5.1v-20.9L-18-20L-18,1.2z M-15.3,1.2l14.3-5.1v-21l-14.3,4.9L-15.3,1.2z M-30.7-26.4l14.4-4.1L-3-26.1
		l-13.4,4.5L-30.7-26.4z M15.4,1.2L1.1-3.9v-21L15.4-20V1.2z M18,1.2l14.3-5.1v-21L18-20L18,1.2z M2.6-26.4L17-30.4l13.4,4.3
		L17-21.6L2.6-26.4z"/>
</symbol>
<use xlink:href="#A"  width="64.5" height="60.9" x="-32.2" y="-30.4" transform="matrix(1 0 0 1 32.232 30.443)" style="overflow:visible;"/>
</svg>
