<?xml version="1.0" encoding="utf-8"?>
<!-- Generator: Adobe Illustrator 25.2.1, SVG Export Plug-In . SVG Version: 6.00 Build 0)  -->
<svg version="1.1" id="Layer_1" xmlns="http://www.w3.org/2000/svg" xmlns:xlink="http://www.w3.org/1999/xlink" x="0px" y="0px"
	 viewBox="0 0 63.9 64.1" style="enable-background:new 0 0 63.9 64.1;" xml:space="preserve">
<style type="text/css">
	.st0{fill:url(#SVGID_1_);}
	.st1{fill:#FFFFFF;}
</style>
<symbol  id="B" viewBox="-32 -32 63.9 64.1">
	<g>
		
			<linearGradient id="SVGID_1_" gradientUnits="userSpaceOnUse" x1="7118.4072" y1="-8595.2803" x2="7119.2881" y2="-8596.1729" gradientTransform="matrix(63.915 0 0 64.078 -455001.2812 550797.0625)">
			<stop  offset="0" style="stop-color:#070135"/>
			<stop  offset="1" style="stop-color:#612D50"/>
		</linearGradient>
		<path class="st0" d="M-32-21.7c0-5.7,4.6-10.3,10.3-10.3h43.3C27.4-32,32-27.4,32-21.7v43.5C32,27.4,27.4,32,21.6,32h-43.3
			C-27.4,32-32,27.4-32,21.7V-21.7z"/>
		<path class="st1" d="M0.5-4.5c1.6,0,2.9-0.3,3.7-1.1s1.3-1.8,1.3-3.1c0-1.4-0.4-2.4-1.3-3.1c-0.8-0.7-2.1-1.1-3.7-1.1h-5.7v8.4
			L0.5-4.5 M0.8,12.9c2.1,0,3.6-0.4,4.7-1.3c1.1-0.9,1.6-2.2,1.6-3.9c0-1.7-0.5-3-1.6-3.9c-1-0.9-2.6-1.3-4.7-1.3h-6.1v10.4
			L0.8,12.9 M10.5-1.4c2.2,0.6,3.9,1.8,5.2,3.5s1.8,3.8,1.8,6.3c0,3.8-1.3,6.7-3.9,8.6s-6.6,2.8-11.9,2.8h-17.2v-39.7h15.6
			c5.6,0,9.6,0.8,12.1,2.5c2.5,1.7,3.8,4.3,3.8,8c0,1.9-0.5,3.6-1.4,4.9C13.5-3,12.2-2,10.5-1.4"/>
	</g>
</symbol>
<use xlink:href="#B"  width="63.9" height="64.1" x="-32" y="-32" transform="matrix(1 0 0 1 31.9575 32.039)" style="overflow:visible;"/>
</svg>
