<?xml version="1.0" encoding="utf-8"?>
<!-- Generator: Adobe Illustrator 25.2.1, SVG Export Plug-In . SVG Version: 6.00 Build 0)  -->
<svg version="1.1" id="Layer_1" xmlns="http://www.w3.org/2000/svg" xmlns:xlink="http://www.w3.org/1999/xlink" x="0px" y="0px"
	 viewBox="0 0 63.1 64" style="enable-background:new 0 0 63.1 64;" xml:space="preserve">
<style type="text/css">
	.st0{fill:#161616;}
</style>
<symbol  id="A" viewBox="-31.5 -32 63.1 64">
	<path class="st0" d="M-8.1,0c0-4.2,3.4-7.6,7.6-7.6S7.1-4.2,7.1,0S3.7,7.6-0.5,7.6S-8.1,4.2-8.1,0z M-0.5-32
		c-14.9,0-27.4,10.2-31,24c0,0.1-0.1,0.3-0.1,0.4c0,0.8,0.7,1.5,1.5,1.5h12.9c0.6,0,1.1-0.3,1.4-0.9c0.2-0.5,0,0,0-0.1
		c2.7-5.7,8.5-9.7,15.2-9.7c9.3,0,16.8,7.5,16.8,16.8S8.8,16.8-0.5,16.8c-6.7,0-12.5-4-15.2-9.7c0,0,0-0.1,0-0.1
		c-0.2-0.5-0.8-0.9-1.4-0.9H-30c-0.8,0-1.5,0.7-1.5,1.5c0,0.1,0,0.3,0.1,0.4c3.6,13.8,16.1,24,31,24c17.7,0,32-14.3,32-32
		S17.2-32-0.5-32L-0.5-32z"/>
</symbol>
<use xlink:href="#A"  width="63.1" height="64" x="-31.5" y="-32" transform="matrix(1 0 0 1 31.537 31.9985)" style="overflow:visible;"/>
</svg>
