<svg id="Layer_1" data-name="Layer 1" xmlns="http://www.w3.org/2000/svg" viewBox="0 0 499.01455 499.20253"><defs><style>.cls-1{fill:#dadada;}.cls-2{fill:#fcfcfa;}.cls-3{fill:#80b3fd;}.cls-4{fill:#8ed361;}.cls-5{fill:#fee682;}.cls-6{fill:#fc8182;}.cls-7{fill:#fc8384;}.cls-8{fill:#f98e90;}</style></defs><path class="cls-1" d="M498.98959,246.38346c.52609,21.60381-7.30472,35.53915-19.70434,47.60933-11.63185,11.323-22.86672,23.05311-34.33723,34.54325-12.42049,12.44177-24.83851,24.88779-37.40988,37.1761-4.60424,4.50058-8.99459,10.1504-14.634,12.44987-13.02026,3.76075-11.97026,5.86075-17.47966,18.61282-6.81749,8.91287-15.35467,16.47111-23.25084,24.50987-8.93524,9.09652-18.00771,18.05819-27.02134,27.07763-9.61616,9.62232-19.03,19.45939-28.92319,28.78773-6.33875,5.97684-12.67942,12.59273-20.27377,16.451-12.51646,6.35891-26.30461,6.72755-40.23236,3.96619-12.027-2.38455-20.76034-9.77086-29.14938-17.73956-9.002-8.551-17.62023-17.50633-26.40839-26.28275q-14.615-14.59553-29.22921-29.19193c-8.76937-8.79636-17.68979-17.45508-26.14687-26.54391-3.64429-3.91655-6.21124-8.82136-9.41818-13.166-1.68-2.276-3.29631-5.4806-5.61187-6.25216-9.73488-3.24368-15.636-11.05071-22.45933-17.725-12.07834-11.81451-23.92886-23.8621-35.87691-35.81-11.84457-11.84437-24.05417-23.34931-35.446-35.6144-14.149-15.2336-18.479-33.72709-14.64957-53.90116,2.35058-12.38323,10.82085-21.4234,19.21351-30.15788,9.38583-9.76807,19.06757-19.25437,28.71382-28.76865,17.66359-17.4219,35.29919-34.87487,53.19408-52.05682,2.98735-2.86835,7.24236-4.40546,10.87312-6.62086.82981-.50631,1.90534-1.13511,2.18263-1.94291,3.87647-11.29173,13.60368-17.78448,21.30811-25.87063a102.41375,102.41375,0,0,1,15.33813-13.33922c3.02754-2.114,7.24395-2.995,11.0364-3.41245,3.97377-.43738,6.2162-1.28674,5.95941-5.86817-.37382-6.66888,2.32209-12.23615,7.02458-16.92269,12.39494-12.35289,24.52859-24.9782,37.18832-37.05223C225.28029,1.9584,239.69876-1.58525,256.02206.62093c7.32181.98958,14.24289,2.7074,20.56464,6.22663a60.97438,60.97438,0,0,1,13.08452,9.47074c15.01268,14.75823,29.64458,29.90306,44.52061,44.80175,11.59139,11.60906,23.62766,22.78977,34.8772,34.71681,4.99878,5.29978,8.518,11.98934,12.78134,17.99657a7.10791,7.10791,0,0,0,2.69765,2.4923c12.01336,5.05432,19.93715,15.06188,28.88349,23.79763,8.88535,8.67621,17.56224,17.56572,26.3492,26.343Q454.393,181.06255,469.038,195.62591c4.67793,4.66222,9.4797,9.20806,14.00493,14.01426C494.83573,222.16509,498.98935,232.91924,498.98959,246.38346Z"/><path class="cls-2" d="M494.59921,249.88905a77.12885,77.12885,0,0,1-1.05394,11.813c-1.73238,10.23-7.57291,18.95876-14.803,26.17986q-41.38554,41.33425-82.73016,82.70948c-3.91391,3.9069-8.20145,6.7779-14.07807,7.81215-2.95024.51923-5.91475,4.02269-6.40024,6.36923-.9,4.35-1.2819,7.3067-4.08016,10.148-28.29692,28.73242-56.684,57.38458-85.57225,85.51841a47.38386,47.38386,0,0,1-28.57373,13.624,63.07837,63.07837,0,0,1-26.0572-2.54157c-8.5356-2.71491-14.912-8.65453-21.16345-14.88786q-41.06534-40.94653-82.00582-82.01828a49.99542,49.99542,0,0,1-6.65252-7.52676c-1.84734-2.8018-1.95468-6.32041-3.87616-8.94945-3.4591-4.73272-10.76972-5.07458-14.88691-9.13742Q61.211,328.09439,20.33353,286.60607a72.70076,72.70076,0,0,1-12.853-18.22238c-4.40127-9.0284-3.30945-21.42492-1.73406-31.052A38.29762,38.29762,0,0,1,17.33117,215.1038c7.98123-7.4194,15.45153-15.38833,23.16238-23.09938Q72.92614,159.571,105.331,127.11011a18.40862,18.40862,0,0,1,10.27242-5.43063c2.05244-.38283,3.90732-3.313,5.28882-5.45374,1.99182-3.08639,2.86932-7.05931,5.28238-9.67546,7.22538-7.83349,15.17584-14.99667,22.42361-22.811,4.11583-4.43758,8.71113-6.36891,14.59493-5.82566,1.81733.1678,3.66429-.01453,5.49568.03619,3.46269.09588,5.76881-1.47288,5.23741-5.00442-1.7405-11.56683,3.879-19.30442,12.00108-26.6273,10.01157-9.02647,19.41194-18.76594,28.68917-28.56422C226.37226,5.33784,241.11094,4.33139,256.7964,5.235c14.29635.82358,24.12,9.015,33.52389,18.45706q39.15953,39.31823,78.46183,78.49412c3.81169,3.80876,7.16146,7.74725,7.74376,13.50786.29533,2.92156,2.01766,4.56731,5.39853,5.517,4.26386,1.19778,8.83554,3.27488,11.93642,6.33116q42.54778,41.93514,84.57709,84.39624c5.07973,5.1043,9.73327,10.8448,12.68141,17.46536C493.73505,235.27787,494.68369,242.70978,494.59921,249.88905Z"/><path class="cls-3" d="M19.27839,252.6231a29.622,29.622,0,0,1,8.123-24.202q45.04575-45.40681,90.34176-90.56528c2.78-2.78943,4.78955-2.95924,7.77609.05,29.09558,29.31625,58.38437,58.44053,87.50968,87.72742,11.44689,11.51044,13.27341,24.51039,5.57631,38.14232a31.869,31.869,0,0,1-5.335,6.532q-34.17661,34.31849-68.4463,68.54417c-7.05692,7.061-14.1872,14.05049-21.14384,21.20889-2.26552,2.33119-3.8421,2.32331-6.15218.00348-30.08229-30.20928-60.31273-60.27131-90.31047-90.56436A28.49388,28.49388,0,0,1,19.27839,252.6231Z"/><path class="cls-4" d="M480.07279,247.46334c-.06011,10.30205-2.63124,17.33092-8.08275,22.82578q-46.07178,46.43806-92.38367,92.638c-2.26408,2.27325-3.75465,2.38485-6.12166.0083q-46.32954-46.51521-92.8021-92.88788c-11.38369-11.42356-11.52519-29.53948-.51285-41.602,2.80205-3.06919,5.9245-5.84332,8.80234-8.84642,2.00315-2.09036,3.80736-2.322,5.93473-.154,5.364,5.4662,11.06776,10.62862,16.06653,16.40533,1.49286,1.72518,2.06271,5.34421,1.42557,7.64356-4.49837,16.23365,4.19551,35.41555,21.76962,41.5993,21.65646,7.6202,42.66306-4.916,47.02314-27.05233,3.19655-16.22913-7.06419-34.399-22.995-38.91742a40.34779,40.34779,0,0,0-15.63648-1.53457c-5.52386.69994-9.4212-.05-13.14164-4.38711-4.20622-4.90338-9.13173-9.19274-13.78342-13.70892-2.24919-2.18365-2.77967-3.925-.12709-6.54884q28.571-28.26191,56.8292-56.83938c2.56994-2.59409,4.11742-2.17829,6.50055.23292,16.074,16.26309,32.27943,32.39617,48.45179,48.56183,14.05019,14.04438,28.16039,28.02914,42.1483,42.13528C475.68983,233.33959,480.382,240.48688,480.07279,247.46334Z"/><path class="cls-5" d="M269.68337,280.82994c1.34691.43773,2.8369,2.67934,3.67274,3.53383q2.44329,2.49782,4.88573,4.99648,4.885,4.99719,9.76869,9.99569,9.76841,9.99591,19.5485,19.9804,7.436,7.585,14.89235,15.15011c13.13487,13.32005,26.4004,26.51146,39.65471,39.71294,2.43362,2.424,1.582,4.21482-.49228,6.29572-8.34656,8.373-16.58433,16.85426-24.89253,25.26559q-17.34949,17.565-34.75209,35.07734c-10.77353,10.79185-21.14419,22.05713-32.59658,32.07995a28.7347,28.7347,0,0,1-36.30954,1.68731c-6.6523-4.82458-12.46221-11.27144-18.35673-16.9709q-9.84444-9.51867-19.48617-19.24384-4.44921-4.45924-8.88634-8.93052c-17.04605-17.15558-33.54714-34.98893-51.2345-51.45842-3.1366-2.92053-3.29685-5.60875-.08964-8.78143q30.75534-30.42444,61.33825-61.02309c9.043-9.04292,17.83489-18.33839,26.94114-27.31584a48.80835,48.80835,0,0,1,9.13407-6.7599c2.289-1.38035,4.66414-1.31,4.66561,2.42606.00461,11.93854.15328,23.88194-.19475,35.81056-.05426,1.85922-2.00705,4.4619-3.77006,5.3433-11.96456,5.98136-19.14179,20.95133-17.59718,33.81577,1.76233,14.678,10.22252,24.209,22.82712,29.57242,11.27461,4.79747,25.72344,1.30593,35.03489-6.381,9.90063-8.17331,13.858-18.91555,12.27628-31.27808-1.42627-11.14714-7.03533-20.08157-17.28012-25.717-1.21275-.66712-2.13088-2.944-2.16817-4.49905-.21953-9.15953-.20955-18.32731-.08657-27.48981.0246-1.82778.94837-4.97489,3.11595-4.96928A1.42667,1.42667,0,0,1,269.68337,280.82994Z"/><path class="cls-6" d="M249.60068,19.02908c10.20969-.58518,17.62116,5.80094,24.65054,12.81861q43.08853,43.01684,86.15917,86.05144c3.01757,3.00158,3.27867,5.02113.08731,8.17278q-27.718,27.37338-55.06119,55.12459c-3.12286,3.1716-5.10638,3.20017-7.98623-.09242-3.39066-3.87665-7.529-7.11734-10.76121-11.10572a9.49294,9.49294,0,0,1-1.861-7.01106c5.11379-23.5043-15.28835-45.59383-39.31585-41.3803-4.24876.74507-7.38776.12876-10.65355-3.22442-14.86437-15.26216-30.00825-30.25432-45.19492-45.19783-2.78494-2.74033-2.88555-4.44561-.01733-7.25342,12.6116-12.346,24.88542-25.03766,37.52129-37.35812C233.11952,22.76993,240.15458,18.7677,249.60068,19.02908Z"/><path class="cls-7" d="M164.89312,90.38014c14.07347,13.64832,27.31239,26.47454,40.53409,39.31854,3.34,3.2446,6.90152,6.32251,9.80881,9.92339a8.49376,8.49376,0,0,1,1.60894,6.4736c-4.15935,16.09095,1.58422,31.14159,15.99528,39.92231,3.27617,1.99617,4.50515,4.16523,4.39542,7.97355-.14139,4.90712-.2999,9.81582-.24766,14.72566.0266,2.49982.10658,4.99957.27164,7.49427.13148,1.9871.76089,4.41948-.35337,6.24011-1.67546,2.73749-8.94774-4.3237-10.282-5.645q-32.12725-31.81493-64.00476-63.88238c-6.72707-6.72684-14.02307-12.90035-20.27267-20.09539-2.35925-2.71615-6.52506-6.62973-6.43959-10.54011.0815-3.72867,3.87536-6.31687,6.22061-8.7365q3.81192-3.93281,7.65087-7.83929Q157.31906,98.03,164.89312,90.38014Z"/><path class="cls-8" d="M266.24831,218.56692c-.72759-.15271-.25328-9.90922-.23944-10.93005.04063-2.99955.06312-6.1831-.00891-9.25246-.0314-1.338-1.02623-6.56309,1.3849-6.56309,1.08795.01458,3.62451,3.42029,4.43258,4.21777q2.26743,2.23773,4.54778,4.46233c5.2353,5.09182,5.27729,5.11734.008,10.27528q-2.64376,2.58792-5.42764,5.03663C269.7384,216.87346,268.07024,218.94932,266.24831,218.56692Z"/></svg>