<?xml version="1.0" encoding="utf-8"?>
<!-- Generator: Adobe Illustrator 25.2.1, SVG Export Plug-In . SVG Version: 6.00 Build 0)  -->
<svg version="1.1" id="Layer_1" xmlns="http://www.w3.org/2000/svg" xmlns:xlink="http://www.w3.org/1999/xlink" x="0px" y="0px"
	 viewBox="0 0 64 64" style="enable-background:new 0 0 64 64;" xml:space="preserve">
<style type="text/css">
	.st0{fill:#F03C2E;}
</style>
<symbol  id="A" viewBox="-32 -32 64 64">
	<path class="st0" d="M30.8-2.8L2.9-30.8c-1.6-1.6-4.2-1.6-5.8,0c0,0,0,0,0,0L-8.8-25l7.4,7.4c1.7-0.6,3.7-0.2,5,1.2
		c1.3,1.3,1.8,3.3,1.2,5.1l7.1,7.1c1.7-0.6,3.7-0.2,5.1,1.2c1.2,1.2,1.7,3,1.3,4.7s-1.8,3-3.5,3.5s-3.5,0-4.7-1.3
		C8.6,2.4,8.2,0.3,8.9-1.5L2.3-8.1V9.3c0.5,0.2,0.9,0.6,1.3,0.9c1.9,1.9,1.9,5,0,6.9s-5,1.9-6.9,0s-1.9-5,0-6.9
		c0.5-0.5,1-0.8,1.6-1.1V-8.4c-0.6-0.2-1.1-0.6-1.6-1.1c-1.4-1.4-1.8-3.5-1.1-5.4l-7.3-7.3L-30.8-3C-31.6-2.2-32-1.2-32-0.1
		c0,1.1,0.4,2.1,1.2,2.9l27.9,27.9c1.6,1.6,4.2,1.6,5.8,0c0,0,0,0,0,0L30.8,3C32.4,1.4,32.4-1.2,30.8-2.8
		C30.8-2.8,30.8-2.8,30.8-2.8"/>
</symbol>
<use xlink:href="#A"  width="64" height="64" x="-32" y="-32" transform="matrix(1 0 0 1 32.0017 31.9884)" style="overflow:visible;"/>
</svg>
