<?xml version="1.0" encoding="utf-8"?>
<!-- Generator: Adobe Illustrator 25.2.1, SVG Export Plug-In . SVG Version: 6.00 Build 0)  -->
<svg version="1.1" id="Layer_1" xmlns="http://www.w3.org/2000/svg" xmlns:xlink="http://www.w3.org/1999/xlink" x="0px" y="0px"
	 viewBox="0 0 146.5 148.3" style="enable-background:new 0 0 146.5 148.3;" xml:space="preserve">
<style type="text/css">
	.st0{fill-rule:evenodd;clip-rule:evenodd;}
</style>
<symbol  id="A" viewBox="-73.3 -74.1 146.5 148.3">
	<path class="st0" d="M0-74.1c-40.5,0-73.3,34-73.3,76c0,33.6,21,62.1,50.1,72.1c3.7,0.7,5-1.7,5-3.7l-0.1-14.1
		c-20.4,4.6-24.7-9-24.7-9c-3.3-8.8-8.1-11.1-8.1-11.1c-6.7-4.7,0.5-4.6,0.5-4.6c7.4,0.5,11.2,7.8,11.2,7.8
		c6.5,11.6,17.2,8.3,21.3,6.3c0.7-4.9,2.6-8.3,4.7-10.2C-29.6,33.6-46.7,27-46.7-2.1c0-8.3,2.9-15.1,7.5-20.4
		c-0.7-1.9-3.3-9.7,0.7-20.1c0,0,6.1-2,20.1,7.8c5.8-1.7,12.1-2.5,18.3-2.6c6.2,0,12.5,0.9,18.3,2.6c14-9.8,20.1-7.8,20.1-7.8
		c4,10.5,1.5,18.2,0.7,20.1c4.7,5.3,7.5,12.1,7.5,20.4c0,29.2-17.1,35.6-33.5,37.5c2.6,2.4,5,7,5,14.1l-0.1,20.9c0,2,1.3,4.4,5,3.7
		C52.3,63.9,73.3,35.4,73.3,1.9C73.3-40.1,40.5-74.1,0-74.1z"/>
</symbol>
<use xlink:href="#A"  width="146.5" height="148.3" x="-73.3" y="-74.1" transform="matrix(1 0 0 1 73.256 74.1319)" style="overflow:visible;"/>
</svg>
