<?xml version="1.0" encoding="utf-8"?>
<!-- Generator: Adobe Illustrator 25.2.1, SVG Export Plug-In . SVG Version: 6.00 Build 0)  -->
<svg version="1.1" id="Layer_1" xmlns="http://www.w3.org/2000/svg" xmlns:xlink="http://www.w3.org/1999/xlink" x="0px" y="0px"
	 viewBox="0 0 64 59" style="enable-background:new 0 0 64 59;" xml:space="preserve">
<style type="text/css">
	.st0{fill-rule:evenodd;clip-rule:evenodd;fill:#E24329;}
	.st1{fill-rule:evenodd;clip-rule:evenodd;fill:#FC6D26;}
	.st2{fill-rule:evenodd;clip-rule:evenodd;fill:#FCA326;}
</style>
<symbol  id="A" viewBox="-32 -29.5 64 59">
	<g>
		<path class="st0" d="M0,29.5L11.8-6.8h-23.6L0,29.5z"/>
		<path class="st1" d="M0,29.5L-11.8-6.8h-16.5L0,29.5z"/>
		<path class="st2" d="M-28.3-6.8l-3.6,11c-0.3,1,0,2.1,0.9,2.7L0,29.5L-28.3-6.8z"/>
		<path class="st0" d="M-28.3-6.8h16.5l-7.1-21.8c-0.4-1.1-2-1.1-2.3,0L-28.3-6.8z"/>
		<path class="st1" d="M0,29.5L11.8-6.8h16.5L0,29.5z"/>
		<path class="st2" d="M28.3-6.8l3.6,11c0.3,1,0,2.1-0.9,2.7L0,29.5L28.3-6.8z"/>
		<path class="st0" d="M28.3-6.8H11.8l7.1-21.8c0.4-1.1,2-1.1,2.3,0L28.3-6.8z"/>
	</g>
</symbol>
<use xlink:href="#A"  width="64" height="59" x="-32" y="-29.5" transform="matrix(1 0 0 1 31.9997 29.482)" style="overflow:visible;"/>
</svg>
