<svg xmlns="http://www.w3.org/2000/svg" xmlns:xlink="http://www.w3.org/1999/xlink" viewBox="0 0 49 65" fill="#fff" fill-rule="evenodd" stroke="#000" stroke-linecap="round" stroke-linejoin="round"><style><![CDATA[.B{fill:#463014}.C{fill:#e78724}.D{fill:#fba919}.E{fill:#c9c9c9}]]></style><use xlink:href="#A" x=".5" y=".5"/><symbol id="A" overflow="visible"><g stroke="none" fill-rule="nonzero"><path d="M3.052 15.551l1.259 5.642c.159 1.403-2.821 4.542-2.821 6.105s.622 4.383 4.065 5.801c3.443 1.403 3.92 5.005 3.92 7.204s-1.258 6.423-1.258 6.423-.781 10.488 3.443 12.369 3.284 1.881 4.224 1.881 7.826 2.821 11.906 1.721c4.065-1.099 5.165-2.344 5.165-2.344s4.065.318 5.324-3.284 2.04-11.11 1.562-14.568c-.463-3.443-1.1-7.985 1.721-9.548s5.801-3.443 5.324-5.005c-.463-1.562-2.98-3.761-2.98-3.761s-.622-3.92-.159-4.861 3.284-3.284 1.721-5.005c-1.548-1.736-4.369-1.736-4.369-1.736l-3.602.318s-6.105-5.483-14.09-5.165-12.991 5.165-12.991 5.165-2.662-.94-5.006 0c-2.358.926-2.821-.014-2.358 2.647z" class="D"/><path d="M17.36 38.871l-5.382 8.101c-.347.521 2.271.55 2.271.55zm1.476-9.837l-1.447 3.573c-.55 1.345-2.676 2.011-2.676 2.011s1.1-1.157 1.1-4.065c0-1.23 1.577-1.707 1.577-1.707z" class="C"/><path d="M18.489 28.195l-1.939-.13s.492.883.825 2.011c.362 1.288-.333 3.154-.333 3.154s2.589-2.937 1.447-5.034z" class="B"/><g class="C"><path d="M17.896 30.366s-1.91 2.286-5.468.998c-3.559-1.273-3.92-5.83-3.92-7.117 0-1.273 6.741 1.273 7.667 1.823.897.55 2.633 2.734 1.722 4.297zM4.471 6.004s3.284-.636 5.468 1.1c2.185 1.721 2.821 3.096 2.821 3.096l-3.689 2.922s-1.779-.825-2.329-3.197-.174-3.472-2.271-3.92zm3.703 24.868s-5.758-1.982-4.673-3.993c1.1-2.011.217-3.096.217-3.096s-3.212 2.401-2.387 4.948c.506 1.562 1.345 2.705 5.989 4.875 2.228 4.137.463 11.573.564 11.617.174.058 3.125-1.461 2.922-8.419-.058-2.141-.231-5.049-2.633-5.931zm7.552-21.309l-5.729 2.937 1.302.651-.188.318 1.331.608 5.266 3.891c-.666-2.054-2.619-5.28-2.619-5.28s-.55-1.476.636-3.125z"/><path d="M23.754 59.602c-7.421 0-9.938-3.776-9.938-3.776l1.157 2.821c.434 1.23 5.121 5.02 8.767 5.02M14.625 53.28s.68 4.181 3.414 4.181c2.329 0 3.009-3.53 3.009-4.253zm-4.557-6.293c.246-.665 1.099-3.371 1.374-5.83.333-2.951.202-7.262.202-7.262s-.723 2.821-1.374 3.284c-.637.448-1.823 3.559-1.823 3.559l-.94 6.163c.839.159 1.548-.333 2.561.087zm-6.611-18.3s1.548-.55 2.011-3.92-.55-6.293-.55-6.293.087 4.644-.448 5.57c-.55.911-.998 1.186-1.635 2.372-.651 1.186.26 1.91.622 2.271z"/></g><path d="M5.309 6.8l-.318-.202c-.926.029.318.202.318.202z" fill="#fdc168"/><path d="M16.984 8.564s-1.461-.246-2.184-1.331c-.723-1.099-2.792-3.284-6.09-3.313s-6.553.882-6.553.882l2.85 1.794c.304-.014.825 0 1.693.029 3.573.116 4.123 3.646 4.123 3.646l12.586-1.736" class="D"/><path d="M18.199 28.079s-1.707 1.707-4.311 1.157c-2.618-.55-4.195-1.707-4.311-3.703-.116-2.011.55-2.792.55-2.792s2.922.911 4.311 2.127c1.389 1.201 2.43 3.154 3.761 3.212z"/><path d="M16.145 27.471s-1.476.68-3.125.13c-2.155-.723-2.3-2.966-2.3-2.966s-1.331 3.892 2.387 4.644c2.98.593 4.745-1.128 4.745-1.128z" class="E"/><g class="B"><path d="M17.187 7.74c-.159-3.342 2.575-5.989 3.53-6.105.058.564-.058 2.763.897 3.443.275-1.794 1.201-3.776 4.89-5.078-.796 2.098-.101 3.848.217 4.658 2.517-2.286 4.21-1.91 4.21-1.91s-1.75 3.009-1.071 4.991c-5.049-.391-12.644.535-12.673 0z"/><use xlink:href="#C"/><path d="M3.269 27.414s1.519-1.881 1.967-5.541c.174-1.447-.13-4.282-.636-5.381.087 2.691-.593 5.381-.593 5.381l-.738 5.541z"/><use xlink:href="#D"/><path d="M8.044 26.054s-.796-1.143-.651-2.387c.072-.622.362-1.259.868-1.476.955-.419 1.374.666 1.374.666s-1.345.318-1.591 3.197z"/><path d="M16.781 27.79c.029.058.043.101.043.101s-2.488 1.866-5.02-.029c-1.36-1.013-1.23-3.515-.81-4.586 1.085.246 2.011.694 2.778 1.201l-1.823-1.519-1.099-.318-2.141-.738c-.029.159-.81 3.834 1.447 6.336.998 1.114 5.7 3.588 7.928-.651z"/></g><path d="M23.407 25.128l-.087-1.288-9.36-4.933-3.891-3.125-4.485 4.702 14.467 6.843 2.618.796" class="D"/><path d="M16.94 23.768c-1.418-2.011-3.747-2.879-5.599-3.024-3.168-.246-4.673.868-4.673.868s5.194.217 6.684 2.184c2.792 3.66 6.857 3.949 7.508 3.154-.752.043-1.577-.333-2.459-1.172-.564-.521-1.013-1.374-1.461-2.011z" class="C"/><g class="B"><path d="M16.55 28.065c1.403 2.127 4.919.911 4.861-1.331 0 0-2.358 1.302-4.441-1.099-1.215-1.403-5.107-5.251-10.387-3.978 3.646.81 8.477 4.137 9.967 6.409zM6.09 34.069c.333.188 1.519 1.418 1.519 3.255 0 .926-.087 5.555-.55 8.376.68.449 1.157.535 1.852.998.347-3.269.593-8.014.477-9.938-.13-2.184-1.302-3.646-2.387-4.268l-1.056-.579c-1.852-.998-3.776-2.04-3.776-3.819 0-1.389.535-1.823 1.114-2.286l.058-.043c.376-.304.81-.651 1.056-1.23.694-1.562.81-5.526 0-6.539-.405-.506-1.476-2.184-1.172-3.327.116-.434.39-.752.839-.984.463-.246 1.1-.362 1.881-.362 1.533 0 3.24.463 4.108.752 3.139.998 6.929 3.863 8.015 4.716.029.029.043.043.058.043l.695.477-.434-.723c-.029-.043-2.778-4.571-7.696-6.221-.955-.318-2.835-.868-4.687-.868-1.099 0-2.04.188-2.777.564-.897.463-1.505 1.201-1.765 2.127-.622 2.271 1.403 4.817 1.476 4.89.232.419.333 3.472-.203 4.702-.072.174-.275.333-.535.55-.087.072-.174.13-.275.203C1.157 25.114 0 25.996 0 28.007c0 2.763 2.807 4.268 5.049 5.468.362.231.723.419 1.042.593z"/><use xlink:href="#C"/><path d="M6.452 13.035l-.072-.058c-.897-.738-.738-1.476-.579-2.184.072-.333.145-.666.116-1.013-.043-.579-.101-1.128-.275-1.403-1.056-1.664-3.602-2.199-3.631-2.199L.477 5.874 1.49 4.687c.014-.029 2.156-2.184 5.787-2.184a9.63 9.63 0 0 1 3.009.492c3.776 1.215 6.452 5.309 6.481 5.353l.116.174-2.141 1.013-.087-.13c-.231-.391-2.257-3.747-5.136-4.673-.709-.231-1.447-.347-2.213-.347a8.16 8.16 0 0 0-3.081.622c.998.449 2.199 1.201 2.951 2.401.419.651.477 1.461.55 2.228.087.955.159 1.866.825 2.43l.26.217z"/><use xlink:href="#D"/><path d="M11.139 11.169l-.043-.202c0-.015-.477-2.069-1.765-3.096-.738-.579-1.62-.883-2.633-.883-.796 0-1.374.188-1.447.217l-.174.058-.449-1.389.174-.058c.072-.029.781-.246 1.779-.246 1.316 0 2.561.391 3.588 1.114 2.517 1.765 2.835 3.414 2.85 3.588l.029.145zM6.698 6.626c1.085 0 2.069.333 2.864.955 1.143.911 1.678 2.517 1.852 3.096l1.244-.492c-.116-.434-.608-1.75-2.676-3.211-.984-.694-2.126-1.042-3.385-1.042-.694 0-1.23.116-1.49.174l.217.694c.246-.072.752-.174 1.374-.174zm11.226 49.837a2.41 2.41 0 0 1-1.476-.521c-.289-.246-1.273-1.157-1.707-2.271-.159-.419-.13-.752.116-.984.159-.159.506-.362 1.186-.362h3.674c.521 0 .897.116 1.114.333.275.289.188.636.116.839-.13.333-.694 1.418-1.635 2.416-.347.347-.839.55-1.389.55zm-1.866 5.136c-6.929-.535-9.36-7.074-9.36-8.434h1.808c.014.593 1.852 6.192 7.696 6.64z"/></g><path d="M14.12 49.866c-.101-.622-.116-1.215.014-1.808-.521-.391-1.476-.535-2.184-.767-.579-.362-3.544.376-5.7-2.228-2.691-3.255-2.126-5.208-2.126-5.208-.694.767-1.36.477-2.416 4.051s.492 6.076 3.385 8.579c1.36 1.186 3.298 1.678 4.948 1.852-.55-.564.955-.608 1.982-.998-.087-.839.058-1.649.68-2.3.376-.391.868-.636 1.36-.825a1.01 1.01 0 0 0 .072-.188c.014-.029 0-.087-.014-.159z"/><path d="M12.021 53.338c-.058-.174-.101-.362-.145-.535-.043-.203-.289-.752.014-.116a2.06 2.06 0 0 1-.159-.506c-4.673 0-8.752-3.212-7.957-9.968-.608-.81-1.476 1.635-1.476 1.635s-2.343 6.799 3.703 9.432c2.011.883 3.79 1.505 4.21 1.259.868.174 1.664-.434 1.968-.839-.058-.116-.116-.231-.159-.362z" class="E"/><g class="B"><path d="M14.032 48.897a3.72 3.72 0 0 1 .405-1.678c.014-.043.043-.072.058-.116-1.794-.014-3.877-.188-5.642-.897-1.939-.781-4.369-3.428-4.788-6.553 0 0-3.66 2.821-2.575 8.854 1.013 5.671 5.743 7.508 11.154 7.826 0-.043-.608-1.302-.419-2.069-3.067.217-6.51-.969-8.159-3.689-1.519-2.503-1.085-6.756-.463-7.378 1.519 4.803 7.002 5.772 10.43 5.7z"/><path d="M14.597 45.454c-.969 2.85-2.966 5.164-2.966 5.164s2.734-.13 2.879-.608c.116-.362 2.474-5.873 3.371-12.34-.839 1.403-3.197 7.537-3.284 7.783z"/></g><g class="C"><path d="M30.091 38.871l5.381 8.101c.347.521-2.271.55-2.271.55zm-1.476-9.837l1.447 3.573c.55 1.345 2.676 2.011 2.676 2.011s-1.099-1.157-1.099-4.065c0-1.23-1.577-1.707-1.577-1.707z"/><path d="M29.555 30.365s1.909 2.286 5.468.998c3.559-1.273 3.92-5.83 3.92-7.117 0-1.273-6.741 1.273-7.667 1.823-.897.55-2.633 2.734-1.721 4.296z"/></g><path d="M28.962 28.195l1.938-.13s-.492.883-.825 2.011c-.362 1.288.333 3.154.333 3.154s-2.575-2.937-1.447-5.034z" class="B"/><g class="C"><path d="M42.995 6.004s-3.284-.636-5.468 1.1-2.821 3.096-2.821 3.096l3.689 2.922s1.779-.825 2.329-3.197c.535-2.372.174-3.472 2.271-3.92zm-3.703 24.868s5.758-1.982 4.673-3.993c-1.1-2.011-.217-3.096-.217-3.096s3.211 2.401 2.401 4.948c-.506 1.562-1.345 2.705-5.989 4.875-2.228 4.137-.463 11.573-.564 11.617-.174.058-3.125-1.461-2.922-8.419.029-2.141.203-5.049 2.618-5.931zM31.74 9.563l5.729 2.937-1.302.651.188.318-1.331.608-5.266 3.891c.665-2.054 2.618-5.28 2.618-5.28s.55-1.476-.636-3.125zm-8.029 50.04c7.421 0 9.938-3.776 9.938-3.776l-1.157 2.821c-.434 1.23-5.121 5.02-8.767 5.02"/><path d="M32.839 53.28s-.68 4.181-3.414 4.181c-2.329 0-3.009-3.53-3.009-4.253zm4.557-6.293c-.246-.665-1.1-3.371-1.374-5.83-.333-2.951-.203-7.262-.203-7.262s.723 2.821 1.374 3.284c.636.448 1.823 3.559 1.823 3.559l.94 6.163c-.854.159-1.548-.333-2.56.087zm6.597-18.3s-1.548-.55-2.011-3.92c-.448-3.371.55-6.293.55-6.293s-.087 4.644.449 5.57c.55.911.998 1.186 1.635 2.372.651 1.186-.26 1.91-.622 2.271z"/></g><path d="M42.141 6.8l.318-.202c.94.029-.318.202-.318.202z" fill="#fdc168"/><path d="M30.467 8.564s1.461-.246 2.184-1.331c.723-1.099 2.792-3.284 6.09-3.313s6.553.882 6.553.882l-2.85 1.794c-.304-.014-.825 0-1.693.029-3.559.116-4.108 3.646-4.108 3.646L24.058 8.535" class="D"/><path d="M29.251 28.079s1.707 1.707 4.311 1.157c2.618-.55 4.195-1.707 4.311-3.703.116-2.011-.55-2.792-.55-2.792s-2.922.911-4.311 2.127c-1.389 1.201-2.416 3.154-3.761 3.212z"/><path d="M31.32 27.471s1.476.68 3.125.13c2.155-.723 2.3-2.966 2.3-2.966s1.331 3.892-2.387 4.644c-2.98.593-4.745-1.128-4.745-1.128z" class="E"/><g class="B"><use xlink:href="#E"/><path d="M44.181 27.414s-1.519-1.881-1.967-5.541c-.174-1.447.13-4.282.637-5.381-.087 2.691.593 5.381.593 5.381l.738 5.541z"/><use xlink:href="#F"/><path d="M39.421 26.054s.796-1.143.651-2.387c-.072-.622-.362-1.259-.868-1.476-.955-.419-1.374.666-1.374.666s1.331.318 1.591 3.197z"/><path d="M30.683 27.79c-.029.058-.043.101-.043.101s2.488 1.866 5.02-.029c1.36-1.013 1.23-3.515.81-4.586-1.085.246-2.011.694-2.778 1.201l1.823-1.519 1.099-.318 2.141-.738c.029.159.81 3.834-1.447 6.336-.998 1.114-5.7 3.588-7.928-.651z"/></g><path d="M26.054 26.734l1.085.68 9.49-4.687 4.817-1.316-1.172-6.394-14.033 7.711-2.184 1.649" class="D"/><path d="M30.524 23.768c1.418-2.011 3.747-2.879 5.599-3.024 3.168-.246 4.673.868 4.673.868s-5.193.217-6.684 2.184c-2.792 3.66-6.857 3.949-7.494 3.154.752.043 1.577-.333 2.459-1.172.55-.521.998-1.374 1.447-2.011z" class="C"/><g class="B"><path d="M30.914 28.065c-1.403 2.127-4.919.911-4.861-1.331 0 0 2.358 1.302 4.441-1.099 1.215-1.403 5.107-5.251 10.387-3.978-3.646.81-8.477 4.137-9.968 6.409zm10.459 6.004c-.333.188-1.519 1.418-1.519 3.255 0 .926.087 5.555.55 8.376-.68.449-1.157.535-1.852.998-.347-3.269-.593-8.014-.478-9.938.13-2.184 1.302-3.646 2.387-4.268l1.056-.579c1.852-.998 3.776-2.04 3.776-3.819 0-1.389-.535-1.823-1.114-2.286l-.058-.043c-.376-.304-.81-.651-1.056-1.23-.694-1.562-.81-5.526 0-6.539.405-.506 1.476-2.184 1.172-3.327-.116-.434-.391-.752-.839-.984-.463-.246-1.099-.362-1.881-.362-1.533 0-3.24.463-4.108.752-3.139.998-6.93 3.863-8.014 4.716-.029.029-.044.043-.058.043l-.694.477.434-.723c.029-.043 2.778-4.571 7.696-6.221.955-.318 2.835-.868 4.687-.868 1.099 0 2.025.188 2.778.564.897.463 1.504 1.201 1.765 2.127.622 2.271-1.403 4.817-1.476 4.89-.231.419-.333 3.472.203 4.702.072.174.275.333.535.55.087.072.174.13.275.203.767.579 1.924 1.461 1.924 3.472 0 2.763-2.806 4.268-5.049 5.468-.376.231-.723.419-1.042.593z"/><path d="M38.032 12.499c-.448-.752-1.591-2.213-4.21-3.486-2.937-1.432-6.322-2.155-10.083-2.155h-.014c-3.761 0-7.161.723-10.083 2.155-2.633 1.288-3.761 2.734-4.21 3.486l-.188.26 2.242.506.072-.087.043-.087c.029-.145.333-.955 2.85-2.17 2.676-1.302 5.801-1.968 9.288-1.968s6.611.666 9.287 1.968c2.503 1.23 2.807 2.025 2.85 2.17l.029.072.072.087 2.257-.506z"/><use xlink:href="#E"/><path d="M38.654 12.253l.26-.217c.68-.564.752-1.461.825-2.43.072-.767.13-1.577.55-2.228.767-1.201 1.968-1.953 2.951-2.401a8.16 8.16 0 0 0-3.081-.622c-.767 0-1.505.116-2.213.347-2.879.926-4.904 4.282-5.136 4.673l-.087.13-2.141-1.013.116-.174c.029-.043 2.72-4.137 6.481-5.353a9.63 9.63 0 0 1 3.009-.492c3.631 0 5.772 2.156 5.786 2.184l1.013 1.186-1.533.318c-.029 0-2.575.535-3.631 2.199-.174.275-.217.825-.275 1.403-.029.347.043.68.116 1.013.159.709.318 1.432-.579 2.184l-.072.058z"/><use xlink:href="#F"/><path d="M34.402 10.416l.014-.145c.029-.174.333-1.823 2.85-3.588a6.27 6.27 0 0 1 3.588-1.114c.998 0 1.707.217 1.779.246l.174.058-.448 1.389-.174-.058c-.072-.029-.651-.217-1.447-.217-1.013 0-1.895.304-2.633.883-1.287 1.027-1.765 3.081-1.765 3.096l-.043.202zm7.74-3.617l.231-.694c-.26-.072-.796-.174-1.49-.174-1.259 0-2.401.347-3.385 1.042-2.069 1.461-2.561 2.763-2.676 3.211l1.244.492c.159-.579.695-2.184 1.852-3.096.796-.622 1.779-.955 2.864-.955.608 0 1.099.101 1.36.174zM28.152 55.899c-.94-.998-1.49-2.083-1.635-2.416-.072-.188-.159-.55.116-.839.217-.217.593-.333 1.114-.333h3.675c.68 0 1.027.203 1.186.362.231.232.275.564.116.984-.434 1.114-1.418 2.011-1.707 2.271-.376.333-.926.521-1.476.521-.564.014-1.056-.188-1.389-.55z"/></g><path d="M23.725 21.251c-1.244 0-2.85-.029-4.065-.911 0 0 1.591 2.778 4.065 2.778v-.347.347c2.474 0 4.065-2.778 4.065-2.778-1.201.868-2.821.911-4.065.911z" class="C"/><path d="M27.139 21.237c-1.244.752-2.358 1.013-3.414 1.042-1.056-.029-2.17-.289-3.414-1.042 0 0 1.808 2.213 3.4 2.228h.029c1.591-.014 3.4-2.228 3.4-2.228zm4.253 40.362l-.145-1.808c5.844-.448 7.682-6.047 7.696-6.64h1.808c0 1.374-2.43 7.913-9.36 8.448z" class="B"/><path d="M33.346 49.866c.116-.622.116-1.215-.014-1.808.521-.391 1.476-.535 2.185-.767.579-.362 3.544.376 5.7-2.228 2.691-3.255 2.127-5.208 2.127-5.208.694.767 1.36.477 2.416 4.051s-.492 6.076-3.385 8.579c-1.36 1.186-3.298 1.678-4.948 1.852.55-.564-.955-.608-1.982-.998.087-.839-.058-1.649-.68-2.3-.376-.391-.868-.636-1.36-.825a1.01 1.01 0 0 1-.072-.188c-.014-.029 0-.087.014-.159z"/><path d="M35.428 53.338c.058-.174.101-.362.145-.535.043-.203.289-.752-.015-.116.072-.159.13-.333.159-.506 4.673 0 8.752-3.212 7.956-9.968.608-.81 1.476 1.635 1.476 1.635s2.344 6.799-3.703 9.432c-2.011.883-3.79 1.505-4.21 1.259-.882.174-1.664-.434-1.967-.839.072-.116.116-.231.159-.362z" class="E"/><g class="B"><path d="M33.418 48.897a3.72 3.72 0 0 0-.405-1.678c-.014-.043-.043-.072-.058-.116 1.794-.014 3.877-.188 5.642-.897 1.939-.781 4.369-3.428 4.788-6.553 0 0 3.66 2.821 2.575 8.854-1.013 5.671-5.758 7.508-11.154 7.826 0-.043.608-1.302.419-2.069 3.067.217 6.51-.969 8.159-3.689 1.519-2.503 1.085-6.756.463-7.378-1.519 4.803-6.987 5.772-10.43 5.7z"/><path d="M35.603 50.314c-.651-.694-1.837-1.533-4.571-1.533H16.42c-2.734 0-3.92.839-4.571 1.533-.94 1.013-1.085 2.43-.434 4.195C13.151 59.211 15.581 64 23.726 64h.029c8.145 0 10.575-4.788 12.311-9.49.637-1.765.492-3.183-.463-4.195zm-1.259 3.863c-.825 2.358-3.038 8.087-10.618 8.087-7.566-.014-9.794-5.729-10.618-8.087-.463-1.316-.42-2.286.101-2.879.362-.405 1.186-.897 3.081-.897h14.843c1.895 0 2.72.492 3.081.897.55.608.579 1.577.13 2.879z"/><path d="M32.854 45.454c.969 2.85 2.966 5.164 2.966 5.164s-2.734-.13-2.879-.608c-.116-.362-2.474-5.873-3.371-12.34.839 1.403 3.212 7.537 3.284 7.783z"/></g></g></symbol><defs ><path id="C" d="M6.495 12.817c-1.201-.998-.304-1.924-.405-3.067-.058-.608-.101-1.172-.304-1.49C4.673 6.51 2.069 5.975 2.04 5.975L.81 5.729l.81-.955c.101-.116 3.443-3.298 8.608-1.635 3.617 1.172 6.278 5.107 6.38 5.28l-1.808.854c-.014-.029-2.141-3.747-5.237-4.745-2.503-.81-4.817-.043-5.801.463 1.056.42 2.43 1.186 3.255 2.488.391.622.463 1.389.521 2.141.087.998.159 1.939.897 2.546z"/><path id="D" d="M11.27 10.922s-.492-2.127-1.837-3.197c-1.895-1.519-4.224-.709-4.239-.694l-.333-1.042c.116-.043 2.763-.868 5.208.839 2.459 1.722 2.749 3.298 2.778 3.472z"/><path id="E" d="M40.969 12.817c1.201-.998.304-1.924.405-3.067.058-.608.101-1.172.304-1.49 1.114-1.751 3.718-2.286 3.747-2.286l1.23-.246-.81-.955c-.101-.116-3.443-3.298-8.608-1.635-3.617 1.172-6.278 5.107-6.38 5.28l1.808.854c.029-.029 2.141-3.747 5.237-4.745 2.503-.81 4.817-.043 5.801.463-1.056.42-2.43 1.186-3.255 2.488-.391.622-.463 1.389-.521 2.141-.087.998-.159 1.939-.897 2.546z"/><path id="F" d="M36.181 10.922s.492-2.127 1.837-3.197c1.895-1.519 4.224-.709 4.239-.694l.333-1.042c-.116-.043-2.763-.868-5.208.839-2.459 1.722-2.749 3.298-2.778 3.472z"/></defs></svg>