<?xml version="1.0" encoding="utf-8"?>
<!-- Generator: Adobe Illustrator 25.2.1, SVG Export Plug-In . SVG Version: 6.00 Build 0)  -->
<svg version="1.1" id="Layer_1" xmlns="http://www.w3.org/2000/svg" xmlns:xlink="http://www.w3.org/1999/xlink" x="0px" y="0px"
	 viewBox="0 0 47.5 64" style="enable-background:new 0 0 47.5 64;" xml:space="preserve">
<style type="text/css">
	.st0{fill:#FBA919;}
	.st1{fill:#E78724;}
	.st2{fill:#463014;}
	.st3{fill:#FDC168;}
	.st4{fill:#FFFFFF;}
	.st5{fill:#C9C9C9;}
</style>
<symbol  id="A" viewBox="-23.7 -32 47.5 64">
	<g>
		<path class="st0" d="M-20.7-16.4l1.3,5.6c0.2,1.4-2.8,4.5-2.8,6.1s0.6,4.4,4.1,5.8c3.4,1.4,3.9,5,3.9,7.2s-1.3,6.4-1.3,6.4
			s-0.8,10.5,3.4,12.4S-8.8,29-7.8,29S0,31.8,4.1,30.7c4.1-1.1,5.2-2.3,5.2-2.3s4.1,0.3,5.3-3.3s2-11.1,1.6-14.6
			c-0.5-3.4-1.1-8,1.7-9.5s5.8-3.4,5.3-5c-0.5-1.6-3-3.8-3-3.8s-0.6-3.9-0.2-4.9s3.3-3.3,1.7-5c-1.5-1.7-4.4-1.7-4.4-1.7l-3.6,0.3
			c0,0-6.1-5.5-14.1-5.2c-8,0.3-13,5.2-13,5.2s-2.7-0.9-5,0C-20.7-18.2-21.1-19.1-20.7-16.4L-20.7-16.4z"/>
		<path class="st1" d="M-6.4,6.9l-5.4,8.1c-0.3,0.5,2.3,0.5,2.3,0.5L-6.4,6.9z M-4.9-3l-1.4,3.6C-6.9,2-9,2.6-9,2.6s1.1-1.2,1.1-4.1
			c0-1.2,1.6-1.7,1.6-1.7L-4.9-3z"/>
		<path class="st2" d="M-5.2-3.8l-1.9-0.1c0,0,0.5,0.9,0.8,2C-6-0.6-6.7,1.2-6.7,1.2S-4.1-1.7-5.2-3.8L-5.2-3.8z"/>
		<g>
			<path class="st1" d="M-5.8-1.6c0,0-1.9,2.3-5.5,1c-3.6-1.3-3.9-5.8-3.9-7.1c0-1.3,6.7,1.3,7.7,1.8C-6.7-5.4-4.9-3.2-5.8-1.6
				L-5.8-1.6z M-19.3-26c0,0,3.3-0.6,5.5,1.1c2.2,1.7,2.8,3.1,2.8,3.1l-3.7,2.9c0,0-1.8-0.8-2.3-3.2C-17.5-24.4-17.2-25.5-19.3-26
				L-19.3-26z M-15.6-1.1c0,0-5.8-2-4.7-4c1.1-2,0.2-3.1,0.2-3.1s-3.2,2.4-2.4,4.9c0.5,1.6,1.3,2.7,6,4.9c2.2,4.1,0.5,11.6,0.6,11.6
				c0.2,0.1,3.1-1.5,2.9-8.4C-13,2.7-13.2-0.2-15.6-1.1L-15.6-1.1z M-8-22.4l-5.7,2.9l1.3,0.7l-0.2,0.3l1.3,0.6L-6-14
				c-0.7-2.1-2.6-5.3-2.6-5.3S-9.2-20.8-8-22.4L-8-22.4z"/>
			<path class="st1" d="M0,27.6c-7.4,0-9.9-3.8-9.9-3.8l1.2,2.8c0.4,1.2,5.1,5,8.8,5 M-9.1,21.3c0,0,0.7,4.2,3.4,4.2
				c2.3,0,3-3.5,3-4.3L-9.1,21.3z M-13.7,15c0.2-0.7,1.1-3.4,1.4-5.8c0.3-3,0.2-7.3,0.2-7.3s-0.7,2.8-1.4,3.3
				c-0.6,0.4-1.8,3.6-1.8,3.6l-0.9,6.2C-15.4,15.1-14.7,14.6-13.7,15L-13.7,15z M-20.3-3.3c0,0,1.5-0.5,2-3.9
				c0.5-3.4-0.6-6.3-0.6-6.3s0.1,4.6-0.4,5.6c-0.5,0.9-1,1.2-1.6,2.4C-21.5-4.4-20.6-3.7-20.3-3.3z"/>
		</g>
		<path class="st3" d="M-18.4-25.2l-0.3-0.2C-19.7-25.4-18.4-25.2-18.4-25.2z"/>
		<path class="st0" d="M-6.7-23.4c0,0-1.5-0.2-2.2-1.3c-0.7-1.1-2.8-3.3-6.1-3.3c-3.3,0-6.6,0.9-6.6,0.9l2.8,1.8c0.3,0,0.8,0,1.7,0
			c3.6,0.1,4.1,3.6,4.1,3.6l12.6-1.7"/>
		<path class="st4" d="M-5.5-3.9c0,0-1.7,1.7-4.3,1.2c-2.6-0.5-4.2-1.7-4.3-3.7c-0.1-2,0.6-2.8,0.6-2.8s2.9,0.9,4.3,2.1
			C-7.9-5.9-6.9-4-5.5-3.9L-5.5-3.9z"/>
		<path class="st5" d="M-7.6-4.5c0,0-1.5,0.7-3.1,0.1c-2.2-0.7-2.3-3-2.3-3s-1.3,3.9,2.4,4.6c3,0.6,4.7-1.1,4.7-1.1L-7.6-4.5z"/>
		<g>
			<path class="st2" d="M-6.5-24.3c-0.2-3.3,2.6-6,3.5-6.1c0.1,0.6-0.1,2.8,0.9,3.4c0.3-1.8,1.2-3.8,4.9-5.1C2-29.9,2.7-28.2,3-27.3
				c2.5-2.3,4.2-1.9,4.2-1.9s-1.8,3-1.1,5C1.1-24.7-6.5-23.7-6.5-24.3L-6.5-24.3z"/>
			<g>
				<path id="C_3_" class="st2" d="M-17.2-19.2c-1.2-1-0.3-1.9-0.4-3.1c-0.1-0.6-0.1-1.2-0.3-1.5c-1.1-1.8-3.7-2.3-3.7-2.3l-1.2-0.2
					l0.8-1c0.1-0.1,3.4-3.3,8.6-1.6c3.6,1.2,6.3,5.1,6.4,5.3l-1.8,0.9c0,0-2.1-3.7-5.2-4.7c-2.5-0.8-4.8,0-5.8,0.5
					c1.1,0.4,2.4,1.2,3.3,2.5c0.4,0.6,0.5,1.4,0.5,2.1c0.1,1,0.2,1.9,0.9,2.5L-17.2-19.2z"/>
			</g>
			<path class="st2" d="M-20.5-4.6c0,0,1.5-1.9,2-5.5c0.2-1.4-0.1-4.3-0.6-5.4c0.1,2.7-0.6,5.4-0.6,5.4L-20.5-4.6z"/>
			<g>
				<path id="D_3_" class="st2" d="M-12.5-21.1c0,0-0.5-2.1-1.8-3.2c-1.9-1.5-4.2-0.7-4.2-0.7l-0.3-1c0.1,0,2.8-0.9,5.2,0.8
					c2.5,1.7,2.7,3.3,2.8,3.5L-12.5-21.1z"/>
			</g>
			<path class="st2" d="M-15.7-5.9c0,0-0.8-1.1-0.7-2.4c0.1-0.6,0.4-1.3,0.9-1.5c1-0.4,1.4,0.7,1.4,0.7S-15.4-8.8-15.7-5.9z"/>
			<path class="st2" d="M-7-4.2c0,0.1,0,0.1,0,0.1s-2.5,1.9-5,0c-1.4-1-1.2-3.5-0.8-4.6c1.1,0.2,2,0.7,2.8,1.2L-11.8-9l-1.1-0.3
				l-2.1-0.7c0,0.2-0.8,3.8,1.4,6.3c1,1.1,5.7,3.6,7.9-0.7L-7-4.2z"/>
		</g>
		<path class="st0" d="M-0.3-6.9l-0.1-1.3l-9.4-4.9l-3.9-3.1l-4.5,4.7l14.5,6.8l2.6,0.8"/>
		<path class="st1" d="M-6.8-8.2c-1.4-2-3.7-2.9-5.6-3c-3.2-0.2-4.7,0.9-4.7,0.9s5.2,0.2,6.7,2.2c2.8,3.7,6.9,3.9,7.5,3.2
			c-0.8,0-1.6-0.3-2.5-1.2C-5.9-6.7-6.3-7.6-6.8-8.2L-6.8-8.2z"/>
		<g>
			<path class="st2" d="M-7.2-3.9C-5.8-1.8-2.3-3-2.3-5.3c0,0-2.4,1.3-4.4-1.1c-1.2-1.4-5.1-5.3-10.4-4C-13.5-9.5-8.7-6.2-7.2-3.9
				L-7.2-3.9z M-17.6,2.1c0.3,0.2,1.5,1.4,1.5,3.3c0,0.9-0.1,5.6-0.5,8.4c0.7,0.4,1.2,0.5,1.9,1c0.3-3.3,0.6-8,0.5-9.9
				c-0.1-2.2-1.3-3.6-2.4-4.3l-1.1-0.6c-1.9-1-3.8-2-3.8-3.8c0-1.4,0.5-1.8,1.1-2.3l0.1,0c0.4-0.3,0.8-0.7,1.1-1.2
				c0.7-1.6,0.8-5.5,0-6.5c-0.4-0.5-1.5-2.2-1.2-3.3c0.1-0.4,0.4-0.8,0.8-1c0.5-0.2,1.1-0.4,1.9-0.4c1.5,0,3.2,0.5,4.1,0.8
				c3.1,1,6.9,3.9,8,4.7c0,0,0,0,0.1,0l0.7,0.5l-0.4-0.7c0,0-2.8-4.6-7.7-6.2c-1-0.3-2.8-0.9-4.7-0.9c-1.1,0-2,0.2-2.8,0.6
				c-0.9,0.5-1.5,1.2-1.8,2.1c-0.6,2.3,1.4,4.8,1.5,4.9c0.2,0.4,0.3,3.5-0.2,4.7c-0.1,0.2-0.3,0.3-0.5,0.5c-0.1,0.1-0.2,0.1-0.3,0.2
				C-22.6-6.9-23.7-6-23.7-4c0,2.8,2.8,4.3,5,5.5C-18.3,1.7-18,1.9-17.6,2.1L-17.6,2.1z"/>
			<g>
				<path id="C_2_" class="st2" d="M-17.2-19.2c-1.2-1-0.3-1.9-0.4-3.1c-0.1-0.6-0.1-1.2-0.3-1.5c-1.1-1.8-3.7-2.3-3.7-2.3l-1.2-0.2
					l0.8-1c0.1-0.1,3.4-3.3,8.6-1.6c3.6,1.2,6.3,5.1,6.4,5.3l-1.8,0.9c0,0-2.1-3.7-5.2-4.7c-2.5-0.8-4.8,0-5.8,0.5
					c1.1,0.4,2.4,1.2,3.3,2.5c0.4,0.6,0.5,1.4,0.5,2.1c0.1,1,0.2,1.9,0.9,2.5L-17.2-19.2z"/>
			</g>
			<path class="st2" d="M-17.3-19L-17.3-19c-1-0.8-0.8-1.5-0.7-2.2c0.1-0.3,0.1-0.7,0.1-1c0-0.6-0.1-1.1-0.3-1.4
				c-1.1-1.7-3.6-2.2-3.6-2.2l-1.5-0.3l1-1.2c0,0,2.2-2.2,5.8-2.2c1,0,2,0.2,3,0.5c3.8,1.2,6.5,5.3,6.5,5.4l0.1,0.2l-2.1,1l-0.1-0.1
				c-0.2-0.4-2.3-3.7-5.1-4.7c-0.7-0.2-1.4-0.3-2.2-0.3c-1.1,0-2.1,0.2-3.1,0.6c1,0.4,2.2,1.2,3,2.4c0.4,0.7,0.5,1.5,0.6,2.2
				c0.1,1,0.2,1.9,0.8,2.4l0.3,0.2L-17.3-19z"/>
			<g>
				<path id="D_2_" class="st2" d="M-12.5-21.1c0,0-0.5-2.1-1.8-3.2c-1.9-1.5-4.2-0.7-4.2-0.7l-0.3-1c0.1,0,2.8-0.9,5.2,0.8
					c2.5,1.7,2.7,3.3,2.8,3.5L-12.5-21.1z"/>
			</g>
			<path class="st2" d="M-12.6-20.8l0-0.2c0,0-0.5-2.1-1.8-3.1C-15.1-24.7-16-25-17-25c-0.8,0-1.4,0.2-1.4,0.2l-0.2,0.1l-0.4-1.4
				l0.2-0.1c0.1,0,0.8-0.2,1.8-0.2c1.3,0,2.6,0.4,3.6,1.1c2.5,1.8,2.8,3.4,2.8,3.6l0,0.1L-12.6-20.8z M-17-25.4c1.1,0,2.1,0.3,2.9,1
				c1.1,0.9,1.7,2.5,1.9,3.1l1.2-0.5c-0.1-0.4-0.6-1.8-2.7-3.2c-1-0.7-2.1-1-3.4-1c-0.7,0-1.2,0.1-1.5,0.2l0.2,0.7
				C-18.2-25.3-17.7-25.4-17-25.4z M-5.8,24.5c-0.5,0-1.1-0.2-1.5-0.5c-0.3-0.2-1.3-1.2-1.7-2.3c-0.2-0.4-0.1-0.8,0.1-1
				c0.2-0.2,0.5-0.4,1.2-0.4H-4c0.5,0,0.9,0.1,1.1,0.3c0.3,0.3,0.2,0.6,0.1,0.8c-0.1,0.3-0.7,1.4-1.6,2.4
				C-4.8,24.3-5.3,24.5-5.8,24.5L-5.8,24.5z M-7.7,29.6c-6.9-0.5-9.4-7.1-9.4-8.4h1.8c0,0.6,1.9,6.2,7.7,6.6L-7.7,29.6z"/>
		</g>
		<path class="st4" d="M-9.6,17.9c-0.1-0.6-0.1-1.2,0-1.8c-0.5-0.4-1.5-0.5-2.2-0.8c-0.6-0.4-3.5,0.4-5.7-2.2
			c-2.7-3.3-2.1-5.2-2.1-5.2c-0.7,0.8-1.4,0.5-2.4,4.1s0.5,6.1,3.4,8.6c1.4,1.2,3.3,1.7,4.9,1.9c-0.6-0.6,1-0.6,2-1
			c-0.1-0.8,0.1-1.6,0.7-2.3c0.4-0.4,0.9-0.6,1.4-0.8c0-0.1,0.1-0.1,0.1-0.2C-9.6,18-9.6,17.9-9.6,17.9L-9.6,17.9z"/>
		<path class="st5" d="M-11.7,21.3c-0.1-0.2-0.1-0.4-0.1-0.5c0-0.2-0.3-0.8,0-0.1c-0.1-0.2-0.1-0.3-0.2-0.5c-4.7,0-8.8-3.2-8-10
			c-0.6-0.8-1.5,1.6-1.5,1.6s-2.3,6.8,3.7,9.4c2,0.9,3.8,1.5,4.2,1.3c0.9,0.2,1.7-0.4,2-0.8C-11.6,21.6-11.7,21.5-11.7,21.3
			L-11.7,21.3z"/>
		<g>
			<path class="st2" d="M-9.7,16.9c0-0.6,0.1-1.2,0.4-1.7c0,0,0-0.1,0.1-0.1c-1.8,0-3.9-0.2-5.6-0.9c-1.9-0.8-4.4-3.4-4.8-6.6
				c0,0-3.7,2.8-2.6,8.9c1,5.7,5.7,7.5,11.2,7.8c0,0-0.6-1.3-0.4-2.1c-3.1,0.2-6.5-1-8.2-3.7c-1.5-2.5-1.1-6.8-0.5-7.4
				C-18.6,16-13.1,17-9.7,16.9L-9.7,16.9z"/>
			<path class="st2" d="M-9.1,13.5c-1,2.8-3,5.2-3,5.2s2.7-0.1,2.9-0.6c0.1-0.4,2.5-5.9,3.4-12.3C-6.7,7.1-9,13.2-9.1,13.5
				L-9.1,13.5z"/>
		</g>
		<g>
			<path class="st1" d="M6.4,6.9l5.4,8.1c0.3,0.5-2.3,0.5-2.3,0.5L6.4,6.9z M4.9-3l1.4,3.6C6.9,2,9,2.6,9,2.6S7.9,1.5,7.9-1.4
				c0-1.2-1.6-1.7-1.6-1.7L4.9-3z"/>
			<path class="st1" d="M5.8-1.6c0,0,1.9,2.3,5.5,1c3.6-1.3,3.9-5.8,3.9-7.1c0-1.3-6.7,1.3-7.7,1.8C6.6-5.4,4.9-3.2,5.8-1.6z"/>
		</g>
		<path class="st2" d="M5.2-3.8l1.9-0.1c0,0-0.5,0.9-0.8,2C6-0.6,6.7,1.2,6.7,1.2S4.1-1.7,5.2-3.8L5.2-3.8z"/>
		<g>
			<path class="st1" d="M19.3-26c0,0-3.3-0.6-5.5,1.1S11-21.8,11-21.8l3.7,2.9c0,0,1.8-0.8,2.3-3.2C17.5-24.4,17.2-25.5,19.3-26
				L19.3-26z M15.6-1.1c0,0,5.8-2,4.7-4c-1.1-2-0.2-3.1-0.2-3.1s3.2,2.4,2.4,4.9c-0.5,1.6-1.3,2.7-6,4.9c-2.2,4.1-0.5,11.6-0.6,11.6
				c-0.2,0.1-3.1-1.5-2.9-8.4C13,2.7,13.1-0.2,15.6-1.1L15.6-1.1z M8-22.4l5.7,2.9l-1.3,0.7l0.2,0.3l-1.3,0.6L6-14
				c0.7-2.1,2.6-5.3,2.6-5.3S9.2-20.8,8-22.4z M0,27.6c7.4,0,9.9-3.8,9.9-3.8l-1.2,2.8c-0.4,1.2-5.1,5-8.8,5"/>
			<path class="st1" d="M9.1,21.3c0,0-0.7,4.2-3.4,4.2c-2.3,0-3-3.5-3-4.3L9.1,21.3z M13.7,15c-0.2-0.7-1.1-3.4-1.4-5.8
				c-0.3-3-0.2-7.3-0.2-7.3s0.7,2.8,1.4,3.3c0.6,0.4,1.8,3.6,1.8,3.6l0.9,6.2C15.4,15.1,14.7,14.6,13.7,15L13.7,15z M20.3-3.3
				c0,0-1.5-0.5-2-3.9c-0.4-3.4,0.5-6.3,0.5-6.3S18.7-8.9,19.2-8c0.5,0.9,1,1.2,1.6,2.4C21.5-4.4,20.6-3.7,20.3-3.3L20.3-3.3z"/>
		</g>
		<path class="st3" d="M18.4-25.2l0.3-0.2C19.7-25.4,18.4-25.2,18.4-25.2z"/>
		<path class="st0" d="M6.7-23.4c0,0,1.5-0.2,2.2-1.3c0.7-1.1,2.8-3.3,6.1-3.3c3.3,0,6.6,0.9,6.6,0.9l-2.8,1.8c-0.3,0-0.8,0-1.7,0
			c-3.6,0.1-4.1,3.6-4.1,3.6L0.3-23.5"/>
		<path class="st4" d="M5.5-3.9c0,0,1.7,1.7,4.3,1.2c2.6-0.5,4.2-1.7,4.3-3.7c0.1-2-0.5-2.8-0.5-2.8s-2.9,0.9-4.3,2.1
			C7.9-5.9,6.9-4,5.5-3.9L5.5-3.9z"/>
		<path class="st5" d="M7.6-4.5c0,0,1.5,0.7,3.1,0.1c2.2-0.7,2.3-3,2.3-3s1.3,3.9-2.4,4.6c-3,0.6-4.7-1.1-4.7-1.1L7.6-4.5z"/>
		<g>
			<g>
				<path id="E_3_" class="st2" d="M17.2-19.2c1.2-1,0.3-1.9,0.4-3.1c0.1-0.6,0.1-1.2,0.3-1.5c1.1-1.8,3.7-2.3,3.7-2.3l1.2-0.2
					l-0.8-1c-0.1-0.1-3.4-3.3-8.6-1.6c-3.6,1.2-6.3,5.1-6.4,5.3l1.8,0.9c0,0,2.1-3.7,5.2-4.7c2.5-0.8,4.8,0,5.8,0.5
					c-1.1,0.4-2.4,1.2-3.3,2.5c-0.4,0.6-0.5,1.4-0.5,2.1c-0.1,1-0.2,1.9-0.9,2.5L17.2-19.2z"/>
			</g>
			<path class="st2" d="M20.4-4.6c0,0-1.5-1.9-2-5.5c-0.2-1.4,0.1-4.3,0.6-5.4c-0.1,2.7,0.6,5.4,0.6,5.4L20.4-4.6L20.4-4.6z"/>
			<g>
				<path id="F_3_" class="st2" d="M12.4-21.1c0,0,0.5-2.1,1.8-3.2c1.9-1.5,4.2-0.7,4.2-0.7l0.3-1c-0.1,0-2.8-0.9-5.2,0.8
					c-2.5,1.7-2.7,3.3-2.8,3.5L12.4-21.1z"/>
			</g>
			<path class="st2" d="M15.7-5.9c0,0,0.8-1.1,0.7-2.4C16.3-9,16-9.6,15.5-9.8c-1-0.4-1.4,0.7-1.4,0.7S15.4-8.8,15.7-5.9z"/>
			<path class="st2" d="M7-4.2c0,0.1,0,0.1,0,0.1s2.5,1.9,5,0c1.4-1,1.2-3.5,0.8-4.6c-1.1,0.2-2,0.7-2.8,1.2L11.8-9l1.1-0.3l2.1-0.7
				c0,0.2,0.8,3.8-1.4,6.3c-1,1.1-5.7,3.6-7.9-0.7L7-4.2z"/>
		</g>
		<path class="st0" d="M2.3-5.3l1.1,0.7l9.5-4.7l4.8-1.3L16.5-17l-14,7.7L0.3-7.6"/>
		<path class="st1" d="M6.8-8.2c1.4-2,3.7-2.9,5.6-3c3.2-0.2,4.7,0.9,4.7,0.9s-5.2,0.2-6.7,2.2C7.6-4.5,3.5-4.3,2.9-5.1
			c0.8,0,1.6-0.3,2.5-1.2C5.9-6.7,6.3-7.6,6.8-8.2L6.8-8.2z"/>
		<g>
			<path class="st2" d="M7.2-3.9C5.8-1.8,2.3-3,2.3-5.3c0,0,2.4,1.3,4.4-1.1c1.2-1.4,5.1-5.3,10.4-4C13.5-9.5,8.7-6.2,7.2-3.9
				L7.2-3.9z M17.6,2.1c-0.3,0.2-1.5,1.4-1.5,3.3c0,0.9,0.1,5.6,0.5,8.4c-0.7,0.4-1.2,0.5-1.9,1c-0.3-3.3-0.6-8-0.5-9.9
				c0.1-2.2,1.3-3.6,2.4-4.3l1.1-0.6c1.9-1,3.8-2,3.8-3.8c0-1.4-0.5-1.8-1.1-2.3l-0.1,0c-0.4-0.3-0.8-0.7-1.1-1.2
				c-0.7-1.6-0.8-5.5,0-6.5c0.4-0.5,1.5-2.2,1.2-3.3c-0.1-0.4-0.4-0.8-0.8-1c-0.5-0.2-1.1-0.4-1.9-0.4c-1.5,0-3.2,0.5-4.1,0.8
				c-3.1,1-6.9,3.9-8,4.7c0,0,0,0-0.1,0l-0.7,0.5l0.4-0.7c0,0,2.8-4.6,7.7-6.2c1-0.3,2.8-0.9,4.7-0.9c1.1,0,2,0.2,2.8,0.6
				c0.9,0.5,1.5,1.2,1.8,2.1c0.6,2.3-1.4,4.8-1.5,4.9c-0.2,0.4-0.3,3.5,0.2,4.7c0.1,0.2,0.3,0.3,0.5,0.5c0.1,0.1,0.2,0.1,0.3,0.2
				C22.6-6.9,23.7-6,23.7-4c0,2.8-2.8,4.3-5,5.5C18.3,1.7,18,1.9,17.6,2.1L17.6,2.1z"/>
			<path class="st2" d="M14.3-19.5c-0.4-0.8-1.6-2.2-4.2-3.5C7.2-24.4,3.8-25.1,0-25.1h0c-3.8,0-7.2,0.7-10.1,2.2
				c-2.6,1.3-3.8,2.7-4.2,3.5l-0.2,0.3l2.2,0.5l0.1-0.1l0-0.1c0-0.1,0.3-1,2.9-2.2c2.7-1.3,5.8-2,9.3-2s6.6,0.7,9.3,2
				c2.5,1.2,2.8,2,2.8,2.2l0,0.1l0.1,0.1l2.3-0.5L14.3-19.5z"/>
			<g>
				<path id="E_2_" class="st2" d="M17.2-19.2c1.2-1,0.3-1.9,0.4-3.1c0.1-0.6,0.1-1.2,0.3-1.5c1.1-1.8,3.7-2.3,3.7-2.3l1.2-0.2
					l-0.8-1c-0.1-0.1-3.4-3.3-8.6-1.6c-3.6,1.2-6.3,5.1-6.4,5.3l1.8,0.9c0,0,2.1-3.7,5.2-4.7c2.5-0.8,4.8,0,5.8,0.5
					c-1.1,0.4-2.4,1.2-3.3,2.5c-0.4,0.6-0.5,1.4-0.5,2.1c-0.1,1-0.2,1.9-0.9,2.5L17.2-19.2z"/>
			</g>
			<path class="st2" d="M14.9-19.7l0.3-0.2c0.7-0.6,0.8-1.5,0.8-2.4c0.1-0.8,0.1-1.6,0.5-2.2c0.8-1.2,2-2,3-2.4
				c-1-0.4-2-0.6-3.1-0.6c-0.8,0-1.5,0.1-2.2,0.3c-2.9,0.9-4.9,4.3-5.1,4.7L9-22.5l-2.1-1L7-23.7c0,0,2.7-4.1,6.5-5.4
				c1-0.3,2-0.5,3-0.5c3.6,0,5.8,2.2,5.8,2.2l1,1.2l-1.5,0.3c0,0-2.6,0.5-3.6,2.2c-0.2,0.3-0.2,0.8-0.3,1.4c0,0.3,0,0.7,0.1,1
				c0.2,0.7,0.3,1.4-0.6,2.2L17.3-19L14.9-19.7z"/>
			<g>
				<path id="F_2_" class="st2" d="M12.4-21.1c0,0,0.5-2.1,1.8-3.2c1.9-1.5,4.2-0.7,4.2-0.7l0.3-1c-0.1,0-2.8-0.9-5.2,0.8
					c-2.5,1.7-2.7,3.3-2.8,3.5L12.4-21.1z"/>
			</g>
			<path class="st2" d="M10.7-21.6l0-0.1c0-0.2,0.3-1.8,2.8-3.6c1.1-0.7,2.3-1.1,3.6-1.1c1,0,1.7,0.2,1.8,0.2l0.2,0.1l-0.4,1.4
				l-0.2-0.1c-0.1,0-0.7-0.2-1.4-0.2c-1,0-1.9,0.3-2.6,0.9c-1.3,1-1.8,3.1-1.8,3.1l0,0.2L10.7-21.6z M18.4-25.2l0.2-0.7
				c-0.3-0.1-0.8-0.2-1.5-0.2c-1.3,0-2.4,0.3-3.4,1c-2.1,1.5-2.6,2.8-2.7,3.2l1.2,0.5c0.2-0.6,0.7-2.2,1.9-3.1c0.8-0.6,1.8-1,2.9-1
				C17.7-25.4,18.1-25.3,18.4-25.2z M4.4,23.9c-0.9-1-1.5-2.1-1.6-2.4c-0.1-0.2-0.2-0.5,0.1-0.8c0.2-0.2,0.6-0.3,1.1-0.3h3.7
				c0.7,0,1,0.2,1.2,0.4c0.2,0.2,0.3,0.6,0.1,1c-0.4,1.1-1.4,2-1.7,2.3c-0.4,0.3-0.9,0.5-1.5,0.5C5.2,24.5,4.8,24.3,4.4,23.9z"/>
		</g>
		<path class="st1" d="M0-10.7c-1.2,0-2.9,0-4.1-0.9c0,0,1.6,2.8,4.1,2.8v-0.3v0.3c2.5,0,4.1-2.8,4.1-2.8C2.9-10.8,1.2-10.7,0-10.7z
			"/>
		<path class="st2" d="M3.4-10.8C2.2-10,1-9.8,0-9.7c-1.1,0-2.2-0.3-3.4-1c0,0,1.8,2.2,3.4,2.2h0C1.6-8.5,3.4-10.8,3.4-10.8
			L3.4-10.8z M7.7,29.6l-0.1-1.8c5.8-0.4,7.7-6,7.7-6.6H17C17,22.5,14.6,29.1,7.7,29.6L7.7,29.6z"/>
		<path class="st4" d="M9.6,17.9c0.1-0.6,0.1-1.2,0-1.8c0.5-0.4,1.5-0.5,2.2-0.8c0.6-0.4,3.5,0.4,5.7-2.2c2.7-3.3,2.1-5.2,2.1-5.2
			c0.7,0.8,1.4,0.5,2.4,4.1s-0.5,6.1-3.4,8.6c-1.4,1.2-3.3,1.7-4.9,1.9c0.5-0.6-1-0.6-2-1c0.1-0.8-0.1-1.6-0.7-2.3
			c-0.4-0.4-0.9-0.6-1.4-0.8c0-0.1-0.1-0.1-0.1-0.2C9.6,18,9.6,17.9,9.6,17.9L9.6,17.9z"/>
		<path class="st5" d="M11.7,21.3c0.1-0.2,0.1-0.4,0.1-0.5c0-0.2,0.3-0.8,0-0.1c0.1-0.2,0.1-0.3,0.2-0.5c4.7,0,8.8-3.2,8-10
			c0.6-0.8,1.5,1.6,1.5,1.6s2.3,6.8-3.7,9.4c-2,0.9-3.8,1.5-4.2,1.3c-0.9,0.2-1.7-0.4-2-0.8C11.6,21.6,11.7,21.5,11.7,21.3z"/>
		<g>
			<path class="st2" d="M9.7,16.9c0-0.6-0.1-1.2-0.4-1.7c0,0,0-0.1-0.1-0.1c1.8,0,3.9-0.2,5.6-0.9c1.9-0.8,4.4-3.4,4.8-6.6
				c0,0,3.7,2.8,2.6,8.9c-1,5.7-5.8,7.5-11.2,7.8c0,0,0.6-1.3,0.4-2.1c3.1,0.2,6.5-1,8.2-3.7c1.5-2.5,1.1-6.8,0.5-7.4
				C18.6,16,13.1,17,9.7,16.9L9.7,16.9z"/>
			<path class="st2" d="M11.9,18.3c-0.7-0.7-1.8-1.5-4.6-1.5H-7.3c-2.7,0-3.9,0.8-4.6,1.5c-0.9,1-1.1,2.4-0.4,4.2
				C-10.6,27.2-8.2,32,0,32h0c8.1,0,10.6-4.8,12.3-9.5C13,20.7,12.8,19.3,11.9,18.3L11.9,18.3z M10.6,22.2c-0.8,2.4-3,8.1-10.6,8.1
				c-7.6,0-9.8-5.7-10.6-8.1c-0.5-1.3-0.4-2.3,0.1-2.9c0.4-0.4,1.2-0.9,3.1-0.9H7.4c1.9,0,2.7,0.5,3.1,0.9
				C11,19.9,11.1,20.9,10.6,22.2z"/>
			<path class="st2" d="M9.1,13.5c1,2.8,3,5.2,3,5.2S9.4,18.5,9.2,18c-0.1-0.4-2.5-5.9-3.4-12.3C6.7,7.1,9,13.2,9.1,13.5L9.1,13.5z"
				/>
		</g>
	</g>
</symbol>
<use xlink:href="#A"  width="47.5" height="64" x="-23.7" y="-32" transform="matrix(1 0 0 1 23.732 32)" style="overflow:visible;"/>
</svg>
