<?xml version="1.0" encoding="utf-8"?>
<!-- Generator: Adobe Illustrator 25.2.1, SVG Export Plug-In . SVG Version: 6.00 Build 0)  -->
<svg version="1.1" id="Layer_1" xmlns="http://www.w3.org/2000/svg" xmlns:xlink="http://www.w3.org/1999/xlink" x="0px" y="0px"
	 viewBox="0 0 36 80" style="enable-background:new 0 0 36 80;" xml:space="preserve">
<style type="text/css">
	.st0{fill-rule:evenodd;clip-rule:evenodd;fill:#DA4648;}
</style>
<symbol  id="A" viewBox="-18 -40 36 80">
	<g>
		<path class="st0" d="M-0.2,23.1c-4.7,0-8.3-0.7-10-1.1c-1.2-0.3-2.1-0.6-2.9-0.9l2.3,4l0.9,12.4c0,1.4,4.4,2.5,9.8,2.5
			s9.8-1.1,9.8-2.5l0.7-12.5l2.2-3.8C12,21.4,11,21.7,9.8,22C8.1,22.4,4.5,23.1-0.2,23.1z M12.8-17.2c-3.4,0.5-8,0.7-12.8,0.7
			s-9.4-0.3-12.8-0.7c-1.7-0.2-3-0.5-4-0.8c-0.2-0.1-0.6-0.2-1-0.4l2.1,19.6c0.1-0.3,0.2-0.7,0.3-1c0.2-0.7,0.5-1.4,0.9-2
			c0.3-0.6,0.7-1.3,1.1-1.9c0.4-0.6,0.8-1.1,1.2-1.6c0.4-0.5,0.9-0.9,1.3-1.3s0.9-0.6,1.4-0.8C-9-7.7-8.5-7.8-8-7.8
			c0.5,0,1,0.1,1.5,0.4s1,0.8,1.4,1.4C-5-5.8-5-5.6-4.9-5.5c0,0.1,0,0.3,0,0.4c0,0.3-0.1,0.6-0.2,0.7s-0.3,0.3-0.5,0.3
			c-0.2,0-0.4-0.1-0.5-0.3s-0.3-0.5-0.5-0.8c-0.2-0.3-0.4-0.6-0.6-0.7S-7.8-6.1-8-6.1c-0.4,0-0.8,0.2-1.3,0.5s-0.9,0.8-1.4,1.3
			c-0.5,0.6-0.9,1.2-1.3,1.9c-0.4,0.7-0.8,1.4-1.1,2.2c-0.3,0.7-0.6,1.5-0.8,2.2c-0.2,0.7-0.3,1.4-0.3,2c0,0.2,0,0.4,0,0.6
			S-14,5-14,5.1c0.1,0.2,0.2,0.3,0.3,0.4c0.1,0.1,0.3,0.2,0.5,0.2c0.2,0,0.5-0.1,0.7-0.2c0.3-0.1,0.6-0.3,0.8-0.6
			c0.3-0.2,0.6-0.5,0.9-0.8s0.6-0.6,0.8-0.9s0.5-0.6,0.7-0.9s0.3-0.5,0.4-0.7L-8-0.8c0.1-0.3,0.2-0.4,0.4-0.6s0.3-0.2,0.5-0.2
			c0.1,0,0.2,0,0.2,0c0.1,0,0.2,0.1,0.2,0.1c0.1,0.1,0.1,0.1,0.2,0.2c0,0.1,0.1,0.2,0.1,0.3c0,0.3,0,0.6-0.1,0.9
			c-0.1,0.3-0.1,0.6-0.2,0.8S-6.9,1.5-7,1.8c-0.1,0.3-0.2,0.6-0.3,0.9c0,0-0.1,0.1-0.1,0.3l-0.2,0.7L-8,4.6l-0.3,1l-0.3,1l-0.3,0.9
			l-0.2,0.7l-0.1,0.3c0,0.1-0.1,0.2-0.1,0.4c-0.1,0.1-0.1,0.3-0.2,0.4c-0.1,0.1-0.2,0.2-0.3,0.3s-0.2,0.1-0.3,0.1
			c-0.2,0-0.3-0.1-0.4-0.2s-0.1-0.4-0.1-0.7V8.8c0,0,0-0.1,0-0.2c0-0.1,0-0.3,0.1-0.6l0.3-1l0.4-1.2l0.4-1.1c-0.3,0.4-0.7,0.7-1,1
			c-0.4,0.3-0.7,0.6-1.1,0.9c-0.4,0.3-0.8,0.5-1.1,0.7s-0.8,0.3-1.1,0.3c-0.4,0-0.8-0.1-1-0.3c-0.1,0-0.1-0.1-0.2-0.1l1.2,12.4
			c0.3,0.8,6.1,2.7,13.7,2.7s13.4-1.9,13.7-2.7l1.7-14.8l-0.4,0.4c-0.5,0.5-0.9,0.8-1.4,1.2c-0.4,0.3-0.8,0.6-1.3,0.8
			c-0.4,0.2-0.9,0.3-1.3,0.3c-0.4,0-0.8-0.1-1-0.3S9.5,6.7,9.5,6.3V6.3c0,0,0-0.1,0-0.1c0-0.2,0.1-0.4,0.3-0.7s0.3-0.5,0.6-0.8
			c0.2-0.3,0.5-0.6,0.7-0.9l0.7-0.8c0.2-0.3,0.4-0.5,0.5-0.7s0.2-0.4,0.2-0.5c0-0.1,0-0.1-0.1-0.2s-0.2-0.1-0.3-0.1
			c-0.2,0-0.5,0.1-0.7,0.2S10.9,1.8,10.7,2S10.2,2.5,10,2.7C9.7,3,9.5,3.3,9.3,3.5C9.1,3.8,8.9,4.1,8.8,4.4C8.6,4.7,8.5,4.9,8.3,5.2
			L8.2,5.5L8,6L7.7,6.5L7.5,7L7.3,7.5L7.2,7.7c0,0.1-0.1,0.2-0.1,0.4L6.8,8.7L6.6,9.4l-0.3,0.7l-0.2,0.6C6,10.8,6,11,6,11.1
			c-0.1,0.2-0.1,0.3-0.2,0.5S5.6,11.9,5.5,12s-0.2,0.2-0.3,0.3s-0.3,0.1-0.4,0.1c-0.2,0-0.4,0-0.5-0.2S4,12,4,11.7
			c0-0.1,0-0.3,0.1-0.4c0-0.1,0.1-0.3,0.1-0.4c0.1-0.1,0.1-0.3,0.2-0.4L4.5,10l1-2.1l0.9-2.1l0.2-0.4L6.5,5.5
			c-0.4,0.4-0.8,0.7-1.1,1S4.6,7,4.2,7.2S3.5,7.4,3.2,7.4c-0.2,0-0.4,0-0.6-0.1C2.4,7.2,2.3,7.1,2.2,7S2,6.7,2,6.5
			c0-0.1,0-0.1,0-0.2C1.9,6.4,1.8,6.5,1.7,6.6C1.3,6.8,0.9,7,0.6,7.2s-0.7,0.2-0.9,0.2S-0.9,7.3-1,7.1s-0.3-0.5-0.3-1
			c0-0.3,0-0.7,0.1-1.1c-0.2,0.3-0.4,0.6-0.6,0.8c-0.2,0.3-0.5,0.5-0.8,0.8c-0.3,0.2-0.6,0.4-1,0.6c-0.4,0.1-0.8,0.2-1.2,0.2
			c-0.2,0-0.4,0-0.6-0.1c-0.2,0-0.3-0.1-0.5-0.2S-5.9,6.8-6,6.6s-0.1-0.4-0.1-0.7c0,0,0-0.1,0-0.3S-6,5-5.8,4.6s0.3-1,0.6-1.7
			s0.6-1.5,1.1-2.5C-4,0.1-3.9-0.1-3.7-0.2s0.3-0.2,0.5-0.2c0.1,0,0.2,0,0.3,0c0.1,0,0.2,0.1,0.2,0.1S-2.6-0.1-2.5,0
			s0.1,0.2,0.1,0.3c0,0.1,0,0.1,0,0.2c0,0.1-0.1,0.3-0.2,0.5L-3,1.6l-0.4,0.8c-0.1,0.3-0.3,0.6-0.4,0.9C-3.9,3.5-4,3.8-4.1,4.2
			s-0.1,0.6-0.1,0.9c0,0.1,0,0.2,0.1,0.3S-4,5.6-3.9,5.6c0.4,0,0.7-0.1,1.1-0.4s0.7-0.6,0.9-0.9c0.3-0.4,0.6-0.8,0.8-1.2
			c0.2-0.4,0.4-0.8,0.6-1.2c0.1-0.2,0.2-0.5,0.3-0.8C-0.1,0.9,0,0.7,0.1,0.4S0.3,0,0.4-0.1c0.1-0.1,0.3-0.2,0.5-0.2
			c0.2,0,0.4,0.1,0.5,0.2C1.5,0,1.6,0.2,1.6,0.4c0,0.1,0,0.3-0.1,0.5S1.3,1.4,1.1,1.7L0.8,2.6c-0.1,0.3-0.3,0.6-0.4,1
			c-0.1,0.3-0.2,0.6-0.3,1S0,5.1,0,5.4c0,0.2,0.1,0.4,0.4,0.4c0.2,0,0.4-0.1,0.7-0.2S1.6,5.3,1.8,5C1.9,5,2,4.9,2.1,4.9
			c0.1-0.3,0.2-0.7,0.3-0.9L3,2.3l0.6-1.5l2.6-6.7c0.1-0.3,0.2-0.5,0.4-0.6S7-6.5,7.1-6.5c0.2,0,0.4,0.1,0.5,0.2
			C7.8-6.2,7.8-6,7.8-5.8c0,0.1,0,0.3-0.1,0.4c0,0.1-0.1,0.3-0.2,0.4L7.1-3.8L6.4-2.2L5.7-0.5L5,1.2L4.4,2.8L3.9,4.2
			C3.8,4.3,3.7,4.5,3.7,4.7S3.6,5.1,3.6,5.3c0,0.1,0,0.2,0.1,0.2s0.1,0.1,0.2,0.1c0.1,0,0.3,0,0.5-0.1s0.4-0.2,0.6-0.3
			C5.1,5,5.3,4.8,5.5,4.7C5.8,4.5,6,4.3,6.2,4.1c0.2-0.2,0.4-0.4,0.6-0.6C7.1,3.3,7.2,3.2,7.4,3c0,0,0.1-0.1,0.1-0.1
			C7.7,2.6,7.7,2.3,7.8,2L8,1.5C8.1,1.3,8.2,1,8.3,0.8c0.1-0.2,0.2-0.4,0.4-0.6C8.8,0.1,8.9,0,9.1,0c0.2,0,0.4,0.1,0.5,0.2
			s0.2,0.3,0.2,0.5c0,0.1,0,0.1,0,0.2c0,0.1,0,0.2,0,0.3c0,0.1,0,0.2-0.1,0.3c0,0.1,0,0.1-0.1,0.2c0.2-0.2,0.4-0.5,0.7-0.7
			s0.5-0.4,0.8-0.6c0.3-0.2,0.5-0.3,0.8-0.5c0.3-0.1,0.5-0.2,0.8-0.2c0.2,0,0.4,0,0.6,0.1c0.2,0.1,0.4,0.1,0.5,0.2
			c0.1,0.1,0.3,0.2,0.4,0.4c0.1,0.2,0.1,0.3,0.1,0.6c0,0.3-0.1,0.6-0.2,0.9s-0.3,0.6-0.5,1s-0.4,0.6-0.7,0.9l-0.7,0.8l-0.5,0.6
			c-0.1,0.2-0.2,0.3-0.2,0.4c0,0.1,0,0.2,0.1,0.2s0.1,0.1,0.3,0.1c0.1,0,0.2-0.1,0.4-0.2s0.5-0.3,0.8-0.6c0.4-0.4,0.9-0.7,1.3-1.1
			l1.3-1.1l2.3-21.4c-0.4,0.2-0.8,0.3-1,0.4C15.8-17.7,14.5-17.5,12.8-17.2L12.8-17.2z M0-22.3c-9.9,0-18,1.1-18,2.5s8.1,2.5,18,2.5
			s18-1.1,18-2.5S9.9-22.3,0-22.3z M7.2-19.1c0,0.3-1,0.6-2.1,0.6s-2.1-0.3-2.1-0.6s1-0.6,2.1-0.6S7.2-19.4,7.2-19.1z"/>
		<path class="st0" d="M3.3-19.3C3.3-19.3,3.3-19.3,3.3-19.3c0,0.3,0.8,0.4,1.7,0.4s1.7-0.2,1.7-0.4L9-28.4l8.9-9.5
			c0.2-0.2-0.2-0.9-0.8-1.5s-1.3-0.8-1.5-0.5L6-29.8L3.3-19.3L3.3-19.3z"/>
	</g>
</symbol>
<use xlink:href="#A"  width="36" height="80" x="-18" y="-40" transform="matrix(1 0 0 1 17.9981 39.9998)" style="overflow:visible;"/>
</svg>
