<svg xmlns="http://www.w3.org/2000/svg" xmlns:xlink="http://www.w3.org/1999/xlink" viewBox="0 0 49 66" fill="#fff" fill-rule="evenodd" stroke="#000" stroke-linecap="round" stroke-linejoin="round"><style><![CDATA[.B{fill:#193051}.C{fill:#2797cf}.D{fill:#31509e}.E{fill:#223c82}.F{fill:#1f72b3}.G{fill:#f29100}]]></style><use xlink:href="#A" x=".5" y=".5"/><symbol id="A" overflow="visible"><g stroke="none"><path d="M39.829 31.665c-2.316-1.243-6.722-3.729-6.666-6.723 0-.565.169-1.073.452-1.582l.056-.113.113-.113a3.2 3.2 0 0 1 1.299-.678c1.808-.508 3.672.395 5.141 1.412 2.09 1.469 4.067 3.559 5.762 5.48.395.452.96.96 1.073 1.525.113.621-.282 1.243-.508 1.808-1.243 2.486-3.107 4.745-5.197 6.722l.056.226c.565 1.921.395 3.616-1.017 5.141l-.169.169-.226.056c-1.073.339-2.147.113-3.22-.056l-.226-.056-.169-.226c-1.751-1.808-2.655-3.729-1.073-6.045l1.638-2.655 2.655-4.067.226-.226" class="B"/><path d="M40.394 31.043c-4.632-2.486-7.457-4.915-6.101-7.231 2.486-2.034 6.383.791 11.072 6.101 1.073 1.243 1.186.96.452 2.429-1.638 3.39-4.802 6.666-8.474 9.321.452-.226.96-.452 1.412-.678.621.96.847 1.864.339 2.542.791-.621.96-1.299.395-2.655l1.186-1.017c.452 1.582.395 2.994-.847 4.35-.96.282-2.203 0-2.825-.113-1.525-1.525-2.316-3.051-1.017-5.028 2.316-3.446 4.689-8.417 6.835-8.587-.904-.395-1.864-.169-2.429.565" class="D"/><path d="M39.998 39.517l-2.655 2.09 1.412-.678c.621.96.847 1.864.339 2.542.791-.621.96-1.299.395-2.655l.508-.452c.282 1.017.395 2.034.339 3.107l-.508.678c-.96.283-2.203 0-2.825-.113-1.525-1.525-2.316-3.05-1.017-5.028 1.695-2.542 3.446-5.875 5.084-7.57-.056 2.825-.508 5.48-1.073 8.078m.395-8.474c-2.881-1.525-5.028-3.05-5.932-4.519v-2.825c1.356-1.017 3.107-.621 5.141.734.452 1.808.904 4.632.904 6.497-.056 0-.113.056-.113.113z" class="E"/><path d="M37.174 56.633l1.469 1.073c.847.847 1.13 1.864 1.073 2.994v.452l-.395.226c-.96.565-2.09.734-3.164.734-.96 0-1.921-.169-2.825-.395-.565-.113-1.412-.395-1.864-.734-.452-.395-.847-.847-1.017-1.412-.339-.847-.226-1.864-.169-2.768.056-1.299.056-2.429-.169-3.672l-.056-.395.282-.282 4.915-4.745 1.243-1.243v1.751c0 2.655-.395 5.932.678 8.417" class="B"/><path d="M35.762 48.217l-4.915 4.745c.791 4.124-.734 5.932 1.073 7.4.678.508 4.745 1.695 7.005.339.056-2.147-1.13-2.768-2.373-3.559-1.243-2.712-.791-6.214-.791-8.926" class="D"/><path d="M35.762 48.217l-4.915 4.745a11.31 11.31 0 0 1 .226 2.26 12.91 12.91 0 0 0 4.632-2.373l.056-4.632" class="E"/><path d="M31.185 52.623l-.395.339c.791 4.124-.734 5.932 1.073 7.4.678.508 4.745 1.695 7.005.339v-.113c-2.09.508-6.609.169-6.666-1.921l-.056-6.045z" class="C"/><path d="M36.834 61.719l-.96-.169c.169-1.017-.169-2.034-1.356-2.881 1.525.678 2.09 1.808 2.316 3.05m1.921-.339l-.96-.169c.169-1.017-.169-2.034-1.356-2.881 1.525.621 2.09 1.751 2.316 3.05" class="B"/><path d="M31.072 55.052v.169m.113-2.599l-.282.282c0 .056 0 .113.056.169 0 .056 0 .113.056.169v.508c0 .113 0 .226.056.339v1.017l1.186-.395-.056-2.203z" class="D"/><path d="M14.577 38.331c0-.621.113-1.525.791-1.751.904-.339 1.751.847 2.203 1.525.339.508.678 1.073.904 1.638.283.565.791 1.243.396 1.864-.339.565-1.073.395-1.638.339-.791-.113-1.638-.339-2.316-.734-.452-.226-.96-.508-1.017-1.073-.056-.452.226-.678.395-.96.17-.339.282-.565.282-.847" class="B"/><path d="M15.368 38.33c0 .395-.113.734-.339 1.13-.339.565-.565.508.339.96.565.282 1.243.508 2.09.678 1.243.226.96.056.395-1.073-.282-.565-.565-1.073-.847-1.469-1.243-1.751-1.638-1.582-1.638-.226" class="F"/><path d="M15.368 38.33c0 .395-.113.734-.339 1.13-.339.565-.565.508.339.96.169.113.396.169.565.282-.056-1.186.113-2.373-.395-3.333-.113.169-.169.508-.169.96" class="C"/><path d="M9.323 37.427c.056-.056.056-.113.113-.226.226-.678 0-1.751.791-2.09.452-.169.904.056 1.186.395.283.282.565.678.791 1.017.339.452.621.96.904 1.469.226.452.678.96.395 1.525s-.904.508-1.412.452c-.395-.056-.791-.113-1.186-.282-.621-.226-1.356-.395-1.638-1.017-.226-.395-.17-.847.056-1.243" class="B"/><path d="M10.001 37.766c-.452.847.226.96 1.13 1.243.339.113.678.169 1.017.226.96.113.734-.056.283-.847l-.847-1.412c-1.751-2.429-.904-.395-1.582.791" class="F"/><path d="M10.002 37.766c-.395.678.056.904.734 1.13.169-1.017.113-2.034-.226-3.05-.282.056-.056 1.13-.508 1.921" class="C"/><path d="M4.522 36.919v-.113c-.057-.621-.452-1.412.169-1.921.395-.339.904-.226 1.299 0s.847.565 1.186.847c.283.226.565.452.791.734.395.452.96.96.791 1.638-.17.621-.791.847-1.356.904-.452.056-.96.056-1.412 0s-.96 0-1.299-.395c-.282-.339-.226-.734-.169-1.13v-.565" class="B"/><path d="M5.313 36.862v.621c-.057.734-.17.621.791.678.452.056.847.056 1.243 0 1.186-.169.734-.565.113-1.243l-.678-.621c-2.373-1.808-1.525-.565-1.469.565" class="F"/><path d="M5.313 36.862v.622c-.056.734-.17.621.791.678h.226c-.226-1.186-.508-1.977-1.073-2.825-.282.169.056.847.056 1.525" class="C"/><path d="M17.741 15.282c-.169-.283-.395-.509-.678-.678-.339-.282-.678-.452-1.073-.678-.452-.226-.904-.452-1.073-1.017-.113-.508.113-.96.452-1.299.396-.395.904-.791 1.356-1.13 1.186-.847 2.599-1.638 3.898-2.316l1.695-.904-.565 1.808-2.203 6.779-.452 1.356-.339 4.18.056.339 1.243 5.649.621 2.938-1.977-2.26c-.621-.734-1.469-1.13-2.429-1.299l-1.243-.169c-.452-.056-.96-.169-1.186-.621-.283-.508-.056-1.017.169-1.469.339-.508.791-1.073 1.186-1.525.452-.565 1.017-.96 1.638-1.356-.169-.17-.452-.283-.678-.339-.734-.226-1.864-.282-2.316-1.073-.452-.847.226-1.808.791-2.429.974-.903 2.012-1.734 3.107-2.486" class="B"/><path d="M6.555 37.597c1.977-.395 4.18-.056 6.723 1.412 4.971 2.486 8.078 1.582 8.7-1.695.678-3.446-1.299-5.536-2.486-8.643-2.034-5.197-3.389-12.485 1.186-18.416 6.101 6.496 17.343 6.553 18.303 19.772.339 1.695 1.638 14.405-4.858 21.297-3.954 4.18-10.112 5.875-15.027 2.26-2.994-2.203-5.367-5.762-8.078-8.474-2.429-2.429-4.519-4.067-7.965-3.615-.565.056-1.073 0-1.073-.508-.113-1.921 2.994-3.107 4.576-3.389" fill="#192e4e"/><path d="M21.243 10.933c2.655 2.542 5.988 4.124 9.039 6.045 2.09 1.299 3.954 2.825 5.48 4.802 1.808 2.429 2.768 5.254 3.163 8.248.169 1.017.226 2.034.226 3.05a46.26 46.26 0 0 1-.169 5.593c-.452 4.463-1.808 9.208-4.971 12.541-3.954 4.18-10.112 5.875-15.027 2.26-1.921-1.412-3.502-3.22-5.028-5.028-1.017-1.186-1.977-2.373-3.107-3.446-1.243-1.243-2.655-2.599-4.35-3.276-1.921-.734-2.938-.565-4.632.508-.452.282-1.13.791-1.695.282-.169-.113-.226-.395-.113-.678.282-.791.678-1.582 1.243-2.203 2.881-3.333 8.643-2.599 12.146-.734 1.299.678 2.768 1.525 4.293 1.582 1.073.056 2.147-.113 2.994-.847.678-.565 1.073-1.412 1.243-2.316.226-1.299.169-2.486-.282-3.672-.565-1.695-1.582-3.276-2.26-4.915-2.26-5.762-2.994-12.259.621-17.625l.508-.734z" class="B"/><path d="M20.735 11.497c-3.446 5.141-2.712 11.411-.565 16.947.678 1.695 1.695 3.277 2.26 4.971.452 1.356.565 2.655.282 4.067-.226 1.073-.678 2.034-1.469 2.712-1.017.847-2.26 1.13-3.559 1.017-1.638-.113-3.164-.904-4.576-1.695-3.164-1.695-8.587-2.486-11.242.565-.452.508-.847 1.13-1.073 1.921-.056.17.226 0 .734-.339 1.864-1.186 3.164-1.412 5.31-.565 1.695.678 3.107 1.921 4.632 3.446 1.073 1.13 2.09 2.316 3.107 3.502 1.469 1.695 3.051 3.559 4.858 4.915 4.576 3.39 10.338 1.751 14.01-2.147 3.05-3.22 4.293-7.852 4.745-12.146a45.01 45.01 0 0 0 .169-5.536c-.056-1.017-.113-2.034-.226-2.994-.396-2.881-1.299-5.593-3.051-7.909-1.412-1.921-3.276-3.333-5.254-4.632-3.107-1.977-6.384-3.502-9.095-6.101" class="D"/><path d="M20.847 11.61c-.056-.056-.113-.056-.113-.113m0 0c-3.446 5.141-2.712 11.411-.565 16.947.678 1.695 1.695 3.277 2.26 4.971.452 1.356.565 2.655.282 4.067-.226 1.073-.678 2.034-1.469 2.712-1.017.847-2.26 1.13-3.559 1.017-1.638-.113-3.163-.904-4.576-1.695-3.163-1.695-8.587-2.486-11.242.565a4.87 4.87 0 0 0-1.073 1.921c0 .057 0 .113.056.057 4.011-5.593 11.581-2.486 18.529 1.469 5.762 1.695 5.141-4.858 4.463-8.587-1.073-5.593-3.559-12.259-3.728-14.744-.169-2.316.339-4.802 2.034-7.513h-.113l-.113-.056-.113-.169-.169-.169-.17-.113-.226-.226-.113-.056-.226-.226c-.113-.056-.113-.113-.169-.169z" class="C"/><path d="M20.678 29.687c.621 1.243 1.299 2.429 1.695 3.728v.056c.847-2.655 1.412-5.31 1.695-7.965z" class="E"/><path d="M20.678 29.687l.056.056.113.169v.113l.113.113v.113l.056.113v.17l.056.056v.169l.056.056v.169l.056.056v.226l.057.056v.169l.056.056v.169l.056.056v.621l.056.056v.96c.226-.678.395-1.356.565-2.034l-.96-3.446z" class="D"/><path d="M3.957 40.647c3.164-.056 5.254 1.638 7.513 3.898l3.107 3.502c1.469 1.695 3.051 3.559 4.858 4.915 4.576 3.39 10.338 1.751 14.01-2.147 3.051-3.22 4.293-7.852 4.745-12.146a44.97 44.97 0 0 0 .169-5.536c-.056-1.017-.113-2.034-.226-2.994-.395-2.881-1.299-5.593-3.05-7.909-1.412-1.921-3.276-3.333-5.254-4.632a50.91 50.91 0 0 0-2.316-1.412c-1.073.339-1.977.847-2.599 1.638-1.751 2.203-.565 5.367.508 7.57 1.073 2.147 1.977 4.35 2.599 6.666.791 3.051 1.13 6.44.169 9.434a10.15 10.15 0 0 1-2.542 4.237c-.791.791-1.695 1.356-2.712 1.751-3.616 1.186-5.536-1.017-7.965-3.333-3.276-2.994-6.779-4.463-11.016-3.503" class="B"/><path d="M6.781 41.156c1.751.622 3.164 1.921 4.689 3.446l3.107 3.502c1.469 1.695 3.05 3.559 4.858 4.915 4.576 3.389 10.338 1.751 14.01-2.147 3.05-3.22 4.293-7.852 4.745-12.146a44.99 44.99 0 0 0 .169-5.536c-.056-1.017-.113-2.034-.226-2.994-.395-2.881-1.299-5.593-3.051-7.909-1.412-1.921-3.277-3.333-5.254-4.632-.452-.282-.96-.565-1.412-.847-3.276.734-5.028 2.881-2.316 8.361 3.276 6.27 5.819 15.535.169 21.184-.847.847-1.864 1.525-3.05 1.921-4.067 1.356-6.214-1.13-8.7-3.502-2.429-2.203-4.915-3.559-7.739-3.616" fill="#fc0"/><path d="M27.401 17.09c-2.542.96-3.672 3.22-1.243 8.022 3.22 6.327 5.762 15.592.113 21.241-.847.847-1.864 1.525-3.05 1.921-4.067 1.356-6.214-1.13-8.7-3.502-.395-.339-.791-.678-1.13-1.017 1.808 2.429 4.689 5.31 8.869 5.028 1.412-.113 2.768-.508 3.898-1.469 7.626-6.214 3.446-16.778.508-23.161-1.243-2.599-1.808-5.367.734-7.061" fill="#ffeb00"/><g class="G"><path d="M19.549 53.018a9 9 0 0 0 6.158 1.751c.056-.621 3.841-2.373 3.898-2.994-3.277 1.073-4.237-1.469-4.689-4.293-.508.339-1.073.621-1.695.791-1.412.452-2.599.452-3.616.169l-.113 1.13c-.056 1.13-.056 2.26.056 3.446"/><path d="M11.47 44.601l3.107 3.502c1.469 1.695 3.051 3.559 4.858 4.915 4.576 3.39 10.338 1.751 14.01-2.147 3.051-3.22 4.293-7.852 4.745-12.146a44.97 44.97 0 0 0 .169-5.536c-.056-1.017-.113-2.034-.226-2.994-.395-2.881-1.299-5.593-3.051-7.909-.847-1.186-1.864-2.147-2.994-2.994 1.186 2.26 1.921 4.632 2.486 6.835 1.017 1.921 1.469 3.898 1.243 6.045.508 2.599.621 5.423 0 7.852.056 3.107-1.243 5.593-2.599 7.852-1.073 2.26-3.502 4.237-5.536 4.802-4.915 1.921-10.507-2.26-12.202-4.858l-2.486-2.09c-.508-.395-1.017-.791-1.525-1.13"/></g><path d="M20.622 10.368l.452-1.469-3.785 2.26c-2.881 2.034-1.13 1.638.339 2.881.282.226.508.452.734.734a12.58 12.58 0 0 1 2.26-4.406m-2.881 11.807c-.734.395-1.356.847-1.864 1.412-2.316 2.655-1.299 2.147.621 2.486a4.86 4.86 0 0 1 2.373 1.073 26.66 26.66 0 0 1-1.13-4.971zm.226-6.101c-1.017.734-1.977 1.469-2.655 2.316-2.26 2.655 1.243 1.525 2.373 2.994-.169-1.695-.113-3.503.282-5.31z" class="D"/><path d="M17.797 22.57c-1.243.96-2.712 2.147-1.469 3.502-1.751-.282-2.599.113-.395-2.429.508-.565 1.13-1.017 1.864-1.412a.36.36 0 0 0 0 .339m2.034-12.993c-1.751 1.356-3.615 2.599-2.26 3.954.339.283.565.678.791 1.13l-.056.056c-.226-.282-.452-.508-.734-.734-1.469-1.243-3.22-.791-.339-2.881l2.599-1.525zm-1.864 6.496c-1.017.734-1.977 1.469-2.655 2.316-2.034 2.373.565 1.695 1.921 2.599l-.508-.508c-1.017-.96-1.412-.96-.904-1.695.565-.847 1.356-1.808 2.147-2.712z" class="C"/><g class="B"><path d="M26.836 26.637c1.921-1.017 4.632-1.243 6.722-1.073 1.525.169 3.05.565 4.35 1.299l.395.226-.452.791-.395-.226c-1.186-.678-2.655-1.073-4.011-1.186-1.921-.226-4.519 0-6.214.96l-.395.226-.395-.791zm2.034 6.44c1.864-1.073 4.519-1.356 6.61-1.186 1.139.056 2.262.285 3.333.678v.96c-1.073-.452-2.26-.678-3.389-.791-1.921-.169-4.406.113-6.101 1.073l-.395.226-.452-.791zm0 6.835c2.655-1.299 6.892-1.073 9.547.565.226.113.056.226.282.339l-.056.283-.282.226c-.056.056-.056.169-.17.113-2.316-1.638-6.496-1.921-8.982-.734l-.395.169-.113-.678zm-1.638 5.028c1.977 2.09 6.214 3.276 8.982 2.373l.339-.282v.565l-.339.339c-.169.056-.056.282-.226.339-3.05.734-7.287-.565-9.434-2.768l-.226-.282.621-.621zm-4.011 3.333c.565 1.299 1.638 2.429 2.825 3.163 1.243.847 2.825 1.412 4.35 1.299.565-.056.96-.169 1.469-.339l-.056.734-.282.339c-2.034.565-4.293-.113-5.988-1.299-1.299-.847-2.486-2.09-3.107-3.559l-.169-.395.791-.339zm-6.722-1.582c-.283.339-.452.791-.565 1.186-.113.904.056 1.525.508 2.26l-.791.169-.282-.282c-.621-1.243-.508-2.825.395-3.898l.282-.339.678.565z"/><path d="M14.013 43.866c-.452.565-.621 1.243-.565 1.921.056.565.226 1.017.508 1.525l-.734.113-.282-.226c-.621-1.243-.508-2.825.395-3.898l.282-.169.565.452zm4.067 13.332c.339-1.017.452-2.09.508-3.107.056-.904 0-1.808-.056-2.768 0-.847-.056-1.751.056-2.599.395-4.18 4.802-5.254 5.988-3.615 1.525 1.751 1.356 3.954.508 6.609-.169.452-.283.96-.395 1.469-.169.734-.282 1.525-.395 2.26l-.113 1.695c0 .678.056 1.356.226 2.034.113.565.169 1.073.056 1.638-.113.452-.339.791-.678 1.13-.96.904-2.712 1.638-4.011 1.921-.734.169-1.582.169-2.316.056-.226-.056-.509-.113-.678-.282-1.073-.678-1.356-2.147-1.13-3.333.282-1.412 1.186-2.542 2.429-3.107"/></g><path d="M20.057 45.788c.734-1.243 2.034-1.695 2.938-1.582 3.22.452 2.203 4.745 1.412 7.287-.621 1.977-.904 4.463-.904 5.649 0 2.486.847 3.22-.169 4.237-.904.847-3.446 2.034-5.649 1.751-1.808-.452-1.864-4.293 1.017-5.31.791-1.921.791-4.237.678-6.27-.056-1.469-.169-4.35.678-5.762" class="D"/><path d="M20.057 45.787c.678-1.073 1.356-1.13 2.429-1.299-3.39 1.695-1.638 8.643-2.542 13.05.734 0 1.243.056 1.864.282-2.712-.339-3.898 1.921-4.18 5.254-1.695-.565-1.751-4.293 1.073-5.31.791-1.921.791-4.237.678-6.271-.056-1.412-.17-4.293.678-5.706" class="C"/><path d="M19.096 63.3c.339-.056.621-.113.96-.226-.282-1.299-.056-2.599.96-3.672-1.412.791-1.864 2.203-1.921 3.898m-2.881-.226a5.91 5.91 0 0 0 .96-.226c-.282-1.356-.056-2.599.96-3.672-1.469.791-1.864 2.26-1.921 3.898m2.09-24.009c-2.429-1.638-4.632-3.559-6.214-5.819-.339-.508-.847-1.073-.847-1.695 0-.565.508-1.186.847-1.695 1.356-2.147 2.938-4.519 4.802-6.327 1.243-1.243 2.994-2.486 4.802-2.203.508.056.96.226 1.412.508l.113.056.113.113c.339.452.904 1.638.96 2.203.904 4.915-4.237 6.327-4.858 7.005 1.186 1.073 1.582 2.599 2.655 3.785l2.09 2.373c1.921 2.034 1.356 4.067-.113 6.158l-.169.226-.169.056c-1.017.339-2.09.734-3.163.621l-.226-.056-.17-.113c-1.638-1.299-2.09-2.938-1.864-4.915z" class="B"/><path d="M18.475 30.592c3.107-1.13 8.587-5.762 4.915-9.208-1.469-1.073-3.954 1.186-4.858 1.864-1.808 1.356-3.728 3.841-5.762 7.061-.847 1.412-1.017 1.13-.056 2.486 2.203 3.107 5.819 5.875 9.942 7.852-.508 0-1.073-.056-1.525-.226-.452 1.017-.508 1.751.113 2.373-.904-.508-1.186-1.13-.847-2.542l-1.299-.847c-.226 1.638.113 3.051 1.525 4.18 1.017.113 2.203-.339 2.825-.565 1.243-1.751 1.921-3.559.169-5.141-3.559-3.107-3.672-7.287-8.191-7.4.791-.508 2.147-.395 3.05.113" class="D"/><path d="M19.888 39.913l-.791-.508c-.226 1.582.113 2.994 1.469 4.067-.621-1.13-1.017-2.316-.678-3.559m2.147.734c-.282-.056-.621-.113-.904-.226-.282.678-.395 1.186-.282 1.638.282-.508.565-1.017 1.186-1.412zM20.34 21.892c-.791.508-1.469 1.073-1.808 1.356-1.808 1.356-3.728 3.841-5.762 7.061-.847 1.412-1.017 1.13-.056 2.486 2.09 2.938 5.423 5.536 9.265 7.513-2.881-2.429-5.649-4.858-7.344-7.118s-1.073-2.26.452-4.632c1.525-2.316 3.22-4.576 5.254-6.666z" class="C"/><g class="B"><path d="M37.738 19.462l1.582 3.107-4.689.847-5.48-1.977-.113-.113a19.76 19.76 0 0 1-5.141-6.101c-.339-.621-.791-1.638-.904-2.316l-.452-3.954 2.203 3.277c1.638 2.373 4.237 4.463 6.779 5.819 1.469.734 3.389 1.808 5.084 1.582.113 0 .226 0 .339-.056zm7.231-1.299c.226 1.186.113 1.977-.395 3.05-.113.226-.282.508-.452.678-.226.282-.508.452-.847.395-.621-.113-.791-.847-.791-1.412 0-.396-.113-.847-.339-1.13l-.452-.621.621-.395 2.486-1.525z"/><path d="M41.975 13.136c1.299-.508 2.768-.565 3.785.508 1.582 1.582.96 5.197-1.243 5.932-1.412.452-3.446.452-4.971.678.508.621 1.017.904 1.469 1.13 1.356.678 2.429 1.356 2.994 2.881.678 1.808-.169 3.728-2.768 4.18-2.26.395-2.203 1.299-4.802.339-2.542-.96-5.141-2.486-7.344-4.011-1.469-1.017-2.881-2.09-4.18-3.276-2.147-1.921-5.197-4.858-5.649-7.796-.226-1.299.113-2.599 1.073-3.559.282-.282.565-.508.904-.678l.169-.508c.508-1.525 1.13-3.954 2.034-5.819 2.203-4.463 5.706-3.785 7.57-.339 1.469.339 2.599.621 4.18 1.412l.056-.056c.508-.509 1.186-.96 1.921-.734 2.542.508 2.825 6.779 2.599 8.474l.056.056c.847.282 1.582.678 2.09 1.243z"/></g><path d="M36.326 17.938c-2.373-.509-2.373-4.35.508-4.237 1.751.057 3.954 1.582 5.988 1.017l-1.751-.226c1.525-1.017 3.22-1.243 4.124-.283 1.13 1.186.734 4.067-.96 4.632-1.017.339-2.599.452-3.615.452.565-.452 2.147-1.13 3.276-1.073-.96-.395-1.864-.226-2.712.113-4.293 1.695-4.632 2.542-9.603-.056-2.712-1.412-5.31-3.559-6.892-5.875.339-.226.791-.508 1.299-.113-.734-2.034-4.802-.056-3.277 2.712.113-.565.113-1.243.791-1.243 2.373 5.367 6.44 8.361 10.394 10.394 2.768 1.412 3.389 2.203 6.497 1.751a6.43 6.43 0 0 0 1.299-.282c1.695-.621.791-1.977-.113-3.107 2.203 1.469 2.768 4.519-.565 5.141-2.373.452-2.09 1.243-4.35.395-3.446-1.299-8.022-4.237-11.298-7.174-1.412-1.299-4.915-4.463-5.423-7.344-.452-2.655 1.921-4.35 4.406-3.672 1.582.452 2.938 1.864 3.841 3.728-.96-3.107-2.429-5.31-6.101-4.406.678-2.09 1.638-6.61 3.502-7.852 2.316-1.525 4.971 1.921 6.496 5.423-.169-.96-.339-2.147-.904-2.994 2.26.452 2.994.621 4.519 1.921-.056-.565-.056-.734-.113-.904 2.034-2.09 3.672 2.26 3.22 5.988-4.576-1.582-7.739-1.243-9.717.565 3.446-1.412 6.383-1.13 8.926.395-.71-.112-1.428-.169-2.147-.169 1.582.226 2.034.339 3.389.791.904.282 1.582.678 1.977 1.186-1.073.678-4.237-1.638-6.384-.339-2.26 1.412-1.13 4.915 1.469 4.745" class="D"/><path d="M24.237 8.955c-.621-.056-1.299-.056-2.147.169.678-2.09 1.638-6.61 3.503-7.852a3.01 3.01 0 0 1 1.13-.395c-1.243 1.921-2.429 5.197-2.486 8.078z" class="C"/><path d="M37.117 11.723c.734.169 1.243.282 2.203.621.904.283 1.582.678 1.977 1.186-.452.283-1.356 0-2.316-.282-.226-.508-.847-1.017-1.864-1.525m4.406 2.486c.282-.17.565-.282.847-.395.056.056.113.169.169.226-.226.17-.621.226-1.017.17zm-4.858-3.22a7.6 7.6 0 0 1 1.356.678c-.282-.056-.565-.113-.847-.113-.169-.169-.339-.395-.508-.565" class="E"/><path d="M34.575 17.146c-.056-.339-.169-.678-.226-.96-1.864.169-3.389-.621-4.971-1.356l2.316 1.808 2.655 1.299a4.16 4.16 0 0 0 .226-.791" fill="#192e4e"/><path d="M36.326 17.937c-2.373-.508-2.373-4.35.508-4.237.96 0 2.034.508 3.163.847.847.226 1.356.226 1.695.113-.226-.056-.452-.056-.622-.113 1.525-1.017 3.22-1.243 4.124-.282 1.13 1.186.734 4.067-.96 4.632-1.017.339-2.599.452-3.615.452.96-.791 1.582-1.017 2.147-1.299-.545-.002-1.085.113-1.582.339-4.293 1.695-4.632 2.542-9.603-.056-2.712-1.412-5.31-3.559-6.892-5.875.339-.226.791-.508 1.299-.113-.734-2.034-4.802-.056-3.277 2.712.113-.565.113-1.243.791-1.243 2.373 5.31 6.44 8.304 10.394 10.338 2.768 1.412 3.389 2.203 6.497 1.751a6.43 6.43 0 0 0 1.299-.282c1.695-.621.791-1.977-.113-3.107 2.203 1.469 2.768 4.519-.565 5.141-2.373.452-2.09 1.243-4.35.395-3.446-1.299-8.022-4.237-11.298-7.174-1.412-1.299-4.915-4.463-5.423-7.344-.452-2.655 1.921-4.35 4.406-3.672 1.582.452 2.938 1.864 3.841 3.728-.056-.113-.056-.169-.113-.282 1.638 2.147 3.672 3.389 6.101 3.785.452.508 1.186.904 2.147.847" fill="#fc0"/><path d="M43.162 24.265c.622 1.412.113 2.938-2.147 3.389-1.582.282-1.977.734-2.768.734 0-1.582 3.05-1.356 4.067-2.09.565-.452.791-1.186.847-2.034m.847-10.677c.452.056.847.226 1.186.565 1.13 1.186.734 4.067-.96 4.632-.056 0-.056 0-.113.056 1.299-1.469 1.13-3.954-.113-5.254" class="G"/><path d="M39.772 18.841c-3.051 1.299-3.841 1.695-8.248-.621-1.695-.904-3.39-2.09-4.802-3.446 4.802 3.898 9.152 5.197 13.05 4.067m-4.237-1.243c-1.525-1.073-1.186-4.011 1.299-3.954.169 0 .395 0 .565.056-1.695.508-2.373 1.808-1.864 3.898m.678 10.225c-3.39-1.412-7.739-4.18-10.846-6.949-1.412-1.299-4.915-4.463-5.423-7.344-.395-2.542 1.695-4.18 3.954-3.785-1.864.452-2.712 1.638-2.768 2.994-.282 5.197 9.717 12.428 15.083 15.083" fill="#ffeb00"/><path d="M42.936 19.915a2.34 2.34 0 0 1 .169.904c.056 1.243.565.847.904.057.226-.508.395-.96.395-1.412-.113.056-.282.113-.395.169-.339.113-.678.169-1.073.282"/><path d="M43.501 21.61c.169-.056.395-.339.565-.734.226-.508.395-.96.395-1.412-.113.056-.226.113-.395.169 0 .621-.169 1.299-.565 1.977" class="C"/><path d="M36.891 15.395c.678-.226 1.186.678.282 1.073-.113.339.056.678.621.791-1.638.339-1.751-1.582-.904-1.864m7.513-.282c-.565-.17-.96.565-.226.904.113.282-.056.565-.508.678 1.356.226 1.412-1.356.734-1.582" class="B"/><path d="M26.723 17.655c1.646.25 3.246.745 4.745 1.469l1.186.565c1.356.734 2.542 1.582 3.615 2.429-.339-.565-.734-1.073-1.243-1.582.565.113 1.186.169 1.751.113 1.412-.169 2.203.113 3.22 1.412.791.791 2.599 2.429 1.412 2.825-.387.127-.784.222-1.186.283-.96.113-1.921.169-2.881-.113a9.2 9.2 0 0 1-1.299-.621l-1.808-.96c-2.994-1.525-5.536-3.39-7.513-5.819" fill="#e95014"/><path d="M29.604 19.011c1.921.395 3.728 1.299 5.423 2.655.565.452.395 1.017-.339.395-1.638-1.299-3.333-2.486-5.084-3.05" class="G"/><path d="M36.552 20.141c.056 0 .113 0 .169-.056.226-.057.395-.113.621-.226.395-.169.791-.056 1.186-.056l.621.056-.056.678c-.056.452-.282.96-.508 1.356-.339.565-1.073 1.695-1.808 1.356-.565-.226-.565-.96-.452-1.469.056-.339 0-.565-.056-.904l-.169-.621z" class="B"/><path d="M36.778 20.762c.113.395.169.678.113 1.13-.282 1.977 1.469-.226 1.582-1.412-.339 0-.678-.113-.904 0s-.395.169-.621.226c-.113 0-.169.056-.169.056"/><path d="M37.456 22.4c.452-.452.904-1.356 1.017-1.921-.226 0-.395-.056-.565-.056 0 .678-.056 1.299-.452 1.977" class="C"/><path d="M24.52 9.859c1.073-1.412 1.469-3.446 1.864-5.48-.169-.226-.847-.395-.621-.734 1.017 0 1.695.508 2.316 1.186 1.073 1.13 1.977 3.22 2.542 4.802.339.847.169.621-1.808.339-1.356-.113-2.824-.113-4.293-.113" class="B"/><path d="M25.593 9.238c1.13 0 2.203.056 3.333.226l1.017.169c-.565-1.412-1.356-3.276-2.316-4.35-.226-.226-.452-.452-.734-.621-.226 1.525-.565 3.164-1.299 4.576"/><path d="M27.57 6.244c.565 0 1.017.621 1.017 1.412s-.452 1.412-1.017 1.412-1.017-.621-1.017-1.412.452-1.412 1.017-1.412m9.66-.17c-1.186 1.017-1.864 2.147-2.26 3.728-.113.621.395.904.96.734.508.17.96.396 1.525.339.452 0 .904-.226.96-.678-.113-1.017-.452-2.599-.339-3.672.226-.395-.226-1.13-.847-.452" class="B"/><path d="M37.795 10.198c-.113-1.073-.452-2.373-.339-3.446-.904.96-1.582 1.864-1.864 3.22v.056h.226l.169-.056.169.056c.395.113.847.339 1.299.339 0-.056.283-.113.339-.169"/><path d="M38.191 11.102l.621-.339c-1.638-.734-3.446-.96-5.31-1.017a8.69 8.69 0 0 0 1.073.452l3.615.904M36.44 7.656c.452 0 .791.508.791 1.073 0 .621-.339 1.073-.791 1.073s-.791-.508-.791-1.073c-.056-.621.339-1.073.791-1.073" class="B"/></g></symbol></svg>