<?xml version="1.0" encoding="utf-8"?>
<!-- Generator: Adobe Illustrator 25.2.1, SVG Export Plug-In . SVG Version: 6.00 Build 0)  -->
<svg version="1.1" id="Layer_1" xmlns="http://www.w3.org/2000/svg" xmlns:xlink="http://www.w3.org/1999/xlink" x="0px" y="0px"
	 viewBox="0 0 47.1 64" style="enable-background:new 0 0 47.1 64;" xml:space="preserve">
<style type="text/css">
	.st0{fill-rule:evenodd;clip-rule:evenodd;fill:#193051;}
	.st1{fill-rule:evenodd;clip-rule:evenodd;fill:#31509E;}
	.st2{fill-rule:evenodd;clip-rule:evenodd;fill:#223C82;}
	.st3{fill-rule:evenodd;clip-rule:evenodd;fill:#2797CF;}
	.st4{fill-rule:evenodd;clip-rule:evenodd;fill:#1F72B3;}
	.st5{fill-rule:evenodd;clip-rule:evenodd;fill:#192E4E;}
	.st6{fill-rule:evenodd;clip-rule:evenodd;fill:#FFCC00;}
	.st7{fill-rule:evenodd;clip-rule:evenodd;fill:#FFEB00;}
	.st8{fill-rule:evenodd;clip-rule:evenodd;fill:#F29100;}
	.st9{fill-rule:evenodd;clip-rule:evenodd;fill:#FFFFFF;}
	.st10{fill-rule:evenodd;clip-rule:evenodd;fill:#E95014;}
</style>
<symbol  id="A" viewBox="-23.5 -32 47.1 64">
	<g>
		<path class="st0" d="M16.3-0.3C14-1.6,9.6-4.1,9.6-7.1c0-0.6,0.2-1.1,0.5-1.6l0.1-0.1l0.1-0.1c0.4-0.3,0.8-0.6,1.3-0.7
			c1.8-0.5,3.7,0.4,5.1,1.4c2.1,1.5,4.1,3.6,5.8,5.5c0.4,0.5,1,1,1.1,1.5c0.1,0.6-0.3,1.2-0.5,1.8c-1.2,2.5-3.1,4.7-5.2,6.7l0.1,0.2
			c0.6,1.9,0.4,3.6-1,5.1l-0.2,0.2L16.5,13c-1.1,0.3-2.1,0.1-3.2-0.1L13,12.9l-0.2-0.2c-1.8-1.8-2.7-3.7-1.1-6L13.4,4l2.7-4.1
			L16.3-0.3"/>
		<path class="st1" d="M16.9-1c-4.6-2.5-7.5-4.9-6.1-7.2c2.5-2,6.4,0.8,11.1,6.1c1.1,1.2,1.2,1,0.5,2.4c-1.6,3.4-4.8,6.7-8.5,9.3
			c0.5-0.2,1-0.5,1.4-0.7c0.6,1,0.8,1.9,0.3,2.5c0.8-0.6,1-1.3,0.4-2.7l1.2-1c0.5,1.6,0.4,3-0.8,4.3c-1,0.3-2.2,0-2.8-0.1
			c-1.5-1.5-2.3-3.1-1-5c2.3-3.4,4.7-8.4,6.8-8.6C18.4-1.9,17.4-1.7,16.9-1"/>
		<path class="st2" d="M16.5,7.5l-2.7,2.1l1.4-0.7c0.6,1,0.8,1.9,0.3,2.5c0.8-0.6,1-1.3,0.4-2.7l0.5-0.5c0.3,1,0.4,2,0.3,3.1
			l-0.5,0.7c-1,0.3-2.2,0-2.8-0.1c-1.5-1.5-2.3-3-1-5c1.7-2.5,3.4-5.9,5.1-7.6C17.5,2.3,17,4.9,16.5,7.5 M16.9-1
			c-2.9-1.5-5-3-5.9-4.5v-2.8c1.4-1,3.1-0.6,5.1,0.7C16.5-5.8,17-2.9,17-1.1C16.9-1.1,16.9-1,16.9-1z"/>
		<path class="st0" d="M13.6,24.6l1.5,1.1c0.8,0.8,1.1,1.9,1.1,3v0.5l-0.4,0.2c-1,0.6-2.1,0.7-3.2,0.7c-1,0-1.9-0.2-2.8-0.4
			c-0.6-0.1-1.4-0.4-1.9-0.7c-0.5-0.4-0.8-0.8-1-1.4c-0.3-0.8-0.2-1.9-0.2-2.8c0.1-1.3,0.1-2.4-0.2-3.7l-0.1-0.4l0.3-0.3l4.9-4.7
			l1.2-1.2v1.8C13,18.9,12.6,22.1,13.6,24.6"/>
		<path class="st1" d="M12.2,16.2L7.3,21c0.8,4.1-0.7,5.9,1.1,7.4c0.7,0.5,4.7,1.7,7,0.3c0.1-2.1-1.1-2.8-2.4-3.6
			C11.8,22.4,12.2,18.9,12.2,16.2"/>
		<path class="st2" d="M12.2,16.2L7.3,21c0.2,0.7,0.2,1.5,0.2,2.3c1.7-0.5,3.3-1.3,4.6-2.4L12.2,16.2"/>
		<path class="st3" d="M7.6,20.6L7.3,21c0.8,4.1-0.7,5.9,1.1,7.4c0.7,0.5,4.7,1.7,7,0.3v-0.1c-2.1,0.5-6.6,0.2-6.7-1.9l-0.1-6
			L7.6,20.6z"/>
		<path class="st0" d="M13.3,29.7l-1-0.2c0.2-1-0.2-2-1.4-2.9C12.5,27.3,13.1,28.5,13.3,29.7 M15.2,29.4l-1-0.2c0.2-1-0.2-2-1.4-2.9
			C14.4,27,15,28.1,15.2,29.4"/>
		<path class="st1" d="M7.5,23.1v0.2 M7.6,20.6l-0.3,0.3c0,0.1,0,0.1,0.1,0.2c0,0.1,0,0.1,0.1,0.2v0.5c0,0.1,0,0.2,0.1,0.3v1
			l1.2-0.4l-0.1-2.2L7.6,20.6z"/>
		<path class="st0" d="M-9,6.3c0-0.6,0.1-1.5,0.8-1.8C-7.3,4.2-6.4,5.4-6,6.1c0.3,0.5,0.7,1.1,0.9,1.6C-4.8,8.3-4.3,9-4.7,9.6
			C-5,10.2-5.7,10-6.3,9.9c-0.8-0.1-1.6-0.3-2.3-0.7c-0.5-0.2-1-0.5-1-1.1c-0.1-0.5,0.2-0.7,0.4-1C-9.1,6.8-9,6.6-9,6.3"/>
		<path class="st4" d="M-8.2,6.3c0,0.4-0.1,0.7-0.3,1.1C-8.8,8-9.1,8-8.2,8.4c0.6,0.3,1.2,0.5,2.1,0.7c1.2,0.2,1,0.1,0.4-1.1
			C-6,7.5-6.3,7-6.5,6.6C-7.8,4.8-8.2,5-8.2,6.3"/>
		<path class="st3" d="M-8.2,6.3c0,0.4-0.1,0.7-0.3,1.1C-8.8,8-9.1,8-8.2,8.4C-8,8.5-7.8,8.6-7.6,8.7C-7.7,7.5-7.5,6.3-8,5.4
			C-8.1,5.5-8.2,5.9-8.2,6.3"/>
		<path class="st0" d="M-14.2,5.4c0.1-0.1,0.1-0.1,0.1-0.2c0.2-0.7,0-1.8,0.8-2.1c0.5-0.2,0.9,0.1,1.2,0.4c0.3,0.3,0.6,0.7,0.8,1
			c0.3,0.5,0.6,1,0.9,1.5c0.2,0.5,0.7,1,0.4,1.5S-10.9,8-11.4,8c-0.4-0.1-0.8-0.1-1.2-0.3c-0.6-0.2-1.4-0.4-1.6-1
			C-14.5,6.3-14.4,5.8-14.2,5.4"/>
		<path class="st4" d="M-13.5,5.8c-0.5,0.8,0.2,1,1.1,1.2c0.3,0.1,0.7,0.2,1,0.2c1,0.1,0.7-0.1,0.3-0.8L-12,5
			C-13.7,2.5-12.9,4.6-13.5,5.8"/>
		<path class="st3" d="M-13.5,5.8c-0.4,0.7,0.1,0.9,0.7,1.1c0.2-1,0.1-2-0.2-3C-13.3,3.9-13.1,5-13.5,5.8"/>
		<path class="st0" d="M-19,4.9V4.8c-0.1-0.6-0.5-1.4,0.2-1.9c0.4-0.3,0.9-0.2,1.3,0c0.4,0.2,0.8,0.6,1.2,0.8
			c0.3,0.2,0.6,0.5,0.8,0.7c0.4,0.5,1,1,0.8,1.6C-15,6.7-15.6,7-16.1,7c-0.5,0.1-1,0.1-1.4,0s-1,0-1.3-0.4c-0.3-0.3-0.2-0.7-0.2-1.1
			V4.9"/>
		<path class="st4" d="M-18.2,4.9v0.6c-0.1,0.7-0.2,0.6,0.8,0.7c0.5,0.1,0.8,0.1,1.2,0c1.2-0.2,0.7-0.6,0.1-1.2l-0.7-0.6
			C-19.1,2.5-18.3,3.7-18.2,4.9"/>
		<path class="st3" d="M-18.2,4.9v0.6c-0.1,0.7-0.2,0.6,0.8,0.7h0.2c-0.2-1.2-0.5-2-1.1-2.8C-18.6,3.5-18.2,4.2-18.2,4.9"/>
		<path class="st0" d="M-5.8-16.7C-6-17-6.2-17.2-6.5-17.4c-0.3-0.3-0.7-0.5-1.1-0.7c-0.5-0.2-0.9-0.5-1.1-1c-0.1-0.5,0.1-1,0.5-1.3
			c0.4-0.4,0.9-0.8,1.4-1.1c1.2-0.8,2.6-1.6,3.9-2.3l1.7-0.9l-0.6,1.8L-4-16.2l-0.5,1.4l-0.3,4.2l0.1,0.3l1.2,5.6l0.6,2.9l-2-2.3
			c-0.6-0.7-1.5-1.1-2.4-1.3l-1.2-0.2C-9-5.5-9.5-5.6-9.7-6c-0.3-0.5-0.1-1,0.2-1.5C-9.2-8-8.7-8.6-8.3-9c0.5-0.6,1-1,1.6-1.4
			c-0.2-0.2-0.5-0.3-0.7-0.3C-8.1-11-9.2-11-9.7-11.8c-0.5-0.8,0.2-1.8,0.8-2.4C-7.9-15.1-6.9-16-5.8-16.7"/>
		<path class="st5" d="M-17,5.6c2-0.4,4.2-0.1,6.7,1.4c5,2.5,8.1,1.6,8.7-1.7C-0.9,1.9-2.9-0.2-4-3.3c-2-5.2-3.4-12.5,1.2-18.4
			C3.2-15.2,14.5-15.2,15.4-2c0.3,1.7,1.6,14.4-4.9,21.3c-4,4.2-10.1,5.9-15,2.3c-3-2.2-5.4-5.8-8.1-8.5c-2.4-2.4-4.5-4.1-8-3.6
			c-0.6,0.1-1.1,0-1.1-0.5C-21.7,7.1-18.6,5.9-17,5.6"/>
		<path class="st0" d="M-2.3-21.1c2.7,2.5,6,4.1,9,6c2.1,1.3,4,2.8,5.5,4.8C14-7.8,15-5,15.4-2c0.2,1,0.2,2,0.2,3
			c0.1,1.9,0,3.7-0.2,5.6c-0.5,4.5-1.8,9.2-5,12.5c-4,4.2-10.1,5.9-15,2.3c-1.9-1.4-3.5-3.2-5-5c-1-1.2-2-2.4-3.1-3.4
			c-1.2-1.2-2.7-2.6-4.3-3.3C-19,9-20,9.2-21.7,10.2c-0.5,0.3-1.1,0.8-1.7,0.3c-0.2-0.1-0.2-0.4-0.1-0.7c0.3-0.8,0.7-1.6,1.2-2.2
			c2.9-3.3,8.6-2.6,12.1-0.7c1.3,0.7,2.8,1.5,4.3,1.6c1.1,0.1,2.1-0.1,3-0.8c0.7-0.6,1.1-1.4,1.2-2.3C-1.3,4-1.4,2.8-1.8,1.6
			c-0.6-1.7-1.6-3.3-2.3-4.9c-2.3-5.8-3-12.3,0.6-17.6l0.5-0.7L-2.3-21.1z"/>
		<path class="st1" d="M-2.8-20.5C-6.3-15.4-5.5-9.1-3.4-3.6c0.7,1.7,1.7,3.3,2.3,5c0.5,1.4,0.6,2.7,0.3,4.1c-0.2,1.1-0.7,2-1.5,2.7
			c-1,0.8-2.3,1.1-3.6,1C-7.5,9.1-9,8.3-10.4,7.5C-13.6,5.8-19,5-21.7,8.1c-0.5,0.5-0.8,1.1-1.1,1.9c-0.1,0.2,0.2,0,0.7-0.3
			c1.9-1.2,3.2-1.4,5.3-0.6c1.7,0.7,3.1,1.9,4.6,3.4C-11,13.7-10,14.9-9,16c1.5,1.7,3.1,3.6,4.9,4.9c4.6,3.4,10.3,1.8,14-2.1
			c3-3.2,4.3-7.9,4.7-12.1c0.2-1.8,0.2-3.7,0.2-5.5c-0.1-1-0.1-2-0.2-3c-0.4-2.9-1.3-5.6-3.1-7.9c-1.4-1.9-3.3-3.3-5.3-4.6
			C3.2-16.4-0.1-17.9-2.8-20.5"/>
		<path class="st3" d="M-2.7-20.4c-0.1-0.1-0.1-0.1-0.1-0.1 M-2.8-20.5C-6.3-15.4-5.5-9.1-3.4-3.6c0.7,1.7,1.7,3.3,2.3,5
			c0.5,1.4,0.6,2.7,0.3,4.1c-0.2,1.1-0.7,2-1.5,2.7c-1,0.8-2.3,1.1-3.6,1C-7.5,9.1-9,8.3-10.4,7.5C-13.6,5.8-19,5-21.7,8.1
			c-0.5,0.6-0.9,1.2-1.1,1.9c0,0.1,0,0.1,0.1,0.1c4-5.6,11.6-2.5,18.5,1.5C1.6,13.2,1,6.7,0.3,2.9C-0.8-2.7-3.3-9.3-3.4-11.8
			c-0.2-2.3,0.3-4.8,2-7.5h-0.1l-0.1-0.1l-0.1-0.2l-0.2-0.2l-0.2-0.1L-2.3-20l-0.1-0.1l-0.2-0.2C-2.7-20.4-2.7-20.4-2.8-20.5
			L-2.8-20.5z"/>
		<path class="st2" d="M-2.9-2.3c0.6,1.2,1.3,2.4,1.7,3.7v0.1c0.8-2.7,1.4-5.3,1.7-8L-2.9-2.3z"/>
		<path class="st1" d="M-2.9-2.3L-2.9-2.3l0.2,0.2V-2l0.1,0.1v0.1l0.1,0.1v0.2l0.1,0.1v0.2l0.1,0.1V-1L-2.4-1v0.2l0.1,0.1v0.2
			l0.1,0.1v0.2l0.1,0.1v0.6l0.1,0.1v1c0.2-0.7,0.4-1.4,0.6-2l-1-3.4L-2.9-2.3z"/>
		<path class="st0" d="M-19.6,8.6c3.2-0.1,5.3,1.6,7.5,3.9L-9,16c1.5,1.7,3.1,3.6,4.9,4.9c4.6,3.4,10.3,1.8,14-2.1
			c3.1-3.2,4.3-7.9,4.7-12.1c0.2-1.8,0.2-3.7,0.2-5.5c-0.1-1-0.1-2-0.2-3c-0.4-2.9-1.3-5.6-3-7.9c-1.4-1.9-3.3-3.3-5.3-4.6
			c-0.8-0.5-1.5-1-2.3-1.4c-1.1,0.3-2,0.8-2.6,1.6C-0.4-12,0.8-8.8,1.9-6.6c1.1,2.1,2,4.4,2.6,6.7c0.8,3.1,1.1,6.4,0.2,9.4
			c-0.5,1.6-1.4,3.1-2.5,4.2c-0.8,0.8-1.7,1.4-2.7,1.8c-3.6,1.2-5.5-1-8-3.3C-11.8,9.2-15.3,7.7-19.6,8.6"/>
		<path class="st6" d="M-16.8,9.2c1.8,0.6,3.2,1.9,4.7,3.4l3.1,3.5c1.5,1.7,3.1,3.6,4.9,4.9c4.6,3.4,10.3,1.8,14-2.1
			c3-3.2,4.3-7.9,4.7-12.1c0.2-1.8,0.2-3.7,0.2-5.5c-0.1-1-0.1-2-0.2-3c-0.4-2.9-1.3-5.6-3.1-7.9c-1.4-1.9-3.3-3.3-5.3-4.6
			c-0.5-0.3-1-0.6-1.4-0.8c-3.3,0.7-5,2.9-2.3,8.4C5.8-0.6,8.4,8.7,2.7,14.4c-0.8,0.8-1.9,1.5-3,1.9c-4.1,1.4-6.2-1.1-8.7-3.5
			C-11.4,10.6-13.9,9.2-16.8,9.2"/>
		<path class="st7" d="M3.9-14.9c-2.5,1-3.7,3.2-1.2,8C5.8-0.6,8.4,8.7,2.7,14.4c-0.8,0.8-1.9,1.5-3,1.9c-4.1,1.4-6.2-1.1-8.7-3.5
			c-0.4-0.3-0.8-0.7-1.1-1c1.8,2.4,4.7,5.3,8.9,5c1.4-0.1,2.8-0.5,3.9-1.5C10.2,9.1,6.1-1.5,3.1-7.8C1.9-10.4,1.3-13.2,3.9-14.9"/>
		<g>
			<path class="st8" d="M-4,21c1.8,1.3,4,1.9,6.2,1.8c0.1-0.6,3.8-2.4,3.9-3c-3.3,1.1-4.2-1.5-4.7-4.3c-0.5,0.3-1.1,0.6-1.7,0.8
				c-1.4,0.5-2.6,0.5-3.6,0.2L-4,17.6C-4.1,18.7-4.1,19.8-4,21"/>
			<path class="st8" d="M-12.1,12.6l3.1,3.5c1.5,1.7,3.1,3.6,4.9,4.9c4.6,3.4,10.3,1.8,14-2.1c3.1-3.2,4.3-7.9,4.7-12.1
				c0.2-1.8,0.2-3.7,0.2-5.5c-0.1-1-0.1-2-0.2-3c-0.4-2.9-1.3-5.6-3.1-7.9c-0.8-1.2-1.9-2.1-3-3c1.2,2.3,1.9,4.6,2.5,6.8
				c1,1.9,1.5,3.9,1.2,6c0.5,2.6,0.6,5.4,0,7.9c0.1,3.1-1.2,5.6-2.6,7.9c-1.1,2.3-3.5,4.2-5.5,4.8c-4.9,1.9-10.5-2.3-12.2-4.9
				l-2.5-2.1C-11.1,13.3-11.6,12.9-12.1,12.6"/>
		</g>
		<path class="st1" d="M-2.9-21.6l0.5-1.5l-3.8,2.3c-2.9,2-1.1,1.6,0.3,2.9c0.3,0.2,0.5,0.5,0.7,0.7C-4.7-18.8-4-20.3-2.9-21.6
			 M-5.8-9.8C-6.5-9.4-7.2-9-7.7-8.4C-10-5.8-9-6.3-7-5.9c0.9,0.1,1.7,0.5,2.4,1.1C-5.2-6.5-5.6-8.1-5.8-9.8z M-5.6-15.9
			c-1,0.7-2,1.5-2.7,2.3c-2.3,2.7,1.2,1.5,2.4,3C-6-12.3-6-14.1-5.6-15.9z"/>
		<path class="st3" d="M-5.7-9.4c-1.2,1-2.7,2.1-1.5,3.5C-9-6.2-9.8-5.8-7.6-8.4c0.5-0.6,1.1-1,1.9-1.4C-5.8-9.7-5.8-9.5-5.7-9.4
			 M-3.7-22.4c-1.8,1.4-3.6,2.6-2.3,4c0.3,0.3,0.6,0.7,0.8,1.1l-0.1,0.1C-5.5-17.6-5.7-17.8-6-18c-1.5-1.2-3.2-0.8-0.3-2.9
			L-3.7-22.4L-3.7-22.4z M-5.6-15.9c-1,0.7-2,1.5-2.7,2.3c-2,2.4,0.6,1.7,1.9,2.6l-0.5-0.5c-1-1-1.4-1-0.9-1.7
			C-7.2-14.1-6.4-15-5.6-15.9L-5.6-15.9z"/>
		<g>
			<path class="st0" d="M3.3-5.4c1.9-1,4.6-1.2,6.7-1.1c1.5,0.2,3,0.6,4.3,1.3l0.4,0.2l-0.5,0.8l-0.4-0.2c-1.2-0.7-2.7-1.1-4-1.2
				c-1.9-0.2-4.5,0-6.2,1L3.3-4.3L2.9-5.1L3.3-5.4z M5.3,1.1C7.2,0,9.8-0.3,11.9-0.1c1.1,0.1,2.3,0.3,3.3,0.7v1
				c-1.1-0.5-2.3-0.7-3.4-0.8C10,0.6,7.5,0.9,5.8,1.8L5.4,2L4.9,1.2L5.3,1.1z M5.3,7.9c2.7-1.3,6.9-1.1,9.5,0.6
				c0.2,0.1,0.1,0.2,0.3,0.3l-0.1,0.3l-0.3,0.2c-0.1,0.1-0.1,0.2-0.2,0.1c-2.3-1.6-6.5-1.9-9-0.7L5.3,8.9L5.2,8.2L5.3,7.9z
				 M3.7,12.9c2,2.1,6.2,3.3,9,2.4L13,15v0.6l-0.3,0.3c-0.2,0.1-0.1,0.3-0.2,0.3c-3,0.7-7.3-0.6-9.4-2.8l-0.2-0.3l0.6-0.6L3.7,12.9z
				 M-0.3,16.3c0.6,1.3,1.6,2.4,2.8,3.2c1.2,0.8,2.8,1.4,4.4,1.3c0.6-0.1,1-0.2,1.5-0.3l-0.1,0.7L8,21.5c-2,0.6-4.3-0.1-6-1.3
				c-1.3-0.8-2.5-2.1-3.1-3.6l-0.2-0.4l0.8-0.3L-0.3,16.3z M-7,14.7c-0.3,0.3-0.5,0.8-0.6,1.2c-0.1,0.9,0.1,1.5,0.5,2.3l-0.8,0.2
				L-8.2,18c-0.6-1.2-0.5-2.8,0.4-3.9l0.3-0.3l0.7,0.6L-7,14.7z"/>
			<path class="st0" d="M-9.5,11.9c-0.5,0.6-0.6,1.2-0.6,1.9c0.1,0.6,0.2,1,0.5,1.5l-0.7,0.1l-0.3-0.2c-0.6-1.2-0.5-2.8,0.4-3.9
				l0.3-0.2l0.6,0.5L-9.5,11.9z M-5.5,25.2c0.3-1,0.5-2.1,0.5-3.1c0.1-0.9,0-1.8-0.1-2.8c0-0.8-0.1-1.8,0.1-2.6
				c0.4-4.2,4.8-5.3,6-3.6c1.5,1.8,1.4,4,0.5,6.6c-0.2,0.5-0.3,1-0.4,1.5c-0.2,0.7-0.3,1.5-0.4,2.3l-0.1,1.7c0,0.7,0.1,1.4,0.2,2
				C1,27.7,1,28.2,0.9,28.8c-0.1,0.5-0.3,0.8-0.7,1.1c-1,0.9-2.7,1.6-4,1.9C-4.5,32-5.3,32-6.1,31.9c-0.2-0.1-0.5-0.1-0.7-0.3
				c-1.1-0.7-1.4-2.1-1.1-3.3C-7.6,26.9-6.7,25.8-5.5,25.2"/>
		</g>
		<path class="st1" d="M-3.5,13.8c0.7-1.2,2-1.7,2.9-1.6c3.2,0.5,2.2,4.7,1.4,7.3C0.2,21.5,0,24,0,25.1c0,2.5,0.8,3.2-0.2,4.2
			c-0.9,0.8-3.4,2-5.6,1.8c-1.8-0.5-1.9-4.3,1-5.3c0.8-1.9,0.8-4.2,0.7-6.3C-4.2,18.1-4.3,15.2-3.5,13.8"/>
		<path class="st3" d="M-3.5,13.8c0.7-1.1,1.4-1.1,2.4-1.3c-3.4,1.7-1.6,8.6-2.5,13c0.7,0,1.2,0.1,1.9,0.3c-2.7-0.3-3.9,1.9-4.2,5.3
			c-1.7-0.6-1.8-4.3,1.1-5.3c0.8-1.9,0.8-4.2,0.7-6.3C-4.2,18.1-4.3,15.2-3.5,13.8"/>
		<path class="st0" d="M-4.4,31.3c0.3-0.1,0.6-0.1,1-0.2c-0.3-1.3-0.1-2.6,1-3.7C-3.9,28.2-4.4,29.6-4.4,31.3 M-7.3,31.1
			c0.3,0,0.6-0.1,1-0.2c-0.3-1.4-0.1-2.6,1-3.7C-6.9,28-7.3,29.4-7.3,31.1 M-5.2,7.1c-2.4-1.6-4.6-3.6-6.2-5.8
			c-0.3-0.5-0.8-1.1-0.8-1.7c0-0.6,0.5-1.2,0.8-1.7c1.4-2.1,2.9-4.5,4.8-6.3c1.2-1.2,3-2.5,4.8-2.2c0.5,0.1,1,0.2,1.4,0.5l0.1,0.1
			l0.1,0.1c0.3,0.5,0.9,1.6,1,2.2c0.9,4.9-4.2,6.3-4.9,7C-2.9,0.3-2.5,1.8-1.5,3l2.1,2.4c1.9,2,1.4,4.1-0.1,6.2l-0.2,0.2l-0.2,0.1
			c-1,0.3-2.1,0.7-3.2,0.6l-0.2-0.1l-0.2-0.1C-5,11-5.5,9.3-5.2,7.3L-5.2,7.1z"/>
		<path class="st1" d="M-5.1-1.4c3.1-1.1,8.6-5.8,4.9-9.2c-1.5-1.1-4,1.2-4.9,1.9c-1.8,1.4-3.7,3.8-5.8,7.1c-0.8,1.4-1,1.1-0.1,2.5
			C-8.6,3.9-5,6.7-0.9,8.6c-0.5,0-1.1-0.1-1.5-0.2c-0.5,1-0.5,1.8,0.1,2.4c-0.9-0.5-1.2-1.1-0.8-2.5l-1.3-0.8
			c-0.2,1.6,0.1,3.1,1.5,4.2c1,0.1,2.2-0.3,2.8-0.6c1.2-1.8,1.9-3.6,0.2-5.1c-3.6-3.1-3.7-7.3-8.2-7.4C-7.3-2-6-1.9-5.1-1.4"/>
		<path class="st3" d="M-3.7,7.9l-0.8-0.5c-0.2,1.6,0.1,3,1.5,4.1C-3.6,10.3-4,9.2-3.7,7.9 M-1.5,8.6c-0.3-0.1-0.6-0.1-0.9-0.2
			c-0.3,0.7-0.4,1.2-0.3,1.6C-2.4,9.6-2.1,9-1.5,8.6z M-3.2-10.1C-4-9.6-4.7-9-5-8.8c-1.8,1.4-3.7,3.8-5.8,7.1
			c-0.8,1.4-1,1.1-0.1,2.5c2.1,2.9,5.4,5.5,9.3,7.5c-2.9-2.4-5.6-4.9-7.3-7.1S-10-1.1-8.5-3.4C-6.9-5.8-5.2-8-3.2-10.1L-3.2-10.1z"
			/>
		<g>
			<path class="st0" d="M14.2-12.5l1.6,3.1l-4.7,0.8l-5.5-2l-0.1-0.1c-2.1-1.7-3.9-3.7-5.1-6.1c-0.3-0.6-0.8-1.6-0.9-2.3L-1-23
				l2.2,3.3c1.6,2.4,4.2,4.5,6.8,5.8c1.5,0.7,3.4,1.8,5.1,1.6c0.1,0,0.2,0,0.3-0.1L14.2-12.5z M21.4-13.8c0.2,1.2,0.1,2-0.4,3
				c-0.1,0.2-0.3,0.5-0.5,0.7c-0.2,0.3-0.5,0.5-0.8,0.4c-0.6-0.1-0.8-0.8-0.8-1.4c0-0.4-0.1-0.8-0.3-1.1l-0.5-0.6l0.6-0.4l2.5-1.5
				L21.4-13.8z"/>
			<path class="st0" d="M18.4-18.9c1.3-0.5,2.8-0.6,3.8,0.5c1.6,1.6,1,5.2-1.2,5.9c-1.4,0.5-3.4,0.5-5,0.7c0.5,0.6,1,0.9,1.5,1.1
				c1.4,0.7,2.4,1.4,3,2.9c0.7,1.8-0.2,3.7-2.8,4.2c-2.3,0.4-2.2,1.3-4.8,0.3c-2.5-1-5.1-2.5-7.3-4c-1.5-1-2.9-2.1-4.2-3.3
				c-2.1-1.9-5.2-4.9-5.6-7.8c-0.2-1.3,0.1-2.6,1.1-3.6c0.3-0.3,0.6-0.5,0.9-0.7l0.2-0.5c0.5-1.5,1.1-4,2-5.8
				c2.2-4.5,5.7-3.8,7.6-0.3c1.5,0.3,2.6,0.6,4.2,1.4l0.1-0.1c0.5-0.5,1.2-1,1.9-0.7c2.5,0.5,2.8,6.8,2.6,8.5l0.1,0.1
				C17.1-19.8,17.9-19.4,18.4-18.9L18.4-18.9z"/>
		</g>
		<path class="st1" d="M12.8-14.1c-2.4-0.5-2.4-4.4,0.5-4.2c1.8,0.1,4,1.6,6,1l-1.8-0.2c1.5-1,3.2-1.2,4.1-0.3
			c1.1,1.2,0.7,4.1-1,4.6c-1,0.3-2.6,0.5-3.6,0.5c0.6-0.5,2.1-1.1,3.3-1.1c-1-0.4-1.9-0.2-2.7,0.1C13.4-12,13-11.1,8-13.7
			c-2.7-1.4-5.3-3.6-6.9-5.9c0.3-0.2,0.8-0.5,1.3-0.1c-0.7-2-4.8-0.1-3.3,2.7c0.1-0.6,0.1-1.2,0.8-1.2c2.4,5.4,6.4,8.4,10.4,10.4
			c2.8,1.4,3.4,2.2,6.5,1.8c0.4,0,0.9-0.1,1.3-0.3c1.7-0.6,0.8-2-0.1-3.1C20.2-8,20.8-5,17.5-4.3c-2.4,0.5-2.1,1.2-4.3,0.4
			c-3.4-1.3-8-4.2-11.3-7.2c-1.4-1.3-4.9-4.5-5.4-7.3c-0.5-2.7,1.9-4.4,4.4-3.7c1.6,0.5,2.9,1.9,3.8,3.7c-1-3.1-2.4-5.3-6.1-4.4
			c0.7-2.1,1.6-6.6,3.5-7.9c2.3-1.5,5,1.9,6.5,5.4c-0.2-1-0.3-2.1-0.9-3c2.3,0.5,3,0.6,4.5,1.9c-0.1-0.6-0.1-0.7-0.1-0.9
			c2-2.1,3.7,2.3,3.2,6c-4.6-1.6-7.7-1.2-9.7,0.6c3.4-1.4,6.4-1.1,8.9,0.4c-0.7-0.1-1.4-0.2-2.1-0.2c1.6,0.2,2,0.3,3.4,0.8
			c0.9,0.3,1.6,0.7,2,1.2c-1.1,0.7-4.2-1.6-6.4-0.3C9.1-17.4,10.2-13.9,12.8-14.1"/>
		<path class="st3" d="M0.7-23c-0.6-0.1-1.3-0.1-2.1,0.2c0.7-2.1,1.6-6.6,3.5-7.9c0.3-0.2,0.7-0.3,1.1-0.4C1.9-29.2,0.8-25.9,0.7-23
			z"/>
		<path class="st2" d="M13.6-20.3c0.7,0.2,1.2,0.3,2.2,0.6c0.9,0.3,1.6,0.7,2,1.2c-0.5,0.3-1.4,0-2.3-0.3
			C15.2-19.3,14.6-19.8,13.6-20.3 M18-17.8c0.3-0.2,0.6-0.3,0.8-0.4c0.1,0.1,0.1,0.2,0.2,0.2C18.8-17.8,18.4-17.7,18-17.8L18-17.8z
			 M13.1-21c0.5,0.2,0.9,0.4,1.4,0.7c-0.3-0.1-0.6-0.1-0.8-0.1C13.5-20.6,13.3-20.8,13.1-21"/>
		<path class="st5" d="M11-14.9c-0.1-0.3-0.2-0.7-0.2-1c-1.9,0.2-3.4-0.6-5-1.4l2.3,1.8l2.7,1.3C10.9-14.3,11-14.6,11-14.9"/>
		<path class="st6" d="M12.8-14.1c-2.4-0.5-2.4-4.4,0.5-4.2c1,0,2,0.5,3.2,0.8c0.8,0.2,1.4,0.2,1.7,0.1c-0.2-0.1-0.5-0.1-0.6-0.1
			c1.5-1,3.2-1.2,4.1-0.3c1.1,1.2,0.7,4.1-1,4.6c-1,0.3-2.6,0.5-3.6,0.5c1-0.8,1.6-1,2.1-1.3c-0.5,0-1.1,0.1-1.6,0.3
			c-4.3,1.7-4.6,2.5-9.6-0.1c-2.7-1.4-5.3-3.6-6.9-5.9c0.3-0.2,0.8-0.5,1.3-0.1c-0.7-2-4.8-0.1-3.3,2.7c0.1-0.6,0.1-1.2,0.8-1.2
			c2.4,5.3,6.4,8.3,10.4,10.3c2.8,1.4,3.4,2.2,6.5,1.8c0.4,0,0.9-0.1,1.3-0.3c1.7-0.6,0.8-2-0.1-3.1C20.2-8,20.8-5,17.5-4.3
			c-2.4,0.5-2.1,1.2-4.3,0.4c-3.4-1.3-8-4.2-11.3-7.2c-1.4-1.3-4.9-4.5-5.4-7.3c-0.5-2.7,1.9-4.4,4.4-3.7c1.6,0.5,2.9,1.9,3.8,3.7
			c-0.1-0.1-0.1-0.2-0.1-0.3c1.6,2.1,3.7,3.4,6.1,3.8C11.1-14.4,11.8-14,12.8-14.1"/>
		<path class="st8" d="M19.6-7.7c0.6,1.4,0.1,2.9-2.1,3.4c-1.6,0.3-2,0.7-2.8,0.7c0-1.6,3.1-1.4,4.1-2.1C19.3-6.2,19.6-6.9,19.6-7.7
			 M20.5-18.4c0.5,0.1,0.8,0.2,1.2,0.6c1.1,1.2,0.7,4.1-1,4.6c-0.1,0-0.1,0-0.1,0.1C21.9-14.6,21.7-17.1,20.5-18.4"/>
		<path class="st7" d="M16.2-13.2c-3.1,1.3-3.8,1.7-8.2-0.6c-1.7-0.9-3.4-2.1-4.8-3.4C8-13.3,12.3-12,16.2-13.2 M12-14.4
			c-1.5-1.1-1.2-4,1.3-4c0.2,0,0.4,0,0.6,0.1C12.2-17.8,11.5-16.5,12-14.4 M12.7-4.2C9.3-5.6,4.9-8.4,1.8-11.1
			c-1.4-1.3-4.9-4.5-5.4-7.3c-0.4-2.5,1.7-4.2,4-3.8c-1.9,0.5-2.7,1.6-2.8,3C-2.7-14.1,7.3-6.8,12.7-4.2"/>
		<path class="st9" d="M19.4-12.1c0.1,0.3,0.2,0.6,0.2,0.9c0.1,1.2,0.6,0.8,0.9,0.1c0.2-0.5,0.4-1,0.4-1.4c-0.1,0.1-0.3,0.1-0.4,0.2
			C20.1-12.3,19.8-12.2,19.4-12.1"/>
		<path class="st3" d="M20-10.4c0.2-0.1,0.4-0.3,0.6-0.7c0.2-0.5,0.4-1,0.4-1.4c-0.1,0.1-0.2,0.1-0.4,0.2
			C20.5-11.7,20.4-11.1,20-10.4"/>
		<path class="st0" d="M13.4-16.6c0.7-0.2,1.2,0.7,0.3,1.1c-0.1,0.3,0.1,0.7,0.6,0.8C12.6-14.4,12.5-16.3,13.4-16.6 M20.9-16.9
			c-0.6-0.2-1,0.6-0.2,0.9c0.1,0.3-0.1,0.6-0.5,0.7C21.5-15.1,21.5-16.7,20.9-16.9"/>
		<path class="st10" d="M3.2-14.3c1.6,0.2,3.2,0.7,4.7,1.5l1.2,0.6c1.4,0.7,2.5,1.6,3.6,2.4c-0.3-0.6-0.7-1.1-1.2-1.6
			c0.6,0.1,1.2,0.2,1.8,0.1c1.4-0.2,2.2,0.1,3.2,1.4c0.8,0.8,2.6,2.4,1.4,2.8c-0.4,0.1-0.8,0.2-1.2,0.3c-1,0.1-1.9,0.2-2.9-0.1
			c-0.4-0.2-0.9-0.4-1.3-0.6l-1.8-1C7.7-10.1,5.2-11.9,3.2-14.3"/>
		<path class="st8" d="M6.1-13c1.9,0.4,3.7,1.3,5.4,2.7c0.6,0.5,0.4,1-0.3,0.4C9.5-11.2,7.8-12.4,6.1-13"/>
		<path class="st0" d="M13-11.9c0.1,0,0.1,0,0.2-0.1c0.2-0.1,0.4-0.1,0.6-0.2c0.4-0.2,0.8-0.1,1.2-0.1l0.6,0.1l-0.1,0.7
			c-0.1,0.5-0.3,1-0.5,1.4c-0.3,0.6-1.1,1.7-1.8,1.4c-0.6-0.2-0.6-1-0.5-1.5c0.1-0.3,0-0.6-0.1-0.9l-0.2-0.6L13-11.9z"/>
		<path class="st9" d="M13.2-11.2c0.1,0.4,0.2,0.7,0.1,1.1c-0.3,2,1.5-0.2,1.6-1.4c-0.3,0-0.7-0.1-0.9,0s-0.4,0.2-0.6,0.2
			C13.3-11.3,13.2-11.2,13.2-11.2"/>
		<path class="st3" d="M13.9-9.6c0.5-0.5,0.9-1.4,1-1.9c-0.2,0-0.4-0.1-0.6-0.1C14.4-10.9,14.3-10.3,13.9-9.6"/>
		<path class="st0" d="M1-22.1c1.1-1.4,1.5-3.4,1.9-5.5C2.7-27.8,2-28,2.2-28.4c1,0,1.7,0.5,2.3,1.2c1.1,1.1,2,3.2,2.5,4.8
			c0.3,0.8,0.2,0.6-1.8,0.3C3.9-22.1,2.4-22.1,1-22.1"/>
		<path class="st9" d="M2.1-22.8c1.1,0,2.2,0.1,3.3,0.2l1,0.2c-0.6-1.4-1.4-3.3-2.3-4.4c-0.2-0.2-0.5-0.5-0.7-0.6
			C3.1-25.8,2.8-24.2,2.1-22.8"/>
		<path class="st0" d="M4-25.8c0.6,0,1,0.6,1,1.4s-0.5,1.4-1,1.4s-1-0.6-1-1.4C3-25.1,3.5-25.8,4-25.8 M13.7-25.9
			c-1.2,1-1.9,2.1-2.3,3.7c-0.1,0.6,0.4,0.9,1,0.7c0.5,0.2,1,0.4,1.5,0.3c0.5,0,0.9-0.2,1-0.7c-0.1-1-0.5-2.6-0.3-3.7
			C14.8-25.9,14.3-26.6,13.7-25.9"/>
		<path class="st9" d="M14.3-21.8c-0.1-1.1-0.5-2.4-0.3-3.4c-0.9,1-1.6,1.9-1.9,3.2v0.1h0.2l0.2-0.1l0.2,0.1
			c0.4,0.1,0.8,0.3,1.3,0.3C13.9-21.7,14.2-21.7,14.3-21.8"/>
		<path class="st0" d="M14.7-20.9l0.6-0.3c-1.6-0.7-3.4-1-5.3-1c0.3,0.2,0.7,0.3,1.1,0.5L14.7-20.9 M12.9-24.3
			c0.5,0,0.8,0.5,0.8,1.1c0,0.6-0.3,1.1-0.8,1.1s-0.8-0.5-0.8-1.1C12.1-23.9,12.4-24.3,12.9-24.3"/>
	</g>
</symbol>
<use xlink:href="#A"  width="47.1" height="64" x="-23.5" y="-32" transform="matrix(1 0 0 1 23.5393 31.9998)" style="overflow:visible;"/>
</svg>
