<svg id="Layer_1" data-name="Layer 1" xmlns="http://www.w3.org/2000/svg" viewBox="0 0 447.21579 446.91459"><defs><style>.cls-1{fill:#cde2e8;}.cls-2{fill:#767676;}.cls-3{fill:#7b7b7b;}.cls-4{fill:#b6c7cb;}.cls-5{fill:#c5d8de;}.cls-6{fill:#848789;}.cls-7{fill:#aebbbf;}.cls-8{fill:#969ea0;}.cls-9{fill:#a5afb1;}.cls-10{fill:#898e90;}.cls-11{fill:#91979a;}.cls-12{fill:#9ea7a9;}.cls-13{fill:#beced3;}.cls-14{fill:#0e0e0e;}.cls-15{fill:#010101;}.cls-16{fill:#202b2d;}.cls-17{fill:#12731d;}.cls-18{fill:#0be426;}</style></defs><path class="cls-1" d="M1143.72046,332.98568a106.32481,106.32481,0,0,1,9.0326,8.20208,74.98928,74.98928,0,0,1,6.90315,7.44074c-.86692,1.99347-5.1489.09829-6.61924-.96069-5.56574-4.00857-11.365-1.64815-17.12023-.95075-2.14982.05029-3.781-1.19556-5.43688-2.27862a77.28094,77.28094,0,0,0-36.93-12.69067,20.6886,20.6886,0,0,1-6.76511-1.67374c-4.7097.51972-7.34533-1.16333-11.057-.22569a56.53285,56.53285,0,0,1-8.97461.37145q-109.05534.01025-218.1107-.0004a59.07524,59.07524,0,0,1-8.95889-.335,17.41894,17.41894,0,0,0-9.435.26675,38.72282,38.72282,0,0,1-8.76352,1.76094,75.75114,75.75114,0,0,0-25.28854,7.11265c-2.068,1.022-4.56582,3.30615-7.03118,3.15654-2.3375-.85075-3.998-1.65844-6.54238-1.11337-5.181,1.10994-12.69868,2.19809-17.55418-1.06723,5.86879-5.22565,6.82042-6.13638,9.53421-8.27344a88.70849,88.70849,0,0,1,28.40993-14.60054c20.82418-6.52819,43.19541-4.723,64.66822-4.72266q37.04337.0006,74.08672.00071,24.13326.00006,48.26651-.00007,37.47358-.0002,74.94716-.0009c17.60358-.00038,34.83454.16886,51.67,6.049a118.86366,118.86366,0,0,1,16.21057,7.3013A69.06406,69.06406,0,0,1,1143.72046,332.98568Z" transform="translate(-734.94276 -312.17486)"/><path class="cls-2" d="M1055.08216,759.08878c-18.32088.02107-36.57074-.459-54.90716-.48878-15.1696-.02467-30.39729-.25225-45.56661-.25225H929.12888q-44.18454,0-88.369-.02133a146.2611,146.2611,0,0,1-16.77-1.46439q-6.0165-.70857-11.9839-1.77318a77.60351,77.60351,0,0,1-11.05726-2.97245,72.221,72.221,0,0,1-7.78378-3.06716c-.51-.25517-1.60072-.73089-4.8987-2.68149-.42682-3.44808,6.907-2.19926,9.43691-2.76364a49.67145,49.67145,0,0,1,16.887-.5448c2.81541.34011,5.68329.22382,8.44718.65593,8.64983,1.35237,17.01272-1.85626,25.48952-1.638,1.99786-.14174,4.18887-.59289,5.89181.45813,3.97418,2.45285,8.287,2.10093,12.59041,2.10588,15.79188.01812,31.71175-1.60023,47.441-.89121,13.81372.62269,27.37344.60749,41.27531.52239C967.55,744.2,978.87856,743.83516,990.5,743.9c11.29687.063,22.69136.17838,33.98753.60728a87.40991,87.40991,0,0,0,15.94716-.42112,66.94711,66.94711,0,0,1,15.4519-.3171c19.25644,1.68824,38.5,1.33,57.76108.262,3.75881-.20844,9.12121-.14293,9.496,4.58488a52.2959,52.2959,0,0,1-6.79453,3.01238c-7.34714,2.859-15.29546,3.98258-23.06129,5.07767A275.03488,275.03488,0,0,1,1055.08216,759.08878Z" transform="translate(-734.94276 -312.17486)"/><path class="cls-3" d="M1120.99771,748.54051c-3.21358-4.22747-3.207-4.18985-9.83879-3.03215-1.29284.22571-2.66651-.05758-3.989.05593-1.56038.134-3.26854-.6183-4.65914.8686a1.90523,1.90523,0,0,1-1.87092.05938c-1.52838-1.6384-3.4187-.89124-5.13379-.918q-8.49092-.13263-16.98482.00193c-1.71267.02831-3.63748-.78576-5.12143.93036-.21375.24716-1.01745.18122-1.45.011-3.44153-1.35454-7.19563-.279-10.55135-1.11528-6.55036-1.63233-13.08974-.35137-19.60378-.86122-5.597,1.929-11.38036.68677-17.0734.95636-1.376.06515-2.90619.57152-4.18435-.80239a2.54968,2.54968,0,0,0-2.36412-.10051c-3.10068,1.712-6.40584.771-9.60857.9116-3.49038.15324-6.99522.11271-10.48862-.00086-1.54973-.05038-3.32081.73181-4.62573-.93054-.19044-.24268-1.01351-.18046-1.44718-.01139-5.59335,2.181-11.39414.638-17.08444.86769-2.36161.09536-4.77229-1.84837-7.16063.10991-5.16238,0-10.48258.78152-15.44271-.22006a41.402,41.402,0,0,0-14.57975-.53961c-5.59041.88624-11.08449.47175-16.612.71-1.52974.06591-3.20905.632-4.66576-.85732-.48993-.50094-2.09465-.43842-2.88062-.03338-3.77616,1.946-7.7601.46637-11.60657.94034-2.05528-1.74737-4.097-.92517-6.17722-.02627a4.05426,4.05426,0,0,1-1.48741.02627q-18.48467,0-36.96928.01468c-1.4336.003-2.81343.192-2.34854-2.008a1.24152,1.24152,0,0,0-.73468-.96146c-2.1619-.0804-4.32846-.06328-6.49249-.02081-.26126.00513-.52969.32293-.77156.5238-1.11178.92329-2.30737,3.22931-3.12073-.21192-1.41689-.21664-2.4438-.72354-3.9876.82662a8.03092,8.03092,0,0,1-8.41463,1.541,11.73582,11.73582,0,0,0-4.20142-.67014c-3.66091-.09969-7.49348.637-10.94287-.22266a38.25228,38.25228,0,0,0-10.12323-.74826c-3.69645.0584-7.389.57027-11.07185.98547-.40123.04522-.87489.70176-1.05274,1.17359-.25178.66789.3425,1.76382-1.03532,1.77779-3.684.1198-6.40564-2.184-9.30342-3.87866a96.91033,96.91033,0,0,1-10.91253-7.17354c-5.43917-4.26052-12.80967-10.00907-16.65493-15.91461-.22693-.34853,1.87526.46646,1.87526-.02981-.16443-3.94134,3.01105-4.30848,5.62593-5.07212,3.48139-1.0166,6.91084.34468,10.375.56682,2.57917.91835,4.56058,2.75183,6.58719,4.45855,12.28111,10.34282,26.64516,15.48171,42.41412,17.25413a194.84479,194.84479,0,0,0,21.937,1.14509q118.72217-.0774,237.44439-.03482c23.80342-.00207,44.4065-7.664,60.816-25.41036,1.79537-1.94156,3.4624-4.07914,5.8837-5.35849,6.09986-1.33852,14.21465-5.25472,19.911-1.58021.35024.22593-.90247,2.62085-1.041,2.891a26.03176,26.03176,0,0,1-1.75959,2.90873c-1.38263,2.00095-2.15378,3.12387-4.06182,5.67519-1.34833,2.14534-3.60421,4.243-5.25767,6.15741a102.99658,102.99658,0,0,1-8.93992,9.20913q-2.08062,1.87581-4.28894,3.6031a52.7701,52.7701,0,0,1-5.08917,3.214c-2.51732,1.5297-5.03582,3.06036-7.62179,4.47232-2.47155,1.34948-5.10251,2.63156-7.53122,3.84288C1122.88975,748.87558,1121.82653,748.54051,1120.99771,748.54051Z" transform="translate(-734.94276 -312.17486)"/><path class="cls-4" d="M735.15313,473.38338c0-13.81262-.40313-27.38338-.09329-41.43574.01022-6.91537.63934-16.72566.76335-24.15415,2.91905-2.12784,6.53292-.04231,9.6871-1.7466,2.69484-1.4561,5.41314-1.32842,7.19286,1.7674a4.5928,4.5928,0,0,1,.27131,2.89055c-.29421,1.03177-.91791,1.988-.76159,3.13869.10642,1.12427.29637,2.23267.45887,3.35139a6.76672,6.76672,0,0,1,.02116,2.29184,6.30016,6.30016,0,0,1-.62223,1.54952c-1.05707,11.772-.16536,23.559-.48016,35.32924-.075,2.80348.40138,5.65166-.56461,8.39468-.254.40823-.47786.97513-.94052,1.06931-5.2848,1.07563-10.41815,2.33861-13.1958,7.74346C736.61566,474.106,735.70606,473.8075,735.15313,473.38338Z" transform="translate(-734.94276 -312.17486)"/><path class="cls-5" d="M767.14913,339.40013c1.6945-.19523,3.27592,1.66712,5.16828.10251.43709-.36139,1.94978.87782,2.94756.84093,3.57647-.13224,7.63922,1.36,10.23249-2.70115.12129-.19,1.06763.14693,1.62972.23846-.75145,1.98153,2.30464.91113,2.0192,2.51912-.45535,3.19557-3.32781,4.31624-5.42365,5.907-12.68924,9.63133-21.05851,22.20017-25.92236,37.2429-.51174,1.58269-.07035,4.43893-2.20037,4.58759-3.23429-1.48337-7.389-2.90834-10.86446-2.08814-1.877.443-3.89063.965-5.58289-.655a94.14094,94.14094,0,0,1,4.12939-13.2923,88.33246,88.33246,0,0,1,5.92667-12.01563c4.34863-7.12358,9.13465-13.956,15.35251-19.65767A2.94392,2.94392,0,0,1,767.14913,339.40013Z" transform="translate(-734.94276 -312.17486)"/><path class="cls-6" d="M773.14838,717.35287c-.1562,1.63352-1.66423,1.20435-2.18532.92857-3.05635-1.61748-5.9037-.97022-9.01068-.04388-1.915.57094-3.04495,3.35547-3.878,4.92546-.67436-.863-1.24213-1.27426-2.09936-2.40052-4.89468-5.5849-8.36322-12.771-11.39746-19.407A97.42357,97.42357,0,0,1,737.6,679.4a91.82882,91.82882,0,0,1-1.40185-10.31105c5.017-3.20282,12.63027-3.54637,17.97685-1.16395,2.8973,3.89621,1.443,10.24423,2.61739,14.67236A84.23174,84.23174,0,0,0,770.786,711.65385C772.03611,713.332,773.87471,714.829,773.14838,717.35287Z" transform="translate(-734.94276 -312.17486)"/><path class="cls-7" d="M735.15313,473.38338c.86538-.08678,2.286.40557,1.95638-1.22118-.44428-2.19244,1.03628-3.22115,2.244-4.48246a6.42876,6.42876,0,0,1,4.92422-2.3047c1.957.04322,3.91562.00934,5.87352.00934,1.71709,1.52581,1.40367,3.60283,1.428,5.54368.0681,5.44144.01866,10.88393.03621,16.32422-.23413,9.35634.43656,18.72694-.37184,28.0711-1.02735,2.52938-3.25987,3.36151-5.62662,3.26664-3.82387-.15327-6.37922.9585-7.29059,5.00131-.3143,1.39422-1.1266,2.96237-3.17324,1.78555Z" transform="translate(-734.94276 -312.17486)"/><path class="cls-8" d="M735.15313,613.36587V584.3695a4.52649,4.52649,0,0,0,.95-2.23986c1.32407-8.36154,6.48293-10.74842,14.54114-6.74773,2.00143,6.13181.5804,12.44156.916,18.66228.14314,2.65336.04159,5.28648,1.607,7.61419,1.53334,7.07373.55915,14.2394.74723,21.36107.15349,5.81193.08044,11.63209-.00105,17.44792-.02789,1.99051.07534,5.79972-1.20771,7.51105-2.49169,1.50256-3.31752-2.15262-3.82083-3.91411a20.36186,20.36186,0,0,1-.22616-7.75483c-.15012-7.75916.07941-15.53194-.12029-23.29808-.05283-2.05453,1.24412-5.22732-2.12727-5.72-2.93573-.42906-5.94175.10548-7.48584,3.4955C738.26254,612.242,737.81332,614.58652,735.15313,613.36587Z" transform="translate(-734.94276 -312.17486)"/><path class="cls-9" d="M752.151,601.36737c-.71-.14222-1.82542.47248-1.96666-.77041a35.21047,35.21047,0,0,1-.03309-3.95391V575.37062c-1.66614-1.73965-1.55744-3.95058-1.57742-6.10531-.05085-5.48674.03981-10.97461-.04552-16.46059-.03789-2.43616.342-5.09681-2.97134-6.07462-3.23779-.95554-4.94278.60515-6.40566,3.19632-.80862,1.43222-1.431,3.67556-3.99818,2.44708V525.37688c.90117-.06683,2.18.41752,1.99509-1.29026a7.578,7.578,0,0,1,2.69633-6.86833c.44913-.39261,1.36922-.95,1.60008-.78205,2.95227,2.1473,5.81853.47867,8.70662-.05824,1.7269,1.50688,1.40052,3.57434,1.42548,5.5011q.1051,8.11235.00294,16.226a11.66627,11.66627,0,0,0,1.59611,6.56822,17.1189,17.1189,0,0,1,.76464,5.89419q.05676,22.14594-.016,44.29183C753.91333,597.151,754.0797,599.56486,752.151,601.36737Z" transform="translate(-734.94276 -312.17486)"/><path class="cls-10" d="M750.15125,635.36312c0,3.25784.034,6.51616-.01412,9.77326-.02469,1.66937,1.15119,1.13706,2.01387,1.22537a4.5977,4.5977,0,0,1,1.555,3.54368c.238,5.46657.27,10.94065.89951,16.39a4.45508,4.45508,0,0,1-1.45462,4.06337c-3.13746-.55871-6.36074-1.746-9.44633-.86855a24.65212,24.65212,0,0,1-6.55167.86855c-.33329-.42265-.93648-.834-.95473-1.26982-.38328-9.155-1.045-18.50169-1.045-27.72656C738.87076,636.15825,744.20084,634.98527,750.15125,635.36312Z" transform="translate(-734.94276 -312.17486)"/><path class="cls-11" d="M750.15125,635.36312c-.61737.11745-1.45737.02222-1.81062.392a4.21136,4.21136,0,0,1-3.85738,1.62663c-2.81348-.3899-4.99447.90058-6.74945,2.94092a2.62529,2.62529,0,0,1-2.58067,1.03972v-27.9965c.88887-.0736,2.13393.428,2.00186-1.27062-.18866-2.42633.97185-4.24376,2.61832-5.86682.75351-.7428,1.436-1.37733,2.4087-.33535.71317.764,1.2647.29748,2.07314-.03442a43.00762,43.00762,0,0,1,5.33709-1.49166c.18634,1.89618.52038,3.79133.53358,5.68874C750.18448,618.49118,750.15125,626.92726,750.15125,635.36312Z" transform="translate(-734.94276 -312.17486)"/><path class="cls-12" d="M735.15313,552.3735c.711-.14711,1.98573.46079,1.93641-.77938-.07014-1.764,1.03227-2.93222,1.69283-4.30311,1.36673-2.83644,2.811-3.53319,5.64282-2.8957.88752.1998,1.69515.78216,2.58381.94162a19.2109,19.2109,0,0,0,3.14225.03744v29.99625c-2.80057,0-5.60143-.02505-8.40164.00711-2.75877.03168-2.68965.08157-3.62195,2.70215a10.82776,10.82776,0,0,0-.9902,5.03309c.20523,1.68128-1.1026,1.179-1.98433,1.25653Z" transform="translate(-734.94276 -312.17486)"/><path class="cls-13" d="M739.15263,385.39438a12.85319,12.85319,0,0,0,5.47668-.92529c1.52148-.62593,3.39709.49533,5.02452-.92751.71382-.62408,2.08379-.29423,2.96616.76142a17.07279,17.07279,0,0,0,2.53064,2.09125c1.80705,1.79443,1.1474,3.95414.90069,6.05523-.55381,4.71654-2.52157,12.5-2.02632,17.40052.09648.95461-.3375.6-1.874-1.4585-.69429-.66659-1.3385-1.81966-2.09342-1.89737-1.5212-.1566-3.23849-.62129-4.56713.97719-.666.80124-1.93346,1.07813-2.69443,1.8296a7.76792,7.76792,0,0,1-6.6085,2.05533c-1.04176-.192.228-9.77633.32792-10.65983C736.65774,399.43833,738.48235,386.99529,739.15263,385.39438Z" transform="translate(-734.94276 -312.17486)"/><path class="cls-4" d="M1182.09725,471.38363v1.99975c-1.66224,1.03371-2.66733-.05748-2.95465-1.35228-.80254-3.61695-3.27044-3.35046-6.06538-3.21675-3.02235.14456-6.322.94567-8.76263-1.89821a10.0526,10.0526,0,0,1-.96155-4.80929q-.122-17.8041.00634-35.60833a9.56186,9.56186,0,0,1,1.03116-4.78443,15.28726,15.28726,0,0,1,17.70671-.32421v17.99775a1.18171,1.18171,0,0,0,0,1.99975v6.99912a5.90377,5.90377,0,0,0,0,6.99913Z" transform="translate(-734.94276 -312.17486)"/><path class="cls-5" d="M1136.103,346.39925c.14375-.71033-.47437-1.87324.77416-1.96229,1.97265-.14071,3.96478.01722,5.94454-.05907a9.72442,9.72442,0,0,0,3.25249-.50533c2.7799-1.13563,4.92987-.18216,6.78227,1.80721,1.75179,1.8814,1.70465,1.92531,4.24394.71952.29484-.14,2.2755,1.92315,2.55581,2.22921a40.60734,40.60734,0,0,1,3.22617,4.2317,100.87367,100.87367,0,0,1,13.44261,28.26965c.62922,2.07648,1.18387,4.17557,1.77276,6.26428-.61657.55709-1.43092,1.2062-2.14674.91134-4.63293-1.90845-9.46.07894-13.92379,1.36926-2.12449-1.33068-2.57964-4.08337-2.54925-6.50849.70936-.64156.94044-1.19464-.30034-1.454-3.1226-3.59491-3.90531-8.34527-6.12006-12.41023-3.76122-6.9034-9.40358-12.4029-13.58775-18.96447a7.24951,7.24951,0,0,0-3.016-3.37277C1136.334,346.77848,1136.21849,346.58887,1136.103,346.39925Z" transform="translate(-734.94276 -312.17486)"/><path class="cls-13" d="M1182.09725,421.43529a38.28851,38.28851,0,0,0-14.61422-.38179c-.97728.15638-3.485,1.53844-4.37053,1.0965-.77055-.38454.19809-2.37608-.09423-3.18613a14.82269,14.82269,0,0,1-.52461-5.212,83.40094,83.40094,0,0,0-1.01882-14.54711,37.76454,37.76454,0,0,1-.87761-7.42379c.0776-2.30259,1.9316-3.416,3.75786-4.51467,1.70565-1.02611,3.52376-2.08485,5.51428-2.07926a13.06535,13.06535,0,0,1,4.18494,1.05541,12.682,12.682,0,0,0,2.16038.59964c.72082.11389,1.07719-.60039,1.69423-.12186a52.11729,52.11729,0,0,1,2.17074,9.68855c.68836,4.1746,1.2453,8.37214,1.60354,12.58848C1182.03814,413.175,1181.92,417.24911,1182.09725,421.43529Z" transform="translate(-734.94276 -312.17486)"/><path class="cls-13" d="M1182.09725,455.38563c-.7104-.14406-1.86446.47561-1.96323-.77525a34.72836,34.72836,0,0,1,0-5.44863c.09877-1.25087,1.25286-.63119,1.96326-.77525Z" transform="translate(-734.94276 -312.17486)"/><path class="cls-13" d="M1182.09725,441.38738c-.8745-.08164-2.204.42469-1.97257-1.24217.16957-1.22132,1.26333-.61949,1.97257-.75758Z" transform="translate(-734.94276 -312.17486)"/><path class="cls-9" d="M1182.09391,500.309l-.00213,42.27516a23.49336,23.49336,0,0,1-.43191,5.49146,2.06246,2.06246,0,0,1-.46162.99969,2.1247,2.1247,0,0,1-.8784.46083,18.35328,18.35328,0,0,1-14.19328-1.25095,5.3282,5.3282,0,0,1-1.71369-1.29636,6.03612,6.03612,0,0,1-.95712-3.49522c-.14817-2.72173-.152-5.449-.15577-8.17476l-.03922-28.26411c-.00317-2.28754-.00609-4.57674.11752-6.8617.06232-1.15178.15668-2.30216.2995-3.44688.1092-.87518-.048-1.60012.69162-2.14267a29.1795,29.1795,0,0,1,9.75727-4.46393,11.75651,11.75651,0,0,1,7.0527-.09491,1.50754,1.50754,0,0,1,.65058.39349c.252.29813.31522-.316.3152.07432C1182.145,493.43122,1182.09406,497.39032,1182.09391,500.309Z" transform="translate(-734.94276 -312.17486)"/><path class="cls-12" d="M1165.09937,547.37412c2.17145.33331,4.33436.74744,6.5167.97718,2.19214.23077,4.44564-.3918,6.557.95175.70451.44831,2.8625-3.7797,3.85228-3.7797.04291,3.598.07184,10.35165.11747,14.39388.03928,3.479-.04558,6.96843-.04558,10.454,0,2.99962-.174,6.65414-.174,9.65377-5.72106,2.21176-11.48752,3.85084-17.49824,1.05-1.1969-1.72946-1.075-4.4415-1.0936-6.42267-.06646-7.09878-.08721-14.19836.01169-21.29671C1163.37272,551.2278,1163.30791,549.01192,1165.09937,547.37412Z" transform="translate(-734.94276 -312.17486)"/><path class="cls-7" d="M1181.09737,495.38063c-5.37869.4032-10.60115-1.69352-15.998-.99988a4.68593,4.68593,0,0,1-1.59248-3.538,191.97453,191.97453,0,0,1,0-19.92064,4.686,4.686,0,0,1,1.59251-3.538c2.48181,0,4.97423.14236,7.4424-.041,2.35246-.17479,4.67965-.68936,7.437-1.12.04137,2.05172.14912,3.97219.09813,5.88844-.04525,1.701,1.131,1.19851,2.02038,1.27185v13.44685a39.87585,39.87585,0,0,1-.03784,4.478A33.03965,33.03965,0,0,1,1181.09737,495.38063Z" transform="translate(-734.94276 -312.17486)"/><path class="cls-6" d="M1167.48784,710.339c-3.76369-.3333-7.91241-.70644-11.68153-.95863-1.53878-.103-3.2041-.41932-4.5092.92688a14.21658,14.21658,0,0,1-1.19586-.95337c-.89653-1.96823.1792-3.57255,1.10627-5.08994a74.09943,74.09943,0,0,0,9.104-23.5071c.68683-3.231,1.23782-7.90242,3.26408-10.64463.67543-.91408,3.03054-1.28964,4.07772-1.39464a11.01936,11.01936,0,0,1,4.12037.43039,22.32358,22.32358,0,0,1,4.65612,2.03121c1.73746.9643,4.073-.28238,3.66766,2.17921-1.7407,10.57081-4.98078,22.2478-10.0084,31.75122C1169.15056,706.88833,1168.48772,708.59263,1167.48784,710.339Z" transform="translate(-734.94276 -312.17486)"/><path class="cls-8" d="M1164.9253,580.6829c5.70327.30114,11.2706-1.70889,16.99788-.99987,0,11.33193.17407,22.65692.17407,33.98885a25.31019,25.31019,0,0,1-17.67225-1.01251c-1.27956-1.89121-1.25695-4.06226-1.27554-6.20295-.05581-6.43377-.07573-12.86842.0105-19.30167C1163.1905,584.87446,1163.0073,582.47516,1164.9253,580.6829Z" transform="translate(-734.94276 -312.17486)"/><path class="cls-10" d="M1180.12651,673.1403c-.02334.13305-.58554.08951-.837.19662a6.04192,6.04192,0,0,1-1.96451.05847,3.86012,3.86012,0,0,1-3.427-1.72843c-.08074-.12776-.24789-.30446-.3596-.29412-3.15.29156-6.45162-.84468-9.43885.98566-2.47192-2.93122-1.508-6.2946-1.22031-9.57037a6.58087,6.58087,0,0,0,.1198-4.97841c.88615-5.86065-.65061-11.96132,1.7787-17.665.29738-.69821,3.26244-1.26591,3.9671-1.43134a17.87625,17.87625,0,0,1,4.449-.46388,20.40438,20.40438,0,0,1,4.64517.68574c1.10932.28443,3.53971-1.34185,4.25826-.26023.11356,2.19375.03674,6.70245.02523,8.55-.02523,4.05-.14995,6.51584-.485,11.925-.26941,4.34931-.83484,8.91456-1.35,12.675C1180.19373,672.50891,1180.2125,672.65,1180.12651,673.1403Z" transform="translate(-734.94276 -312.17486)"/><path class="cls-11" d="M1182.09725,640.3625c-1.65059,0-3.30184.03066-4.95153-.00781-2.05047-.04779-4.20636.49047-6.02327-.99207-1.82707,1.42136-3.96657.96055-6.02308.99988a4.203,4.203,0,0,1-1.50967-3.04741,167.87978,167.87978,0,0,1,0-21.90168,4.20292,4.20292,0,0,1,1.50967-3.04741h2.98492c2.48742,0,4.97661.05755,7.46177-.017,2.25942-.06777,4.21121,1.70841,6.55119,1.01684Z" transform="translate(-734.94276 -312.17486)"/><path class="cls-14" d="M1148.1015,734.35075" transform="translate(-734.94276 -312.17486)"/><path class="cls-14" d="M1143.10212,738.35025" transform="translate(-734.94276 -312.17486)"/><path class="cls-15" d="M1164.84324,612.36572l-.03156,28.9974c-.026,23.9385-.60873,49.67111-14.7245,69.005-10.57665,14.48644-27.55276,23.25688-45.00646,27.391s-35.58832,4.09693-53.52485,4.03807l-196.0422-.64339c-28.37251-.09312-59.825-1.37818-80.15536-21.16923C754.54189,699.72029,752.86419,667.39,752.52186,638.341q-.831-70.51742-1.662-141.03484c-.42665-36.20435-.84953-72.65751,4.81366-108.53a68.83194,68.83194,0,0,1,23.00162-40.61395,74.40981,74.40981,0,0,1,24.71371-13.57549c18.64285-6.15517,38.67116-6.20023,58.30384-6.1849l191.62645.1496c16.973.01325,34.11015.04393,50.66892,3.771s32.72562,11.51591,43.49785,24.63243c16.81357,20.4726,17.58166,49.3157,17.55284,75.80763Q1164.941,522.564,1164.84324,612.36572Z" transform="translate(-734.94276 -312.17486)"/><path class="cls-4" d="M751.25,488.3c.33946,20.74859-.075,38.025.17574,57.02806-.71-.14-1.08571-.47808-1.24575-1.72808a28.47693,28.47693,0,0,1-.03-3.46V465.38q0-21.855-.02-43.72c0-1.48.82-12.97,2.94-12.45C751.58946,442.10117,751.25,465.64,751.25,488.3Z" transform="translate(-734.94276 -312.17486)"/><path class="cls-13" d="M751.15113,417.39038l.99987.99987Z" transform="translate(-734.94276 -312.17486)"/><path class="cls-16" d="M958.13141,708.354c-40.81643,0-81.63328.09947-122.44892-.08105a53.31463,53.31463,0,0,1-24.34314-6.2954,45.37562,45.37562,0,0,1-21.68856-24.51171,66.679,66.679,0,0,1-4.68161-21.71166c-.32692-7.867.26148-15.7311.24715-23.59824q-.19807-108.7046.0039-217.40969a56.04309,56.04309,0,0,1,7.9263-29.173,43.25686,43.25686,0,0,1,5.06018-6.67227,51.07018,51.07018,0,0,1,16.89012-12.29151c11.02842-4.94681,24.17856-4.90793,36.02415-5.18641,4.99516-.11743,9.99524-.0257,14.99316-.0257q37.30281,0,74.60561.00063,37.49025.00012,74.98051-.00232,18.74513-.00149,37.49025-.00427c12.14226-.00185,24.20786-.35178,36.25228,1.46646,8.62618,1.30222,16.61638,5.38127,23.54679,10.74674,8.33929,6.45608,13.059,15.0038,16.14877,24.78236a60.57705,60.57705,0,0,1,2.04311,11.1682c1.91434,15.84053.62386,31.72043.8672,47.57622.248,16.15616.05484,32.31911.05484,48.47907v96.46c0,15.99337.02291,31.98676-.02182,47.98005-.0348,12.442-2.30208,25.1625-9.043,35.792a44.20658,44.20658,0,0,1-11.48465,12.3539,52.835,52.835,0,0,1-22.8758,9.2602c-10.85243,1.60871-21.72864.67127-32.58806.85679-10.82567.18492-21.657.04053-32.48583.04053h-65.4729Z" transform="translate(-734.94276 -312.17486)"/><path class="cls-17" d="M880.21812,478.2159V383.56149h47.43845C927.65,401.9,927.65,463.1,927.95556,478.2159Z" transform="translate(-734.94276 -312.17486)"/><path class="cls-18" d="M852.40576,413.24635c-1.57451-.69635-2.35436-1.04729-3.51514-1.68073a31.45125,31.45125,0,0,0-2.94162-1.3767,16.09425,16.09425,0,0,0-3.33721-1.07477c-3.86175-.89739-8.03184-1.45967-11.86555-.12967a10.19951,10.19951,0,0,0-1.88462.87232,6.87952,6.87952,0,0,0-2.67834,2.57832A4.5652,4.5652,0,0,0,825.8,416.075c.66794,2.519,4.11766,3.9585,6.18467,5.03213a35.31284,35.31284,0,0,0,5.13043,2.21457,62.6768,62.6768,0,0,1,13.92471,6.13969c5.50537,3.484,9.71405,8.25378,8.99721,15.31822-.46829,4.615-2.19708,8.71783-6.3672,11.82481a31.65266,31.65266,0,0,1-9.53947,4.8426,22.6901,22.6901,0,0,1-2.91785.70142c0,.675-.06385,1.75646-.06872,3.12923l.01975,12.98861h-9.82869c0-5.09583,0-10.20542-.00021-15.69258a23.09418,23.09418,0,0,1-13.40483-3.81877c-.59488-.3916-7.80032-5.02166-7.78605-5.04457,1.57054-2.51194,4.797-6.89059,6.43125-9.36036l7.51037,4.486a23.482,23.482,0,0,0,5.7928,2.25267A24.91046,24.91046,0,0,0,836.3,451.625a22.52664,22.52664,0,0,0,5.49129-.71668c2.31767-.6807,4.73181-2.5692,5.271-5.0306a4.16732,4.16732,0,0,0-.91593-4.09437c-3.70346-3.99165-8.55988-5.59126-13.42069-7.47207-5.378-2.08093-10.69244-4.31131-14.92691-8.64776a15.08326,15.08326,0,0,1-4.56633-9.05856,17.17128,17.17128,0,0,1,2.48964-10.35124,22.20776,22.20776,0,0,1,12.14038-8.59122,23.94725,23.94725,0,0,1,3.225-.75c0-.8625.03554-1.13671.04572-2.24047.03362-3.64186.00791-7.28426.00791-11.10093h9.88124c.03633,1.7301.09189,3.66383.11317,5.59794.02016,1.8306-.01922,3.662.00955,5.49234.01542.98131-.01155.92247-.00788,2.32615a35.76771,35.76771,0,0,1,6.21906,1.99628,27.27986,27.27986,0,0,1,3.96708,1.95172c1.38035.69017,2.72858,1.57014,4.04266,2.38032a26.41969,26.41969,0,0,1,2.97461,2.11852Z" transform="translate(-734.94276 -312.17486)"/></svg>