<?xml version="1.0" encoding="utf-8"?>
<!-- Generator: Adobe Illustrator 25.2.1, SVG Export Plug-In . SVG Version: 6.00 Build 0)  -->
<svg version="1.1" id="Layer_1" xmlns="http://www.w3.org/2000/svg" xmlns:xlink="http://www.w3.org/1999/xlink" x="0px" y="0px"
	 viewBox="0 0 61 62.9" style="enable-background:new 0 0 61 62.9;" xml:space="preserve">
<style type="text/css">
	.st0{fill:#555588;}
</style>
<symbol  id="A" viewBox="-30.5 -31.5 61 62.9">
	<path class="st0" d="M-30.5,12c0-1,0.1-1.8,0.4-2.4c0.3-0.6,0.7-1.2,1.2-1.6c0.5-0.4,1.1-0.7,1.7-0.9c0.7-0.2,1.4-0.3,2.1-0.3
		c0.7,0,1.4,0.1,2,0.3c0.7,0.2,1.2,0.5,1.7,0.9c0.5,0.4,0.9,1,1.2,1.6c0.3,0.7,0.4,1.5,0.4,2.4c0,0.9-0.1,1.7-0.4,2.4
		c-0.3,0.6-0.7,1.2-1.2,1.6c-0.5,0.4-1.1,0.7-1.7,0.9c-0.7,0.2-1.3,0.3-2,0.3c-0.8,0-1.5-0.1-2.1-0.3c-0.6-0.2-1.2-0.5-1.7-0.9
		c-0.5-0.4-0.9-1-1.2-1.6C-30.3,13.7-30.5,12.9-30.5,12 M-13.2,31.5c-1,0-2-0.1-3-0.2c-1-0.1-1.9-0.3-2.6-0.6v-7.4
		c0.6,0.2,1.2,0.3,1.8,0.4c0.6,0.1,1.2,0.2,1.9,0.2c0.5,0,1-0.1,1.4-0.2c0.5-0.1,0.9-0.4,1.2-0.8c0.3-0.4,0.6-0.9,0.8-1.6
		c0.2-0.7,0.3-1.5,0.3-2.5V-18H-2v38c0,1.6-0.2,3-0.6,4.4c-0.4,1.3-1,2.6-1.9,3.6c-0.9,1-2,1.9-3.4,2.5S-11.1,31.4-13.2,31.5
		 M-11.8-26.9c0-0.9,0.1-1.6,0.4-2.2s0.6-1.1,1.1-1.4c0.5-0.4,1-0.6,1.6-0.8c0.6-0.1,1.3-0.2,2-0.2c0.7,0,1.3,0.1,2,0.2
		c0.6,0.1,1.1,0.4,1.6,0.8c0.5,0.4,0.9,0.9,1.1,1.4c0.3,0.6,0.4,1.3,0.4,2.2c0,0.9-0.1,1.6-0.4,2.2c-0.3,0.6-0.6,1.1-1.1,1.4
		c-0.5,0.4-1,0.6-1.6,0.8c-0.6,0.1-1.3,0.2-2,0.2c-0.7,0-1.4-0.1-2-0.2c-0.6-0.2-1.1-0.4-1.6-0.8c-0.5-0.4-0.8-0.9-1.1-1.4
		S-11.8-26-11.8-26.9 M30.5,6.2c0,1.8-0.3,3.4-1,4.7c-0.6,1.3-1.6,2.5-2.8,3.4c-1.2,0.9-2.7,1.6-4.4,2S18.7,17,16.5,17
		c-1.1,0-2.2,0-3.1-0.1c-0.9-0.1-1.8-0.2-2.7-0.3c-0.8-0.2-1.7-0.4-2.5-0.6c-0.8-0.3-1.6-0.6-2.4-0.9V7.2C6.6,7.7,7.5,8,8.5,8.4
		l2.9,0.9L14,9.9c0.8,0.1,1.7,0.2,2.5,0.2c0.8,0,1.6-0.1,2.1-0.2c0.5-0.1,1-0.4,1.4-0.6c0.4-0.3,0.7-0.6,0.8-1
		c0.2-0.4,0.3-0.8,0.3-1.2c0-0.4-0.1-0.8-0.2-1.1c-0.1-0.3-0.4-0.7-0.9-1.1C19.6,4.4,19,4,18,3.5l-3.7-1.8l-3.9-2
		c-1.1-0.7-2-1.4-2.7-2.2C7.1-3.3,6.5-4.3,6.2-5.3C5.9-6.3,5.7-7.6,5.7-9.1c0-1.6,0.3-3,0.9-4.2c0.6-1.2,1.5-2.2,2.6-3
		c1.1-0.8,2.5-1.4,4.1-1.8c1.6-0.4,3.4-0.6,5.3-0.6c2,0,4,0.2,5.8,0.7c1.8,0.5,3.7,1.2,5.7,2.1l-2.8,6.6c-1.6-0.7-3-1.3-4.5-1.8
		c-1.4-0.5-2.8-0.7-4.2-0.7c-1.3,0-2.2,0.2-2.8,0.7C15.3-10.6,15-10,15-9.2c0,0.4,0.1,0.8,0.2,1.1c0.1,0.3,0.4,0.6,0.9,1
		c0.4,0.3,1,0.7,1.8,1.1l3,1.4l3.9,1.9c1.1,0.6,2.1,1.3,3,2.1c0.8,0.8,1.5,1.7,1.9,2.8C30.2,3.3,30.5,4.6,30.5,6.2"/>
</symbol>
<use xlink:href="#A"  width="61" height="62.9" x="-30.5" y="-31.5" transform="matrix(1 0 0 1 30.483 31.4611)" style="overflow:visible;"/>
</svg>
