<?xml version="1.0" encoding="utf-8"?>
<!-- Generator: Adobe Illustrator 25.2.1, SVG Export Plug-In . SVG Version: 6.00 Build 0)  -->
<svg version="1.1" id="Layer_1" xmlns="http://www.w3.org/2000/svg" xmlns:xlink="http://www.w3.org/1999/xlink" x="0px" y="0px"
	 viewBox="0 0 61.9 64" style="enable-background:new 0 0 61.9 64;" xml:space="preserve">
<style type="text/css">
	.st0{fill:#2684FF;}
	.st1{fill:url(#SVGID_1_);}
	.st2{fill:url(#SVGID_2_);}
</style>
<symbol  id="C" viewBox="-30.9 -32 61.9 64">
	<g>
		<path class="st0" d="M30.2-1.8L0-32L-30.2-1.8c-1,1-1,2.6,0,3.6L0,32L30.2,1.8C31.2,0.8,31.2-0.8,30.2-1.8L30.2-1.8z M0,9.5
			L-9.5,0L0-9.5L9.5,0L0,9.5z"/>
		
			<linearGradient id="SVGID_1_" gradientUnits="userSpaceOnUse" x1="6884.3418" y1="-8458.9053" x2="6883.7075" y2="-8458.4912" gradientTransform="matrix(20.836 0 0 31.904 -143443.8438 269853.875)">
			<stop  offset="0.18" style="stop-color:#0052CC"/>
			<stop  offset="1" style="stop-color:#2684FF"/>
		</linearGradient>
		<path class="st1" d="M0-9.4c-6.2-6.2-6.2-16.2-0.1-22.5l-20.8,20.6L-9.6,0L0-9.4z"/>
		
			<linearGradient id="SVGID_2_" gradientUnits="userSpaceOnUse" x1="6882.0483" y1="-8459.7285" x2="6882.6841" y2="-8460.1406" gradientTransform="matrix(20.749 0 0 32.023 -142793.8281 270924.8125)">
			<stop  offset="0.18" style="stop-color:#0052CC"/>
			<stop  offset="1" style="stop-color:#2684FF"/>
		</linearGradient>
		<path class="st2" d="M9.5,0L0,9.5C6.2,15.7,6.2,25.8,0,32c0,0,0,0,0,0l20.7-20.7L9.5,0z"/>
	</g>
</symbol>
<use xlink:href="#C"  width="61.9" height="64" x="-30.9" y="-32" transform="matrix(1 0 0 1 30.9494 32.001)" style="overflow:visible;"/>
</svg>
