<?xml version="1.0" encoding="utf-8"?>
<!-- Generator: Adobe Illustrator 25.2.1, SVG Export Plug-In . SVG Version: 6.00 Build 0)  -->
<svg version="1.1" id="Layer_1" xmlns="http://www.w3.org/2000/svg" xmlns:xlink="http://www.w3.org/1999/xlink" x="0px" y="0px"
	 viewBox="0 0 64 61.7" style="enable-background:new 0 0 64 61.7;" xml:space="preserve">
<style type="text/css">
	.st0{fill:#0868AC;}
</style>
<symbol  id="A" viewBox="-32 -30.8 64 61.7">
	<path class="st0" d="M-27.9-16.4c-5.7,8.1-5,18.7-0.6,27.4c0.1,0.2,0.2,0.4,0.3,0.6L-28,12c0,0.1,0.1,0.2,0.1,0.2
		c0.1,0.1,0.1,0.3,0.2,0.4l0.4,0.7l0.2,0.4l0.5,0.8l0.2,0.3l0.7,1l0.1,0.2c0.2,0.3,0.4,0.6,0.6,0.8l0.2,0.3l0.6,0.7l0.2,0.3
		c0.3,0.3,0.5,0.6,0.8,0.9c0,0,0,0,0,0.1l0.8,0.9l0.3,0.3l0.7,0.6l0.3,0.3c0.3,0.3,0.6,0.6,0.9,0.8l1,0.8l0.3,0.3l0.7,0.5l0.4,0.3
		l0.8,0.6l0.4,0.3c0.2,0.2,0.5,0.3,0.7,0.5l0.3,0.2c0.4,0.2,0.8,0.5,1.2,0.7l0.3,0.2l0.9,0.5c0.2,0.1,0.3,0.2,0.5,0.2l0.6,0.3
		l0.1,0.1l0.3,0.1l1,0.5l0.2,0.1c0.4,0.2,0.8,0.3,1.2,0.5l0.3,0.1l1.1,0.4l0.1,0c0.4,0.1,0.8,0.3,1.2,0.4l0.3,0.1
		c0.4,0.1,0.8,0.3,1.3,0.4c27.4,5,35.3-16.5,35.3-16.5c-6.7,8.7-18.5,11-29.8,8.4c-0.4-0.1-0.8-0.2-1.3-0.4l-0.3-0.1
		c-0.4-0.1-0.8-0.3-1.2-0.4l-0.2-0.1l-1.1-0.4l-0.3-0.1c-0.4-0.2-0.8-0.3-1.1-0.5l-0.2-0.1l-1-0.5l-0.3-0.1
		c-0.3-0.1-0.5-0.3-0.8-0.4l-0.5-0.3c-0.3-0.2-0.6-0.3-0.9-0.5l-0.3-0.2c-0.4-0.2-0.8-0.5-1.2-0.7c-0.1-0.1-0.2-0.1-0.3-0.2
		l-0.8-0.6c-0.1-0.1-0.2-0.1-0.3-0.2l-0.8-0.6l-0.4-0.3l-0.7-0.6l-0.3-0.3l-0.9-0.7c0,0-0.1-0.1-0.1-0.1l-0.9-0.8l-0.3-0.3l-0.7-0.7
		l-0.3-0.3c-0.3-0.3-0.5-0.6-0.8-0.9c0,0,0,0,0,0c-0.3-0.3-0.6-0.6-0.8-0.9l-0.2-0.3l-0.6-0.7l-0.2-0.3L-20,7.9
		c-6.3-8.5-8.5-20.3-3.5-29.9 M-10.3-23.2c-4.1,5.9-3.9,13.8-0.7,20c0.5,1,1.1,2.1,1.8,3c0.6,0.9,1.3,1.9,2.1,2.6
		c0.3,0.3,0.6,0.6,0.9,1l0.2,0.2C-5.6,3.9-5.3,4.2-5,4.5c0,0,0,0,0,0c0.4,0.3,0.7,0.6,1.1,0.9l0.2,0.2C-3.2,6-2.9,6.2-2.5,6.5l0,0
		c0.2,0.1,0.3,0.2,0.5,0.3C-1.8,6.9-1.7,7-1.7,7c0.3,0.2,0.6,0.4,0.9,0.5l0.1,0.1L0.1,8c0.1,0,0.2,0.1,0.3,0.1l0.5,0.3
		c0,0,0.1,0,0.1,0C1.3,8.7,1.7,8.8,2,9l0.2,0.1c0.3,0.1,0.6,0.2,0.9,0.4l0.4,0.1l0.8,0.3L4.8,10c0.4,0.1,0.8,0.3,1.2,0.3
		C27.1,13.8,32-2.5,32-2.5c-4.4,6.3-12.9,9.4-22,7C9.6,4.4,9.2,4.3,8.8,4.2c-0.1,0-0.2-0.1-0.4-0.1L7.6,3.8L7.2,3.7
		C6.9,3.5,6.6,3.4,6.3,3.3L6,3.2C5.7,3,5.3,2.9,4.9,2.7L4.4,2.4L4,2.2C3.8,2.1,3.6,2,3.3,1.8L3.2,1.7C2.9,1.6,2.6,1.4,2.3,1.2
		C2.2,1.2,2.2,1.1,2.1,1.1L1.5,0.7C1.1,0.4,0.8,0.1,0.4-0.1L0.1-0.3c-4-3.1-7.1-7.4-8.6-12.3C-10.1-17.7-9.7-23.4-7-28 M4.4-28.3
		c-2.4,3.6-2.7,8-1,11.9c1.8,4.2,5.4,7.4,9.6,9l0.5,0.2l0.2,0.1L14.6-7c11.7,2.3,14.8-6,15.7-7.2c-2.8,4-7.4,5-13.2,3.6
		c-0.5-0.1-0.9-0.3-1.4-0.4c-0.6-0.2-1.1-0.4-1.6-0.7c-1-0.5-2-1.1-2.9-1.8c-5.1-3.9-8.3-11.3-5-17.3"/>
</symbol>
<use xlink:href="#A"  width="64" height="61.7" x="-32" y="-30.8" transform="matrix(1 0 0 1 31.9828 30.8289)" style="overflow:visible;"/>
</svg>
