<?xml version="1.0" encoding="utf-8"?>
<!-- Generator: Adobe Illustrator 25.2.1, SVG Export Plug-In . SVG Version: 6.00 Build 0)  -->
<svg version="1.1" id="Layer_1" xmlns="http://www.w3.org/2000/svg" xmlns:xlink="http://www.w3.org/1999/xlink" x="0px" y="0px"
	 viewBox="0 0 64 64" style="enable-background:new 0 0 64 64;" xml:space="preserve">
<style type="text/css">
	.st0{fill-rule:evenodd;clip-rule:evenodd;fill:url(#SVGID_1_);}
	.st1{fill-rule:evenodd;clip-rule:evenodd;fill:url(#SVGID_2_);}
</style>
<symbol  id="C" viewBox="-32 -32 64 64">
	<g>
		
			<linearGradient id="SVGID_1_" gradientUnits="userSpaceOnUse" x1="7110.9731" y1="-8595.8203" x2="7111.7251" y2="-8595.1152" gradientTransform="matrix(59.946 0 0 63.96 -426297.5625 549766.75)">
			<stop  offset="0" style="stop-color:#000000"/>
			<stop  offset="1" style="stop-color:#FFFFFF"/>
		</linearGradient>
		<path class="st0" d="M-0.1,15.6c14.2,19.3,28-5.4,28-20.2c0-17.6-17.8-27.4-28-27.4C-16.4-32-32-18.4-32,0.1
			C-32,20.6-14.1,32-0.1,32C-3.3,31.5-13.9,29.3-14,4.8c-0.1-16.5,5.4-23.1,13.9-20.2c0.2,0.1,9.4,3.7,9.4,15.6
			C9.3,12-0.1,15.6-0.1,15.6L-0.1,15.6z"/>
		
			<linearGradient id="SVGID_2_" gradientUnits="userSpaceOnUse" x1="7095.4971" y1="-8595.2363" x2="7094.6445" y2="-8595.9414" gradientTransform="matrix(52.888 0 0 63.9997 -375242.9062 550113)">
			<stop  offset="0" style="stop-color:#000000"/>
			<stop  offset="1" style="stop-color:#FFFFFF"/>
		</linearGradient>
		<path class="st1" d="M-0.1-15.4C-9.4-18.7-20.9-11-20.9,4.5c0,25.2,18.7,27.5,21,27.5C16.4,32,32,18.5,32,0
			C32-20.6,14.1-32,0.1-32c3.9-0.5,21,4.2,21,27.6c0,15.3-12.8,23.6-21.1,20C-0.2,15.6-9.4,12-9.4,0.1C-9.4-11.7-0.1-15.4-0.1-15.4
			L-0.1-15.4z"/>
	</g>
</symbol>
<use xlink:href="#C"  width="64" height="64" x="-32" y="-32" transform="matrix(1 0 0 1 32 31.9998)" style="overflow:visible;"/>
</svg>
