<?xml version="1.0" encoding="utf-8"?>
<!-- Generator: Adobe Illustrator 25.2.1, SVG Export Plug-In . SVG Version: 6.00 Build 0)  -->
<svg version="1.1" id="layer" xmlns="http://www.w3.org/2000/svg" xmlns:xlink="http://www.w3.org/1999/xlink" x="0px" y="0px"
	 viewBox="0 0 195.7 203.7" style="enable-background:new 0 0 195.7 203.7;" xml:space="preserve">
<style type="text/css">
	.st0{fill:#FF0046;}
</style>
<path class="st0" d="M17.6,104.6c-0.5,1.7-1.3,1.6-1.7,0l-0.8-2.9c0,0-1.1-4.2-3-9.2c-0.5-1.6-1.2-3.2-2.2-4.6
	c-1.6-1.7-4-2.3-6.2-1.6C1.7,87,0.2,88.9,0,91c-0.1,1.8,0.1,3.7,0.5,5.5c1.5,10.8,3.9,21.5,7.2,32c2.1,4.7,7.5,6.8,12.2,4.8
	c0.1-0.1,0.3-0.1,0.4-0.2c4.2-3.1,7.2-7.5,8.5-12.5c2.3-5.6,14.1-38.1,14.1-38.1c1.2-3.2,2.1-3.1,2,0.4c0,0-0.6,31.8-0.7,46.3
	c-0.2,6.8,0.5,13.6,1.9,20.3c0.9,3.5,2.9,6.6,5.7,8.9c2.8,2.1,6.3,3.1,9.8,2.7c1.7-0.3,3.4-0.8,4.9-1.7c2.2-1.3,4.1-2.9,5.6-5
	c3.4-4.6,6.3-9.5,8.7-14.6c5.7-11.2,20.4-45.8,20.4-45.8c1.3-3.2,2.3-2.9,2.2,0.5c0,0-1.8,58.2-1.9,80.4c0,5.5,1,11,3,16.2
	c1.8,4.9,5.4,8.9,10.1,11.1c5.2,2.3,11.1,1.9,16-0.9c3.7-2.3,6.7-5.4,8.8-9.2c3-5.1,5.5-10.5,7.5-16c4.4-11.4,8.1-23.2,11.7-34.9
	c3.6-11.7,34.7-122.8,36.7-132.3c0.3-1.1,0.4-2.2,0.3-3.2c-0.3-2.2-1.6-4.1-3.6-5.1c-3.4-1.6-7.5-0.1-9.2,3.3
	c-1.7,3.5-44.2,106.5-44.2,106.5c-1.3,3.2-2.4,3-2.4-0.5c0,0,0.1-35.8,0.3-65.5c0.1-16.1-7.8-25.1-18.9-26.9
	c-5.1-0.8-10.4,0.4-14.7,3.3c-4.5,3.2-8.1,7.4-10.5,12.4c-3.4,6.5-24.2,67.3-24.2,67.3c-1.1,3.2-2.1,3.1-2.2-0.3
	c0,0-0.6-26.1-1.2-32.3c-0.9-9.4-3.1-25-15.3-25.8C38,41.4,32.9,55.5,29.9,64.3c-1.9,5.8-11.6,37.3-11.6,37.3L17.6,104.6"/>
</svg>
