<svg id="Layer_1" data-name="Layer 1" xmlns="http://www.w3.org/2000/svg" viewBox="0 0 148.22124 129.16231"><defs><style>.cls-1{fill:#267caf;}.cls-2{fill:#4891bb;}</style></defs><path class="cls-1" d="M147.54944,56.09927a74.28064,74.28064,0,0,1-7.54269,43.68628,71.06881,71.06881,0,0,1-9.25715,13.886c-3.43011,4.01656-8.47525,10.36437-14.50233,7.08212-4.27164-2.32671,2.52408-13.70529,3.21814-16.60253,3.4764-8.41409,5.683-14.97728,5.4264-25.36409,0-4.5-1.496-8.90234-6.62668-10.0068-5.39133-1.16058-7.93928,4.4512-9.89689,8.41938-3.27249,6.63355-4.99537,13.63964-7.02693,20.69819-2.18219,7.5819-4.27789,15.19056-6.1308,22.86034-1.01294,4.19514-2.1969,7.21582-6.60814,8.1832H84.60288c-1.86452,0-3.85093-.00449-5.76145.04444-1.73833.04452-3.79415.45634-5.46719-.15666-2.63007-.96365-2.97073-4.43589-3.06163-6.76249-.38139-9.76165-.70891-19.55592-1.8516-29.244-.54205-4.59561-2.9542-9.614-8.54381-9.55827-5.26552.05252-7.622,4.85072-8.26724,9.3056a169.09138,169.09138,0,0,0-2.0932,25.67831c.04854,5.25114-.1261,9.22693-5.94876,10.693H28.60988c-2.55951-1.69686-4.99356-2.76266-5.87211-6.72812-3.97984-17.96353-8.68388-35.76691-13.1701-53.61716a26.24991,26.24991,0,0,0-1.92344-3.84874L5.73018,86.2138q-.58031.12762-1.16063.25521C-.8955,70.45716-1.9696,53.93678,4.16616,37.93968A60.97739,60.97739,0,0,1,29.80882,7.33939a64.4092,64.4092,0,0,1,6.54025-3.39653c13.31264-5.983,27.5331-4.60993,40.79736.46226a75.91763,75.91763,0,0,1,17.00393,9.10843c4.378,3.12706,8.43828,6.69891,12.37677,9.857-5.63729,5.20277-10.665,9.77-15.58561,14.4498A6.22734,6.22734,0,0,0,88.9457,41.136c-.49862,4.16026,6.72991,12.51871,11.239,13.39668-1.90472-2.97347-3.8441-6.0085-5.79129-9.03851-1.60153-2.49215-1.07306-4.47744.96474-6.617a93.03982,93.03982,0,0,1,26.58463-19.92987c3.35324-1.63764,5.70207-1.34048,8.33337,1.36015A63.38325,63.38325,0,0,1,147.54944,56.09927Z"/><path class="cls-2" d="M77.60375,128.94134h0Z"/></svg>