<?xml version="1.0" encoding="utf-8"?>
<!-- Generator: Adobe Illustrator 25.2.1, SVG Export Plug-In . SVG Version: 6.00 Build 0)  -->
<svg version="1.1" id="Layer_1" xmlns="http://www.w3.org/2000/svg" xmlns:xlink="http://www.w3.org/1999/xlink" x="0px" y="0px"
	 viewBox="0 0 64 62.4" style="enable-background:new 0 0 64 62.4;" xml:space="preserve">
<style type="text/css">
	.st0{fill-rule:evenodd;clip-rule:evenodd;fill:#00678C;}
</style>
<symbol  id="A" viewBox="-32 -31.2 64 62.4">
	<path class="st0" d="M26.9,17.1c-3.5-0.1-6.2,0.3-8.4,1.2c-0.7,0.3-1.7,0.3-1.8,1.1c0.3,0.3,0.4,0.9,0.7,1.4c0.5,0.9,1.4,2,2.3,2.6
		l2.8,2c1.7,1,3.6,1.6,5.3,2.7c1,0.6,1.9,1.4,2.9,2c0.5,0.3,0.8,0.9,1.4,1.1v-0.1c-0.3-0.4-0.4-1-0.7-1.4L30,28.5
		c-1.3-1.7-2.8-3.2-4.5-4.4c-1.4-1-4.4-2.2-5-3.8l-0.1-0.1c1-0.1,2.1-0.4,3-0.7c1.5-0.4,2.8-0.3,4.3-0.7l2.1-0.6v-0.4
		c-0.8-0.8-1.3-1.8-2.2-2.5c-2.2-1.9-4.7-3.8-7.2-5.3c-1.3-0.9-3.1-1.4-4.5-2.2c-0.5-0.3-1.4-0.4-1.7-0.8c-0.8-1-1.2-2.2-1.8-3.3
		L8.9-4C8.1-5.6,7.6-7.3,6.7-8.9c-4.5-7.4-9.4-11.8-16.8-16.2c-1.6-0.9-3.5-1.3-5.6-1.8L-19-27c-0.7-0.3-1.4-1.1-2-1.5
		c-2.5-1.6-8.9-4.9-10.7-0.5c-1.2,2.8,1.7,5.6,2.7,7c0.7,1,1.7,2.1,2.2,3.2c0.3,0.7,0.4,1.5,0.7,2.3l2.3,5.8l1.6,2.7
		c0.4,0.5,1,0.7,1.1,1.5c-0.6,0.9-0.6,2.2-1,3.2c-1.6,4.9-1,10.9,1.3,14.5c0.7,1.1,2.3,3.5,4.6,2.5c2-0.8,1.5-3.2,2.1-5.4
		c0.1-0.5,0-0.9,0.3-1.2v0.1l1.8,3.6c1.4,2.1,3.7,4.3,5.7,5.8c1,0.8,1.9,2.1,3.2,2.6v-0.1h-0.1c-0.3-0.4-0.6-0.6-1-0.9
		c-0.8-0.8-1.6-1.7-2.3-2.6c-1.8-2.4-3.4-5.1-4.9-7.9c-0.7-1.3-1.3-2.8-1.9-4.2c-0.3-0.5-0.3-1.3-0.7-1.6c-0.6,1-1.6,1.8-2.1,2.9
		c-0.8,1.9-0.9,4.2-1.2,6.5c-0.2,0-0.1,0-0.2,0.1c-1.4-0.3-1.9-1.8-2.4-3c-1.3-3.1-1.5-8-0.4-11.5c0.3-0.9,1.6-3.8,1.1-4.6
		c-0.3-0.8-1.1-1.3-1.6-2c-0.6-0.9-1.1-1.8-1.6-2.8c-1-2.4-1.6-5.1-2.7-7.5c-0.5-1.1-1.4-2.3-2.2-3.3c-0.8-1.2-1.7-2-2.4-3.4
		c-0.2-0.5-0.5-1.3-0.2-1.8c0.1-0.3,0.3-0.5,0.6-0.6c0.6-0.5,2.2,0.1,2.7,0.4c1.6,0.6,3,1.3,4.3,2.2c0.6,0.4,1.3,1.3,2,1.5h0.9
		c1.4,0.3,3,0.1,4.3,0.5c2.3,0.7,4.4,1.8,6.3,3C-3-17.6,1.7-12.5,4.9-6.4c0.5,1,0.7,1.9,1.2,2.9l3,6.4c0.9,2,1.8,4.1,3.1,5.8
		c0.7,0.9,3.3,1.4,4.4,1.9c0.9,0.4,2.2,0.7,3,1.2l4.3,2.9C24.6,15.2,26.8,16.3,26.9,17.1L26.9,17.1z M-17.4-20.5
		c-0.6,0-1.2,0.1-1.8,0.2v0.1h0.1c0.4,0.7,1,1.2,1.4,1.8l1,2.1l0.1-0.1c0.6-0.4,0.9-1.1,0.9-2.2c-0.3-0.3-0.3-0.6-0.5-0.9
		C-16.5-20-17.1-20.2-17.4-20.5L-17.4-20.5z"/>
</symbol>
<use xlink:href="#A"  width="64" height="62.4" x="-32" y="-31.2" transform="matrix(1 0 0 1 31.9938 31.2221)" style="overflow:visible;"/>
</svg>
