<?xml version="1.0" encoding="utf-8"?>
<!-- Generator: Adobe Illustrator 25.2.1, SVG Export Plug-In . SVG Version: 6.00 Build 0)  -->
<svg version="1.1" id="Layer_1" xmlns="http://www.w3.org/2000/svg" xmlns:xlink="http://www.w3.org/1999/xlink" x="0px" y="0px"
	 viewBox="0 0 57.9 63.7" style="enable-background:new 0 0 57.9 63.7;" xml:space="preserve">
<style type="text/css">
	.st0{fill:#8CC84B;}
</style>
<symbol  id="A" viewBox="-28.9 -31.9 57.9 63.7">
	<path class="st0" d="M-2.6-31.2c1.6-0.9,3.6-0.9,5.2,0l23.9,13.5c1.5,0.8,2.5,2.5,2.5,4.2v27c0,1.8-1.1,3.5-2.7,4.3L2.5,31.2
		c-1.7,0.9-3.7,0.9-5.3-0.1L-9.9,27c-0.5-0.3-1-0.5-1.4-1c0.3-0.4,0.8-0.5,1.3-0.6c1-0.3,1.9-0.8,2.8-1.3c0.2-0.2,0.5-0.1,0.7,0
		l6.1,3.5c0.4,0.2,0.9-0.1,1.2-0.3l23.3-13.2c0.3-0.1,0.4-0.4,0.4-0.8v-26.7c0-0.4-0.2-0.7-0.5-0.8L0.5-27.6c-0.3-0.2-0.6-0.2-0.9,0
		l-23.7,13.4c-0.3,0.1-0.5,0.5-0.5,0.8v26.7c0,0.3,0.1,0.6,0.4,0.8l6.3,3.6c1.2,0.6,2.6,1,4,0.5c1.2-0.4,1.9-1.6,1.9-2.8l0-26.6
		c0-0.4,0.3-0.7,0.7-0.7h3c0.4,0,0.7,0.4,0.7,0.8l0,26.8c0,2.4-1,5-3.2,6.1c-2.7,1.4-6.1,1.1-8.7-0.2l-6.8-3.8
		c-1.6-0.8-2.6-2.5-2.7-4.3v-27c0-1.8,1-3.4,2.6-4.3L-2.6-31.2z M4.3-12.5c3.5-0.2,7.2-0.1,10.3,1.6c2.4,1.3,3.7,4,3.8,6.7
		c-0.1,0.4-0.4,0.6-0.8,0.5c-1,0-2,0-3,0c-0.4,0-0.7-0.4-0.7-0.8c-0.3-1.3-1-2.5-2.2-3.2c-1.8-0.9-4-0.9-6-0.9
		C4.1-8.4,2.5-8.2,1.3-7.4c-1,0.7-1.2,2-0.9,3c0.3,0.8,1.2,1,1.9,1.2C6.5-2,10.9-2.1,15-0.7c1.7,0.6,3.3,1.7,3.9,3.5
		c0.8,2.4,0.4,5.2-1.3,7.1c-1.4,1.6-3.4,2.4-5.3,2.9c-2.6,0.6-5.4,0.6-8.1,0.3c-2.5-0.3-5.2-1-7.1-2.7C-4.6,9-5.4,6.8-5.3,4.6
		C-5.3,4.2-4.9,4-4.6,4h3c0.4,0,0.7,0.3,0.7,0.7c0.2,1.2,0.6,2.5,1.7,3.2c2.1,1.3,4.6,1.2,7,1.3c1.9-0.1,4.1-0.1,5.7-1.4
		c0.8-0.7,1.1-2,0.9-3c-0.2-0.9-1.2-1.3-2-1.6C8.3,1.9,3.9,2.3-0.2,0.9c-1.7-0.6-3.2-1.7-3.9-3.4C-5-4.9-4.6-7.9-2.7-9.7
		C-0.9-11.6,1.7-12.3,4.3-12.5L4.3-12.5z"/>
</symbol>
<use xlink:href="#A"  width="57.9" height="63.7" x="-28.9" y="-31.9" transform="matrix(1 0 0 1 28.9441 31.8739)" style="overflow:visible;"/>
</svg>
