<?xml version="1.0" encoding="utf-8"?>
<!-- Generator: Adobe Illustrator 25.2.1, SVG Export Plug-In . SVG Version: 6.00 Build 0)  -->
<svg version="1.1" id="Layer_1" xmlns="http://www.w3.org/2000/svg" xmlns:xlink="http://www.w3.org/1999/xlink" x="0px" y="0px"
	 viewBox="0 0 26.5 64" style="enable-background:new 0 0 26.5 64;" xml:space="preserve">
<style type="text/css">
	.st0{fill:#010101;}
	.st1{fill:#F0D202;}
	.st2{fill:#F0D203;}
	.st3{fill:#020202;}
</style>
<symbol  id="A" viewBox="-13.3 -32 26.5 64">
	<g>
		<path class="st0" d="M-0.9,11.1h-10.2c-0.1,0-0.3,0-0.4,0s-0.2-0.1-0.4-0.1l-0.2-0.2c-0.2-0.2-0.3-0.4-0.4-0.6
			c0-0.2-0.1-0.3-0.2-0.5c-0.1-0.1-0.1-0.3-0.1-0.5c0,0,0-0.1-0.1-0.2c0-0.2,0-0.3-0.1-0.5V8.1L-13,8V7.4l-0.1-0.1V6.3l-0.1-0.1V4.7
			l-0.1-0.1v-9.2l0.1-0.1v-1.6l0.1-0.1v-0.9l0.1-0.1V-8c0.1-0.2,0.1-0.4,0.1-0.6l0.1-0.1v-0.4c0.1-0.1,0.1-0.3,0.1-0.4
			c0.1-0.1,0.1-0.3,0.1-0.4c0-0.1,0.1-0.3,0.2-0.4c0.1-0.3,0.3-0.5,0.6-0.6l0.5-0.1H0c0.1,0.1,0.2,0.2,0.2,0.3
			c0,0.1,0.1,0.2,0.1,0.3c0.1,0.2,0.2,0.5,0.3,0.7c0,0.2,0.2,0.4,0.2,0.7C0.9-9,0.9-9,1-8.9c0.1,0.1,0.1,0.3,0.2,0.4
			c0,0.1,0.1,0.2,0.2,0.4c0,0.1,0.1,0.2,0.1,0.2s0.1,0.2,0.1,0.3c0,0.1,0.1,0.2,0.1,0.3C1.8-7.2,1.8-7,1.9-6.7
			C2-6.5,2.1-6.3,2.2-6.2c0,0.1,0,0.2,0.1,0.3l0.1,0.2c0,0.1,0.1,0.2,0.1,0.3C2.6-5.3,2.6-5.1,2.7-5c0.1,0.1,0.2,0.3,0.2,0.5
			c0,0.1,0.2,0.3,0.2,0.4s0.1,0.3,0.2,0.4s0.1,0.3,0.2,0.4C3.4-3.2,3.5-3,3.5-2.9c0,0.1,0.2,0.2,0.2,0.4C3.8-2.4,3.8-2.2,3.9-2
			c0,0.2,0.2,0.3,0.2,0.5S4.3-1.2,4.3-1l0.1,0.4v0.1c0,0,0,0-0.1,0h-5C-0.8-0.8-0.8-1.1-1-1.4C-1-1.5-1-1.6-1.1-1.7
			c0-0.1,0-0.2-0.1-0.3c-0.1-0.2-0.2-0.5-0.3-0.7c0-0.3-0.2-0.5-0.3-0.7C-1.9-3.6-2-3.8-2.1-4c-0.1-0.1-0.1-0.3-0.2-0.4
			c-0.1-0.2-0.1-0.3-0.2-0.5c-0.1-0.1-0.1-0.3-0.2-0.4C-2.7-5.6-2.9-5.9-3-6.2c0-0.1-0.1-0.1-0.1-0.2h-1.1c-0.1,0-0.1,0.1,0,0.2
			C-4.1-6-4-5.7-3.9-5.5C-3.8-5.3-3.7-5-3.6-4.8c0,0.1,0.1,0.2,0.1,0.3c0,0.1,0.1,0.2,0.1,0.3c0,0.1,0.1,0.2,0.1,0.3
			c0.1,0.1,0,0.2,0.1,0.3C-3-3.5-3-3.4-3-3.3c0,0.1,0.1,0.2,0.1,0.3c0,0.1,0.1,0.2,0.1,0.3c0,0.1,0.1,0.2,0.1,0.3
			c0.1,0.1,0,0.2,0.1,0.3s0.1,0.2,0.1,0.3c0,0.2,0.1,0.3,0.2,0.5c0,0.2,0.1,0.3,0.2,0.5c0,0.1,0,0.1,0,0.2c0,0,0,0,0,0h-3.9
			c-0.1,0,0,0.1,0,0.1C-5.7-0.3-5.7-0.1-5.6,0c0,0.2,0.2,0.3,0.2,0.4c0,0.1,0,0.1,0.1,0.2c0.1,0.2,0.2,0.4,0.3,0.6
			C-5,1.5-4.9,1.7-4.8,1.9c0,0.1,0.1,0.2,0.1,0.3c0.1,0.1,0.1,0.2,0.1,0.4c0,0.1,0.1,0.2,0.2,0.3C-4.3,3-4.3,3.1-4.2,3.3
			c0.1,0.1,0.1,0.3,0.2,0.4C-4,3.8-3.9,3.9-3.9,4.1c0.1,0.2,0.2,0.4,0.3,0.6l0.2,0.4c0.1,0.2,0.1,0.3,0.2,0.5c0,0.1,0.2,0.3,0.2,0.4
			s0.1,0.3,0.2,0.5s0.2,0.4,0.2,0.5s0.2,0.3,0.2,0.5s0.1,0.3,0.2,0.5S-2,8.5-2,8.6S-1.8,9-1.7,9.1s0.1,0.3,0.2,0.5s0.2,0.3,0.2,0.5
			c0.1,0.2,0.1,0.3,0.2,0.5C-1.1,10.8-1,10.9-0.9,11.1L-0.9,11.1z"/>
		<path class="st1" d="M7.8,31.8H7.6c0,0,0-0.1-0.1-0.1C7.4,31.5,7.2,31.3,7,31c-0.1-0.1-0.2-0.2-0.3-0.3s-0.2-0.2-0.2-0.3
			c-0.1-0.1-0.2-0.2-0.3-0.3c0-0.1-0.1-0.1-0.1-0.1S6,29.8,5.9,29.7c0-0.1-0.1-0.2-0.2-0.2c-0.1-0.1-0.2-0.1-0.2-0.3
			c0,0-0.1-0.1-0.1-0.1l-0.4-0.5c-0.1-0.2-0.3-0.3-0.4-0.5c-0.1-0.2-0.2-0.3-0.4-0.4c-0.1-0.1-0.1-0.2-0.2-0.3
			c-0.1-0.1-0.2-0.2-0.2-0.3c0-0.1-0.1-0.2-0.2-0.2s-0.1-0.2-0.2-0.2L3,26c-0.1-0.1-0.1-0.2-0.2-0.3c-0.1-0.1-0.2-0.2-0.3-0.3
			c-0.1-0.1-0.2-0.2-0.3-0.3c-0.1-0.2-0.2-0.3-0.3-0.4c-0.1-0.1-0.2-0.3-0.3-0.4c-0.1-0.1-0.1-0.2-0.2-0.3c-0.1-0.1-0.2-0.2-0.2-0.3
			c0,0-0.1-0.1-0.1-0.1c-0.1-0.1-0.2-0.3-0.3-0.4c-0.1-0.1-0.2-0.2-0.3-0.4c0-0.1-0.1-0.2-0.2-0.2s-0.1-0.2-0.2-0.2l-0.5-0.6
			c-0.1-0.1-0.1-0.2-0.2-0.3c-0.1-0.1-0.2-0.2-0.3-0.3C-1,21-1.1,21-1.2,20.9c-0.1-0.2-0.2-0.3-0.3-0.4c-0.1-0.1-0.2-0.3-0.3-0.4
			C-1.9,20-1.9,19.9-2,19.8c-0.1-0.1-0.2-0.2-0.2-0.3c0,0-0.1-0.1-0.1-0.1c-0.1-0.1-0.2-0.3-0.3-0.4c-0.1-0.1-0.2-0.2-0.3-0.4
			c0-0.1-0.1-0.2-0.2-0.2s-0.1-0.2-0.2-0.2l-0.5-0.6c-0.1-0.1-0.1-0.2-0.2-0.3c-0.1-0.1-0.2-0.2-0.3-0.3c-0.1-0.1-0.2-0.2-0.3-0.3
			c-0.1-0.1-0.1-0.2-0.2-0.3c-0.1-0.1-0.1-0.2-0.2-0.2C-5,16.1-5.1,16-5.2,15.9c-0.1-0.1-0.1-0.2-0.2-0.3s-0.2-0.2-0.3-0.3
			c-0.1-0.1-0.2-0.2-0.3-0.3c-0.1-0.2-0.2-0.3-0.3-0.4c-0.1-0.1-0.2-0.3-0.3-0.4c-0.1-0.1-0.1-0.2-0.2-0.3c-0.1-0.1-0.2-0.2-0.2-0.3
			c-0.1-0.1-0.2-0.2-0.2-0.3c-0.1-0.1-0.2-0.3-0.3-0.4l-0.6-0.8c0,0,0,0,0,0c0,0,0,0,0,0h8.7l0.1,0c0,0,0-0.1,0-0.1
			c-0.1-0.2-0.2-0.3-0.2-0.5c0-0.2-0.2-0.3-0.2-0.5c0-0.1-0.1-0.1-0.1-0.2c-0.1-0.1-0.1-0.2-0.1-0.3c0-0.1-0.1-0.2-0.2-0.3
			c-0.1-0.1-0.1-0.2-0.1-0.3s-0.1-0.2-0.1-0.3c0,0,0,0,0-0.1C-0.4,9.3-0.5,9.2-0.6,9s-0.2-0.3-0.2-0.5S-0.9,8.2-1,8.1
			C-1,7.9-1.1,7.7-1.2,7.6c0-0.1-0.1-0.2-0.1-0.3S-1.4,7-1.5,6.9s-0.1-0.2-0.1-0.3c-0.1-0.2-0.2-0.4-0.2-0.6S-2,5.7-2.1,5.5
			l-0.2-0.4l-0.1-0.4c-0.1-0.1-0.1-0.3-0.2-0.4c0,0-0.1-0.1-0.1-0.1c0-0.2-0.2-0.3-0.2-0.4s-0.2-0.3-0.2-0.4c0,0,0,0,0,0
			C-3,3.2-3.1,3.1-3.2,2.9c0-0.2-0.2-0.3-0.2-0.4c-0.1-0.1,0-0.2-0.1-0.3C-3.5,2.1-3.5,2-3.6,1.9c0-0.1-0.1-0.2-0.1-0.3
			s-0.1-0.2-0.1-0.2c0-0.2-0.1-0.3-0.2-0.5c0,0-0.1-0.1-0.1-0.1c0-0.1-0.1-0.2-0.1-0.3c0,0,0,0,0,0c0.3,0,2,0,2.8,0
			c0,0.1,0.1,0.2,0.1,0.3c0,0.1,0.1,0.2,0.1,0.3C-1,1.2-0.9,1.3-1,1.4C-0.9,1.6-0.8,1.8-0.7,2c0.1,0.2,0.1,0.4,0.2,0.6
			C-0.4,2.7-0.4,2.8-0.3,3c0.1,0.1,0.2,0.2,0.2,0.4C-0.1,3.5,0,3.7,0.1,3.9c0,0.2,0.2,0.3,0.2,0.5c0.1,0.2,0.1,0.3,0.2,0.5
			s0.1,0.4,0.2,0.5c0,0.2,0.2,0.4,0.2,0.5C1,6,1,6.2,1.1,6.4c0.1,0.1,0.1,0.3,0.2,0.4S1.4,7,1.4,7.1c0.1,0.1,0.1,0.3,0.2,0.4
			c0,0.1,0.2,0.3,0.2,0.4S2,8.3,2,8.5s0.2,0.3,0.2,0.5s0.2,0.4,0.2,0.6c0.1,0.2,0.2,0.4,0.2,0.6c0,0.1,0,0.1,0.1,0.2
			c0.1,0.1,0.1,0.3,0.2,0.5C3,10.8,3.1,11,3.1,11.1c0,0.2,0.2,0.3,0.2,0.5l0.3,0.6H7c0.1,0.1,0,0.2,0.1,0.3c0,0.1,0.1,0.1,0.1,0.2
			c0,0.1,0.1,0.1,0.1,0.2c0,0.1,0.1,0.2,0.1,0.3c0.1,0.1,0.1,0.1,0.1,0.2c0,0,0,0,0,0.1c0,0.2,0.2,0.3,0.2,0.5s0.2,0.3,0.2,0.5
			s0.2,0.3,0.2,0.5s0.2,0.3,0.2,0.5c0,0.2,0.1,0.3,0.2,0.5c0,0.2,0.1,0.3,0.2,0.5c0.1,0.1,0,0.2,0.1,0.3s0.1,0.2,0.1,0.3
			s0,0.2,0.1,0.3c0,0.1,0.1,0.2,0.1,0.3l0.2,0.5V18c0,0,0,0-0.1,0H2.1c0,0-0.1,0-0.1,0.1s0,0.1,0,0.1c0.1,0.1,0.1,0.3,0.2,0.4
			c0.1,0.1,0.1,0.3,0.2,0.4c0.1,0.1,0.1,0.3,0.2,0.4c0.1,0.1,0.1,0.3,0.2,0.4c0,0.1,0.1,0.3,0.2,0.4l0.1,0.4
			c0.1,0.1,0.1,0.3,0.2,0.4c0,0,0.1,0.1,0.1,0.1c0,0.2,0.2,0.3,0.2,0.4s0.2,0.3,0.2,0.4c0,0,0,0,0,0c0.1,0.1,0.2,0.3,0.2,0.5
			S4,22.7,4,22.9c0.1,0.1,0,0.2,0.1,0.3c0.1,0.1,0.1,0.2,0.1,0.2c0,0.1,0.1,0.2,0.1,0.3s0.1,0.2,0.1,0.2c0,0.2,0.1,0.3,0.2,0.5
			c0,0.1,0.1,0.3,0.2,0.4c0.1,0.1,0.1,0.3,0.2,0.4c0.1,0.1,0.1,0.3,0.2,0.4c0,0.1,0.2,0.3,0.2,0.4s0.1,0.3,0.2,0.5s0.2,0.3,0.2,0.5
			c0,0.2,0.1,0.3,0.2,0.5s0.1,0.4,0.2,0.5c0,0.2,0.1,0.4,0.2,0.5c0.1,0.2,0.1,0.4,0.2,0.5c0.1,0.1,0,0.2,0.1,0.3
			c0.1,0.1,0.1,0.2,0.1,0.3c0,0.1,0.1,0.2,0.1,0.3s0.1,0.2,0.1,0.3c0,0,0,0,0,0.1c0.1,0.2,0.1,0.3,0.2,0.5c0,0.2,0.1,0.3,0.2,0.5
			c0,0.1,0.1,0.2,0.2,0.3C7.7,31.6,7.7,31.7,7.8,31.8L7.8,31.8z"/>
		<path class="st2" d="M-10.3-31.9L-10.3-31.9c0.2,0.1,0.2,0.3,0.3,0.4s0.2,0.2,0.2,0.3c0,0,0.1,0.1,0.1,0.1
			c0.1,0.1,0.2,0.2,0.3,0.4c0.1,0.1,0.2,0.2,0.3,0.3c0,0,0,0,0.1,0.1c0.1,0.1,0.3,0.3,0.4,0.4c0.1,0.2,0.3,0.3,0.3,0.4
			c0.2,0.2,0.3,0.4,0.5,0.6c0.1,0.1,0.2,0.2,0.2,0.3c0.1,0.1,0.2,0.1,0.2,0.3c0,0,0.1,0.1,0.1,0.1c0.1,0.1,0.3,0.3,0.4,0.4
			c0.1,0.1,0.3,0.2,0.3,0.4c0.2,0.2,0.3,0.4,0.5,0.6c0.1,0.1,0.2,0.2,0.2,0.3c0.1,0.1,0.2,0.2,0.2,0.3c0,0,0,0,0.1,0.1
			c0.1,0.1,0.3,0.3,0.4,0.4c0.1,0.2,0.3,0.3,0.3,0.4c0.2,0.2,0.3,0.4,0.5,0.6c0.1,0.1,0.2,0.2,0.2,0.3c0.1,0.1,0.2,0.1,0.2,0.3
			c0,0,0.1,0.1,0.1,0.1c0.1,0.1,0.3,0.3,0.4,0.4c0.1,0.1,0.3,0.2,0.3,0.4c0.2,0.2,0.3,0.4,0.5,0.6l0.2,0.3c0.1,0.1,0.2,0.2,0.2,0.3
			c0,0,0,0,0.1,0.1c0.1,0.1,0.3,0.3,0.4,0.4c0.1,0.2,0.3,0.3,0.3,0.4c0.2,0.2,0.3,0.4,0.5,0.6c0.1,0.1,0.2,0.2,0.2,0.3
			c0.1,0.1,0.2,0.1,0.2,0.3c0,0,0.1,0.1,0.1,0.1c0.1,0.1,0.3,0.3,0.4,0.4c0.1,0.1,0.3,0.2,0.3,0.4c0.2,0.2,0.3,0.4,0.5,0.6l0.2,0.2
			C1-18,1.1-18,1.1-17.8c0,0,0,0,0.1,0.1c0.1,0.1,0.2,0.3,0.4,0.4c0.1,0.2,0.3,0.3,0.3,0.4c0.2,0.2,0.3,0.4,0.5,0.6
			c0.1,0.1,0.2,0.2,0.2,0.3c0.1,0.1,0.2,0.1,0.2,0.3c0,0,0.1,0.1,0.1,0.1c0.1,0.1,0.2,0.3,0.3,0.4c0.1,0.1,0.3,0.2,0.3,0.4
			c0.2,0.2,0.3,0.4,0.5,0.6c0.1,0.1,0.2,0.2,0.3,0.4s0.2,0.2,0.3,0.3C4.7-13.3,4.9-13.1,5-13c0.2,0.2,0.3,0.4,0.5,0.5
			c0.1,0.1,0.1,0.2,0.1,0.2c0,0-0.1,0-0.1,0H-9.4c-0.2-0.1-0.3-0.3-0.3-0.5c0-0.1-0.1-0.2-0.1-0.3c0-0.1,0-0.2-0.1-0.3
			c0-0.2-0.2-0.3-0.2-0.4s-0.1-0.3-0.2-0.5c0-0.2-0.2-0.3-0.2-0.4c-0.1-0.2-0.1-0.3-0.2-0.5c0-0.2-0.1-0.3-0.2-0.5
			c0-0.1-0.1-0.3-0.1-0.4c-0.1-0.1-0.1-0.3-0.2-0.4c0-0.1-0.1-0.2-0.2-0.3c-0.1-0.1,0-0.2-0.1-0.3c-0.1-0.1-0.1-0.2-0.1-0.3
			c0-0.1,0-0.2-0.1-0.2c0-0.1-0.1-0.2-0.1-0.2c0-0.1-0.1-0.3-0.2-0.4c0,0,0-0.1,0-0.1c0,0,0-0.1,0-0.1h7.4c0-0.1,0-0.1,0-0.1
			c-0.1-0.1-0.1-0.3-0.2-0.5c-0.1-0.1-0.2-0.3-0.2-0.5c0,0-0.1-0.1-0.1-0.1c-0.1-0.1-0.2-0.3-0.2-0.4c-0.1-0.1-0.2-0.2-0.2-0.4
			c0,0,0,0,0-0.1c-0.1-0.2-0.2-0.3-0.2-0.5s-0.2-0.3-0.2-0.5s-0.1-0.3-0.2-0.4l-0.1-0.4c-0.1-0.1-0.1-0.3-0.2-0.4c0,0,0-0.1-0.1-0.1
			c-0.1-0.1-0.1-0.2-0.1-0.3c0-0.1,0-0.2-0.1-0.3s-0.1-0.2-0.1-0.3c0,0,0,0,0-0.1c0-0.2-0.2-0.3-0.2-0.5s-0.2-0.3-0.2-0.5
			s-0.2-0.3-0.2-0.5c0-0.2-0.2-0.3-0.2-0.5c0-0.2-0.1-0.3-0.2-0.5c-0.1-0.1-0.1-0.3-0.2-0.4c-0.1-0.1-0.1-0.3-0.2-0.4
			c-0.1-0.1-0.1-0.3-0.2-0.4c0-0.1-0.2-0.3-0.2-0.4c0-0.1-0.1-0.3-0.2-0.5s-0.1-0.3-0.2-0.5l-0.1-0.3C-9-28.7-9-28.8-9-28.9
			c0-0.1-0.1-0.2-0.1-0.3c-0.1-0.2-0.1-0.4-0.2-0.5c-0.1-0.2-0.1-0.4-0.2-0.5c-0.1-0.1,0-0.2-0.1-0.3c-0.1-0.1-0.1-0.2-0.1-0.3
			c0-0.1-0.1-0.2-0.1-0.3s-0.1-0.2-0.1-0.3c0-0.1,0-0.2-0.1-0.2C-10.3-31.8-10.2-31.9-10.3-31.9L-10.3-31.9z"/>
		<path class="st0" d="M13.3,4.1l-0.1,0.1v0.4c-0.1,0.1-0.1,0.2-0.1,0.4s-0.1,0.2-0.2,0.3l0,0H1.9C1.8,5.2,1.8,5,1.7,4.9
			c0-0.2-0.1-0.3-0.2-0.4c0-0.1-0.1-0.3-0.2-0.4C1.2,3.9,1.2,3.6,1.1,3.4c0-0.3-0.2-0.4-0.2-0.7C0.7,2.5,0.6,2.3,0.5,2.1L0.3,1.7
			C0.2,1.5,0.2,1.4,0.1,1.2C0.1,1.1,0,0.9-0.1,0.8c0-0.1,0-0.1,0-0.2c0.2,0,0.3,0,0.5,0h12.3l0.2,0.2C13,0.8,13,0.9,13,1
			s0,0.2,0.1,0.3s0.1,0.1,0.1,0.2c0,0.1,0,0.2,0,0.3l0.1,0.1L13.3,4.1z"/>
		<path class="st3" d="M3.3-6.4C3.2-6.5,3.1-6.6,3.1-6.8c0-0.2-0.1-0.3-0.2-0.4C2.8-7.3,2.8-7.5,2.8-7.6L2.5-8.3L2.2-8.8L2.1-9.2
			C2-9.4,2-9.5,1.9-9.6C1.8-9.8,1.8-9.9,1.8-10c0-0.1-0.1-0.2-0.2-0.4c0-0.1-0.1-0.3-0.2-0.4c0-0.1,0-0.2,0-0.3c0,0,0,0,0,0h10.4
			c0.1,0.1,0.2,0.2,0.3,0.4c0.1,0.2,0.1,0.3,0.1,0.5c0,0.2,0.1,0.3,0.1,0.5c0,0.1,0,0.3,0,0.4v1.8c0,0.1-0.1,0.2-0.1,0.2
			c0,0.2-0.1,0.3-0.1,0.5c-0.1,0.1-0.1,0.3-0.3,0.4L3.3-6.4z"/>
		<path class="st0" d="M11.8,6.4L12,6.5c0.1,0.1,0.1,0.3,0.2,0.4c0,0.1,0.1,0.3,0.1,0.4c0,0.2,0.1,0.3,0.1,0.5v2.1
			c0,0.1-0.1,0.2-0.1,0.3c0,0.1,0,0.2-0.1,0.3c0,0.2-0.1,0.5-0.3,0.6H4.3c-0.1-0.2-0.2-0.3-0.3-0.5C4,10.3,3.9,10.1,3.8,10
			c0-0.2-0.2-0.3-0.2-0.6C3.5,9.1,3.4,8.9,3.3,8.6C3.2,8.5,3.1,8.3,3.1,8.2c0-0.1-0.1-0.2-0.2-0.4S2.8,7.5,2.8,7.3
			C2.7,7.2,2.6,7,2.6,6.9c0-0.1-0.1-0.3-0.2-0.4c0,0,0-0.1,0-0.1c0,0,0.1,0,0.1,0L11.8,6.4z"/>
		<path class="st3" d="M5.7-0.6c0-0.1-0.1-0.3-0.2-0.4C5.4-1.1,5.4-1.3,5.3-1.4S5.2-1.7,5.2-1.9C5.1-2,5-2.2,5-2.3
			c0-0.1-0.2-0.3-0.2-0.4S4.7-3,4.6-3.2S4.5-3.5,4.4-3.6c0-0.1-0.1-0.2-0.1-0.4C4.2-4.1,4.2-4.2,4.1-4.4C4.1-4.5,4-4.6,4-4.7
			c0-0.1-0.1-0.2-0.2-0.4c0,0,0-0.1,0-0.1c0,0,0,0,0.1,0h8.8C12.9-5.2,13-5,13.1-4.8c0,0.2,0.1,0.3,0.1,0.5c0,0.1,0,0.2,0.1,0.3v2.2
			l-0.1,0.1c0,0.1,0,0.3,0,0.4c0,0.2-0.1,0.3-0.2,0.5c0,0.1-0.1,0.1-0.1,0.2L5.7-0.6z"/>
		<path class="st1" d="M7.8,31.8c0.1,0.1,0.1,0.1,0,0.2V31.8z"/>
		<path class="st2" d="M-10.3-31.9L-10.3-31.9L-10.3-31.9L-10.3-31.9L-10.3-31.9z"/>
	</g>
</symbol>
<use xlink:href="#A"  width="26.5" height="64" x="-13.3" y="-32" transform="matrix(1 0 0 1 13.2545 32)" style="overflow:visible;"/>
</svg>
