<svg xmlns="http://www.w3.org/2000/svg" xmlns:xlink="http://www.w3.org/1999/xlink" viewBox="0 0 28 65" fill="#fff" fill-rule="evenodd" stroke="#000" stroke-linecap="round" stroke-linejoin="round"><use xlink:href="#A" x=".5" y=".5"/><symbol id="A" overflow="visible"><g stroke="none" fill-rule="nonzero"><path d="M12.314 43.063H2.162c-.147 0-.294-.015-.443 0s-.238-.117-.385-.097l-.232-.217a1.81 1.81 0 0 1-.364-.561c-.037-.177-.09-.35-.16-.517-.053-.148-.082-.304-.088-.46 0-.047-.04-.097-.07-.16-.023-.15.038-.332-.082-.482v-.435L.25 40v-.608l-.08-.123v-.922l-.088-.13v-1.494L0 36.6v-9.155l.08-.147v-1.562l.082-.12v-.85l.08-.123v-.675c.138-.185.06-.393.1-.587l.076-.1v-.352c.12-.1.056-.273.117-.408a3.27 3.27 0 0 0 .144-.44 3.26 3.26 0 0 1 .17-.393 1.08 1.08 0 0 1 .555-.631l.487-.12h11.403a.48.48 0 0 1 .206.332c.027.102.066.2.117.294.117.217.167.464.294.675.02.24.235.408.25.652.014.064.04.125.08.18a1.22 1.22 0 0 1 .167.39c.03.138.14.247.16.396 0 .085.1.16.117.247s.1.173.12.294a.6.6 0 0 0 .106.253 4.44 4.44 0 0 1 .258.608 5.04 5.04 0 0 0 .276.587c-.023.103.047.176.082.258l.115.247c.026.087.06.17.1.253a2.69 2.69 0 0 1 .17.432 1.95 1.95 0 0 1 .194.47c.026.147.16.27.206.42s.112.26.156.396.103.264.16.393a2.56 2.56 0 0 1 .144.361c.04.135.16.25.185.385a4.79 4.79 0 0 0 .197.508c.047.173.185.323.223.496s.16.326.2.502l.123.367v.076c0 .026-.044.038-.065.038h-5c-.132-.267-.208-.56-.364-.813-.008-.12-.052-.233-.126-.326-.047-.094 0-.223-.115-.294-.115-.235-.176-.5-.308-.716-.026-.264-.25-.458-.27-.725-.113-.185-.203-.382-.27-.587-.05-.147-.126-.294-.18-.432-.075-.156-.14-.316-.197-.479-.055-.146-.12-.3-.197-.426-.102-.293-.222-.579-.358-.857-.03-.056-.065-.1-.1-.164H9.08c-.082.05-.06.135-.02.2.112.22.2.446.294.678.081.232.179.458.294.675a1.02 1.02 0 0 0 .115.329c.032.097.13.18.14.276a.76.76 0 0 0 .138.317c.053.094.035.203.1.294a.81.81 0 0 1 .15.317c.03.113.07.223.12.33.03.097.13.182.138.276a.85.85 0 0 0 .132.326c.05.094.03.203.1.294s.13.198.15.314a2.1 2.1 0 0 0 .206.502 2.11 2.11 0 0 0 .2.467.17.17 0 0 1 0 .179c-.018 0-.026.03-.035.03H7.426c-.05.044-.026.085 0 .138a2.03 2.03 0 0 1 .206.461c.026.156.16.267.17.435a.35.35 0 0 0 .08.176c.13.2.16.44.294.643a6.47 6.47 0 0 0 .267.587c0 .126.073.223.115.33.06.115.1.236.147.36.032.113.085.22.156.314.08.123.085.27.153.4.067.14.125.284.173.432.056.13.16.24.16.393a3.94 3.94 0 0 1 .294.64l.176.43c.074.152.139.309.194.47.026.147.16.273.2.42s.144.335.197.508.167.352.232.534.167.33.217.496.147.332.2.508.164.352.232.534.17.33.217.496.147.332.197.508.188.323.223.493c.062.171.134.339.214.502.032.15.08.267.138.432z" fill="#010101"/><path d="M21.02 63.827h-.126a.4.4 0 0 0-.065-.138 6.31 6.31 0 0 1-.537-.64c-.097-.1-.167-.23-.267-.338s-.153-.2-.238-.308a1.37 1.37 0 0 1-.267-.344c-.023-.056-.088-.097-.135-.147s-.176-.144-.2-.238a.83.83 0 0 0-.164-.217c-.065-.082-.167-.135-.185-.255 0-.032-.053-.06-.08-.088l-.432-.514a3.08 3.08 0 0 0-.405-.487c-.083-.167-.202-.314-.35-.43-.094-.094-.123-.23-.232-.317a.79.79 0 0 1-.214-.294c-.044-.094-.15-.156-.217-.238s-.097-.156-.153-.223l-.5-.587c-.088-.097-.13-.223-.23-.317a1.08 1.08 0 0 1-.276-.332c-.056-.117-.208-.185-.264-.294-.082-.16-.24-.253-.323-.4-.084-.133-.183-.256-.294-.367-.08-.088-.1-.208-.206-.294a.63.63 0 0 1-.214-.28c0-.047-.07-.08-.1-.117-.122-.12-.231-.254-.323-.399-.08-.132-.223-.214-.294-.367-.04-.094-.15-.156-.217-.238s-.097-.156-.153-.223l-.5-.587c-.088-.097-.13-.223-.23-.317a1.12 1.12 0 0 1-.276-.332c-.056-.117-.208-.185-.264-.294-.082-.16-.238-.255-.32-.4-.084-.133-.183-.256-.294-.367-.08-.088-.1-.208-.206-.294a.63.63 0 0 1-.214-.28c-.015-.047-.07-.08-.106-.117a2.11 2.11 0 0 1-.326-.396c-.076-.135-.223-.217-.294-.37-.04-.094-.147-.156-.217-.238s-.094-.156-.153-.223l-.5-.587c-.088-.097-.13-.223-.23-.317-.112-.093-.205-.205-.276-.332-.056-.117-.2-.2-.267-.294-.054-.089-.115-.173-.182-.253a.76.76 0 0 1-.19-.25.78.78 0 0 0-.217-.235c-.097-.1-.117-.235-.232-.314s-.17-.232-.264-.34c-.1-.09-.193-.188-.276-.294-.085-.16-.232-.258-.32-.402-.087-.13-.186-.253-.294-.367-.073-.088-.132-.194-.208-.294-.1-.095-.172-.2-.24-.3-.053-.103-.188-.164-.238-.267-.085-.133-.183-.257-.294-.37l-.614-.796c.02 0 .03-.023.04-.026a.09.09 0 0 1 .04 0h8.708l.05-.018c0-.03.02-.073 0-.1-.1-.15-.176-.315-.23-.487-.03-.167-.18-.294-.173-.47 0-.068-.076-.135-.103-.206-.054-.102-.101-.208-.138-.317a.78.78 0 0 0-.159-.346c-.082-.103-.06-.223-.12-.33s-.144-.2-.12-.323c0-.018-.026-.04-.038-.068-.062-.153-.156-.294-.206-.452s-.16-.294-.203-.458-.153-.326-.2-.5a2.16 2.16 0 0 0-.226-.487c.02-.13-.076-.217-.1-.33s-.115-.206-.144-.314-.1-.208-.138-.317c-.056-.2-.17-.376-.24-.567s-.164-.373-.24-.564l-.156-.4-.135-.358a1 1 0 0 1-.156-.393c0-.032-.062-.062-.068-.097-.026-.156-.153-.264-.17-.43s-.18-.258-.16-.432c0 0 0-.02-.02-.032a2.35 2.35 0 0 1-.211-.452c-.035-.16-.156-.27-.18-.426-.103-.068-.044-.2-.115-.294a.43.43 0 0 1-.112-.241c0-.12-.1-.182-.112-.294s-.12-.156-.126-.238c0-.2-.147-.33-.197-.5 0-.038-.06-.076-.053-.103.03-.106-.1-.16-.082-.255 0 0 0-.023.015-.035.346-.035 2.038-.047 2.78 0 0 .103.103.167.117.294a1.37 1.37 0 0 0 .138.317c.04.088.132.173.1.294a2.1 2.1 0 0 1 .255.587c.132.164.138.388.244.564a2.81 2.81 0 0 1 .179.423c.05.132.167.25.185.38.054.172.119.341.194.505.038.16.164.294.203.455.053.172.122.338.206.496s.088.355.223.5c0 .206.16.352.2.534a2.62 2.62 0 0 0 .206.493c.07.13.068.294.16.393s.085.267.153.393c.086.13.147.274.18.426.02.144.17.267.203.414s.147.326.197.5.153.294.203.458.182.37.238.564c.1.188.16.385.208.587.015.062.044.12.085.17.081.146.147.3.2.458.079.133.141.275.185.423.032.167.194.294.167.47l.294.552h3.46c.103.068 0 .2.106.26a.58.58 0 0 1 .11.203.45.45 0 0 1 .076.214c0 .106.115.15.097.253a.25.25 0 0 1 .076.217c0 .02.032.04.038.068.05.16.164.294.206.455s.164.294.206.455.156.323.194.5.185.32.223.5a2.16 2.16 0 0 0 .185.46 2.08 2.08 0 0 0 .197.46c.07.085 0 .203.1.294s.073.2.135.273 0 .22.112.294c0 .1.123.176.1.294l.24.467v.2c-.026.018-.047.04-.07.04h-7.23c-.03.015-.053.043-.063.076s-.005.068.013.097c.085.12.076.273.156.393.063.14.119.283.167.429a1.63 1.63 0 0 1 .167.388 4.53 4.53 0 0 0 .203.417c.044.135.103.26.156.4l.135.358a1.04 1.04 0 0 1 .156.393c0 .035.06.062.065.097.026.156.153.264.173.43s.176.258.156.432a.04.04 0 0 0 .02.032c.088.142.16.294.2.452s.156.27.18.426c.106.068.044.2.115.294.06.066.1.15.112.238 0 .123.094.185.112.294s.12.156.126.238a1.32 1.32 0 0 0 .182.464 2.44 2.44 0 0 0 .156.393c.088.117.088.267.156.4a1.32 1.32 0 0 1 .176.429c.023.144.176.267.206.4s.147.326.194.502.16.294.203.455c.05.173.12.34.206.496s.088.355.22.5a2.17 2.17 0 0 0 .214.534c.062.182.147.355.22.53.106.068.044.197.1.294a.71.71 0 0 1 .126.32c0 .094.12.176.14.27s.138.173.094.294c0 .015.032.04.04.065.076.15.143.302.203.458.026.16.15.294.176.467.028.126.087.243.17.34.046.08.064.175.053.267z" fill="#f0d202"/><path d="M2.999.06l.097.056c.117.073.144.217.232.314s.214.16.247.294c0 .047.065.082.106.12a4.05 4.05 0 0 1 .294.37c.082.117.22.2.264.34 0 .023.035.038.053.06a2.79 2.79 0 0 1 .355.426c.088.156.27.253.34.432.172.187.334.383.484.587a2.21 2.21 0 0 1 .238.308c.07.094.2.147.2.294 0 .035.053.062.08.1a2.38 2.38 0 0 1 .355.42c.082.144.255.23.314.402.173.186.334.382.484.587.086.099.166.203.241.311.082.1.2.173.235.3 0 .023.035.038.053.06a2.64 2.64 0 0 1 .358.426c.088.156.27.253.338.432.206.16.294.402.487.587.087.096.167.199.238.308.07.094.2.147.2.294 0 .035.053.062.08.1.134.127.253.27.355.423.082.147.258.232.314.405.172.187.334.383.484.587l.238.3c.082.1.206.17.238.3 0 .023.035.038.053.06.133.13.253.272.358.426.085.156.267.253.338.432a6.6 6.6 0 0 1 .487.587c.086.092.165.191.238.294.068.094.2.147.2.294 0 .035.053.06.08.1.133.128.252.27.355.423.08.147.258.23.3.405.175.185.337.381.487.587l.235.247c.082.103.206.17.238.3 0 .023.035.038.053.06.132.13.25.27.355.423.088.16.27.255.34.435.172.187.334.383.484.587a2.21 2.21 0 0 1 .238.308c.07.094.194.147.214.294 0 .035.053.06.08.1.131.13.247.273.346.429.082.147.26.23.314.405a6.54 6.54 0 0 1 .487.587c.1.112.194.247.294.367s.223.2.264.344a6.84 6.84 0 0 1 .458.546c.17.167.276.385.455.55a.75.75 0 0 1 .126.247c-.034.02-.07.037-.1.047H3.86c-.157-.1-.263-.28-.294-.47a.88.88 0 0 0-.132-.276c-.047-.082 0-.194-.1-.253-.023-.156-.156-.264-.18-.426s-.14-.294-.176-.467-.173-.267-.206-.414a2.55 2.55 0 0 0-.203-.496 1.72 1.72 0 0 0-.2-.458.94.94 0 0 0-.132-.361c-.062-.126-.116-.256-.159-.39a.88.88 0 0 0-.173-.341c-.07-.106-.03-.208-.07-.285a.65.65 0 0 1-.132-.294.83.83 0 0 0-.094-.25c-.044-.078-.117-.156-.13-.238-.028-.14-.082-.273-.16-.393-.01-.037-.01-.077 0-.115a.3.3 0 0 1 .032-.09h7.355c0-.053.023-.103 0-.123-.12-.123-.12-.317-.2-.476a.93.93 0 0 1-.179-.464c0-.044-.056-.088-.073-.135-.062-.14-.182-.258-.164-.43-.095-.1-.152-.246-.164-.4 0-.023-.03-.044-.038-.068-.053-.16-.16-.294-.206-.455s-.153-.294-.206-.455-.1-.264-.156-.393l-.135-.358c-.08-.12-.132-.253-.156-.393 0-.047-.047-.1-.07-.135a2.24 2.24 0 0 1-.147-.273c-.03-.085-.047-.17-.085-.255s-.14-.17-.094-.294c0-.015-.035-.038-.044-.065-.047-.16-.16-.294-.203-.455s-.167-.294-.206-.455-.156-.323-.194-.502-.182-.32-.223-.487a2 2 0 0 0-.188-.461c-.068-.13-.065-.294-.156-.393s-.085-.267-.156-.393a1.28 1.28 0 0 1-.176-.426c-.02-.144-.173-.267-.203-.414s-.147-.326-.197-.5-.147-.294-.203-.458l-.117-.323c-.064-.111-.118-.228-.161-.349-.03-.1-.12-.206-.14-.314-.058-.184-.13-.362-.217-.534-.062-.182-.147-.355-.22-.53-.106-.068-.044-.197-.1-.294a.61.61 0 0 1-.126-.323c0-.1-.12-.173-.14-.27s-.117-.173-.1-.294c-.007-.08-.042-.152-.1-.206-.076-.082-.05-.173-.053-.264z" fill="#f0d203"/><path d="M26.507 36.052l-.08.115v.358c-.112.097-.07.25-.15.364s-.1.244-.203.33l-.035.02H15.177c-.147-.05-.135-.214-.223-.308 0-.173-.12-.294-.167-.435a1.66 1.66 0 0 0-.164-.393c-.132-.226-.164-.496-.317-.7 0-.26-.25-.432-.25-.693a4.59 4.59 0 0 1-.276-.587l-.2-.47a2.25 2.25 0 0 1-.185-.429 2.53 2.53 0 0 0-.217-.455c-.014-.057-.02-.115-.018-.173a2.35 2.35 0 0 1 .517-.023h12.307l.2.185c.07.062.07.14.12.2s.038.176.056.267.1.126.076.217a2.12 2.12 0 0 0 0 .276l.073.117z" fill="#010101"/><path d="M16.539 25.602a1.47 1.47 0 0 1-.194-.385 1.34 1.34 0 0 0-.179-.432c-.068-.13-.082-.27-.153-.4l-.276-.643-.264-.587-.16-.396c-.046-.135-.099-.267-.16-.396-.055-.116-.102-.236-.14-.358-.044-.135-.15-.25-.188-.388a2.2 2.2 0 0 0-.161-.42c-.04-.082-.04-.18 0-.26 0 0 .023-.023.035-.023h10.397c.138.092.247.22.314.373a1.35 1.35 0 0 1 .138.499c0 .16.112.294.085.46a2.73 2.73 0 0 0 0 .443v1.838c-.038.117-.082.182-.073.24.03.167-.103.294-.1.458-.1.13-.126.294-.332.385z" fill="#020202"/><path d="M25.074 38.374l.197.1c.081.133.146.275.194.423a2.78 2.78 0 0 1 .09.382c.035.166.06.333.073.502v2.1c0 .112-.1.18-.08.294.022.104-.006.213-.076.294a.68.68 0 0 1-.294.587h-7.594c-.102-.169-.191-.347-.264-.531-.063-.198-.148-.388-.253-.567 0-.206-.18-.35-.18-.552-.136-.264-.257-.536-.364-.813-.073-.136-.13-.28-.173-.43-.04-.138-.15-.244-.167-.393s-.135-.273-.17-.435a3.89 3.89 0 0 0-.2-.423 3.22 3.22 0 0 0-.17-.39c-.015-.033-.025-.068-.032-.103.032-.018.056-.038.08-.038z" fill="#010101"/><path d="M18.96 31.42c-.043-.15-.103-.295-.18-.432-.085-.13-.1-.294-.176-.43s-.106-.294-.167-.435c-.073-.137-.133-.28-.179-.429-.035-.147-.17-.27-.206-.42s-.144-.294-.18-.47-.14-.294-.185-.43c-.041-.122-.089-.242-.144-.358-.069-.125-.125-.256-.167-.393-.023-.123-.115-.235-.15-.358a2.75 2.75 0 0 0-.161-.355c-.03-.046-.03-.104 0-.15.024-.01.048-.018.073-.023h8.808c.176.1.3.275.385.47-.026.176.103.326.088.502.014.1.038.199.073.294v2.228l-.065.103c-.004.145-.02.29-.047.432-.05.175-.121.344-.211.502-.035.053-.08.103-.12.156z" fill="#020202"/><path d="M21.02 63.827c.097.062.097.062 0 .173z" fill="#f0d202"/><path d="M3.001.06L2.934.03 2.969 0l.03.068z" fill="#f0d203"/></g></symbol></svg>