<?xml version="1.0" encoding="utf-8"?>
<!-- Generator: Adobe Illustrator 25.2.1, SVG Export Plug-In . SVG Version: 6.00 Build 0)  -->
<svg version="1.1" id="Layer_1" xmlns="http://www.w3.org/2000/svg" xmlns:xlink="http://www.w3.org/1999/xlink" x="0px" y="0px"
	 viewBox="0 0 64 33.2" style="enable-background:new 0 0 64 33.2;" xml:space="preserve">
<style type="text/css">
	.st0{fill:url(#SVGID_1_);}
	.st1{fill:#777BB3;}
	.st2{fill:#FFFFFF;}
</style>
<symbol  id="B" viewBox="-32 -16.6 64 33.2">
	<g>
		
			<radialGradient id="SVGID_1_" cx="7118.7998" cy="-8469.3711" r="0.86" gradientTransform="matrix(64 0 0 33.208 -455616 281240.25)" gradientUnits="userSpaceOnUse">
			<stop  offset="0" style="stop-color:#AEB2D5"/>
			<stop  offset="3.000000e-03" style="stop-color:#AEB2D5"/>
			<stop  offset="7.500000e-03" style="stop-color:#484C89"/>
		</radialGradient>
		<path class="st0" d="M-32,0c0,9.2,14.3,16.6,32,16.6S32,9.2,32,0S17.7-16.6,0-16.6S-32-9.2-32,0"/>
		<path class="st1" d="M0,15.4c17,0,30.8-6.9,30.8-15.4S17-15.4,0-15.4S-30.8-8.5-30.8,0S-17,15.4,0,15.4"/>
		<path d="M-14.6,1.9c1.4,0,2.4-0.3,3.1-0.8c0.7-0.5,1.1-1.4,1.3-2.6c0.2-1.1,0.1-1.9-0.2-2.3c-0.4-0.4-1.2-0.6-2.5-0.6h-2.2
			l-1.2,6.3L-14.6,1.9L-14.6,1.9z M-21.9,9.6c-0.1,0-0.2,0-0.3-0.1c-0.1-0.1-0.1-0.2-0.1-0.3L-19-7.4c0-0.2,0.2-0.3,0.3-0.3h7.1
			c2.2,0,3.9,0.6,4.9,1.8c1,1.2,1.4,2.8,1,4.9c-0.2,0.8-0.4,1.6-0.9,2.3C-6.9,2-7.5,2.7-8.1,3.2c-0.7,0.7-1.6,1.2-2.6,1.5
			c-0.9,0.3-2.1,0.4-3.5,0.4h-2.9l-0.8,4.1c0,0.2-0.2,0.3-0.3,0.3C-18.2,9.6-21.9,9.6-21.9,9.6z"/>
		<path class="st2" d="M-14.9-4h1.9c1.6,0,2.1,0.3,2.3,0.5c0.3,0.3,0.4,1,0.2,2c-0.2,1.1-0.6,1.9-1.2,2.3c-0.6,0.5-1.6,0.7-2.9,0.7
			H-16L-14.9-4L-14.9-4z M-11.6-8h-7.1c-0.3,0-0.6,0.2-0.7,0.6l-3.3,16.6c0,0.2,0,0.4,0.1,0.6c0.1,0.2,0.3,0.2,0.5,0.2h3.7
			c0.3,0,0.6-0.2,0.7-0.6l0.8-3.9h2.6c1.5,0,2.7-0.2,3.6-0.5c1-0.3,1.9-0.9,2.7-1.6c0.6-0.6,1.2-1.3,1.6-2C-5.8,0.7-5.5-0.1-5.4-1
			c0.4-2.2,0.1-3.9-1-5.2C-7.5-7.4-9.2-8-11.6-8 M-16.8,2.2h2.2c1.5,0,2.6-0.3,3.3-0.8s1.2-1.5,1.5-2.8c0.2-1.2,0.1-2.1-0.3-2.6
			s-1.4-0.8-2.8-0.8h-2.5L-16.8,2.2 M-11.6-7.3c2.1,0,3.7,0.6,4.7,1.7S-5.6-3.1-6-1.1c-0.2,0.8-0.4,1.6-0.8,2.2S-7.7,2.4-8.3,3
			c-0.7,0.7-1.5,1.2-2.4,1.4s-2,0.4-3.4,0.4h-3.1l-0.9,4.4h-3.7l3.3-16.6L-11.6-7.3"/>
		<path d="M2.7,5.2c-0.1,0-0.2,0-0.3-0.1C2.4,5,2.4,4.9,2.4,4.8l1.5-7.4C4-3.3,3.9-3.8,3.7-4C3.6-4.1,3.3-4.3,2.2-4.3h-2.6l-1.8,9.3
			c0,0.2-0.2,0.3-0.3,0.3h-3.6c-0.1,0-0.2,0-0.3-0.1C-6.6,5-6.6,4.9-6.6,4.8l3.3-16.6c0-0.2,0.2-0.3,0.3-0.3h3.6
			c0.1,0,0.2,0,0.3,0.1C1-11.9,1-11.8,1-11.7l-0.8,4H3c2.2,0,3.6,0.4,4.5,1.1c0.9,0.8,1.1,2,0.8,3.7L6.8,4.9c0,0.2-0.2,0.3-0.3,0.3
			L2.7,5.2L2.7,5.2z"/>
		<path class="st2" d="M0.7-12.5H-3c-0.3,0-0.6,0.2-0.7,0.6L-7,4.7c0,0.2,0,0.4,0.1,0.6c0.1,0.2,0.3,0.2,0.5,0.2h3.6
			C-2.3,5.6-2,5.3-1.9,5l1.8-9h2.3c1.1,0,1.3,0.2,1.3,0.2c0.1,0.1,0.2,0.4,0,1.1L2,4.7c0,0.2,0,0.4,0.1,0.6c0.1,0.2,0.3,0.2,0.5,0.2
			h3.7c0.3,0,0.6-0.2,0.7-0.6l1.5-7.7C9-4.6,8.7-5.9,7.7-6.8C6.8-7.6,5.3-8,3-8H0.6l0.7-3.6c0-0.2,0-0.4-0.1-0.6
			C1.1-12.4,0.9-12.5,0.7-12.5 M0.7-11.8l-0.9,4.4H3c2,0,3.5,0.4,4.2,1.1s1,1.8,0.7,3.4L6.4,4.9H2.7l1.5-7.4C4.3-3.3,4.3-3.9,4-4.2
			S3.1-4.7,2.2-4.7h-2.9l-1.9,9.5h-3.6L-3-11.8L0.7-11.8"/>
		<path d="M14.1,1.9c1.4,0,2.4-0.3,3.1-0.8c0.7-0.5,1.1-1.4,1.3-2.6c0.2-1.1,0.1-1.9-0.2-2.3c-0.4-0.4-1.2-0.6-2.5-0.6h-2.2
			l-1.2,6.3L14.1,1.9L14.1,1.9z M6.8,9.6c-0.1,0-0.2,0-0.3-0.1C6.4,9.4,6.4,9.3,6.4,9.2L9.7-7.4c0-0.2,0.2-0.3,0.3-0.3h7.1
			c2.2,0,3.9,0.6,4.9,1.8c1,1.2,1.4,2.8,1,4.9c-0.2,0.8-0.5,1.6-0.8,2.3s-0.9,1.4-1.6,1.9C19.8,3.9,19,4.5,18,4.8
			c-0.9,0.3-2.1,0.4-3.5,0.4h-2.9l-0.8,4.1c0,0.2-0.2,0.3-0.3,0.3H6.8L6.8,9.6z"/>
		<path class="st2" d="M13.8-4h1.9c1.6,0,2.1,0.3,2.3,0.5c0.3,0.3,0.4,1,0.2,2c-0.2,1.1-0.6,1.9-1.2,2.3c-0.6,0.5-1.6,0.7-2.9,0.7
			h-1.4L13.8-4L13.8-4z M17.1-8H10C9.7-8,9.4-7.8,9.4-7.5L6.1,9.2c0,0.2,0,0.4,0.1,0.6C6.4,9.9,6.6,10,6.8,10h3.7
			c0.3,0,0.6-0.2,0.7-0.6l0.8-3.9h2.6c1.5,0,2.7-0.2,3.6-0.5c1-0.3,1.9-0.9,2.7-1.6c0.7-0.6,1.2-1.3,1.6-2s0.7-1.6,0.9-2.4
			c0.4-2.2,0.1-3.9-1-5.2C21.2-7.4,19.4-8,17.1-8 M11.8,2.2h2.2c1.5,0,2.6-0.3,3.3-0.8s1.2-1.5,1.5-2.8C19.1-2.6,19-3.4,18.5-4
			s-1.4-0.8-2.8-0.8h-2.5L11.8,2.2 M17.1-7.3c2.1,0,3.7,0.6,4.7,1.7s1.3,2.6,0.9,4.6c-0.2,0.8-0.4,1.6-0.8,2.2S21,2.4,20.3,3
			c-0.7,0.7-1.5,1.2-2.4,1.4s-2,0.4-3.4,0.4h-3.1l-0.9,4.4H6.8L10-7.3L17.1-7.3"/>
	</g>
</symbol>
<use xlink:href="#B"  width="64" height="33.2" x="-32" y="-16.6" transform="matrix(1 0 0 1 32 16.604)" style="overflow:visible;"/>
</svg>
