<?xml version="1.0" encoding="utf-8"?>
<!-- Generator: Adobe Illustrator 25.2.1, SVG Export Plug-In . SVG Version: 6.00 Build 0)  -->
<svg version="1.1" id="Layer_1" xmlns="http://www.w3.org/2000/svg" xmlns:xlink="http://www.w3.org/1999/xlink" x="0px" y="0px"
	 viewBox="0 0 64 48" style="enable-background:new 0 0 64 48;" xml:space="preserve">
<style type="text/css">
	.st0{fill:#CF649A;}
</style>
<symbol  id="A" viewBox="-32 -24 64 48">
	<path class="st0" d="M23.1,3.6c-2.2,0-4.2,0.5-5.8,1.4c-0.6-1.2-1.2-2.2-1.3-3c-0.1-0.9-0.2-1.5-0.1-2.5s0.8-2.6,0.8-2.7
		c0-0.1-0.1-0.7-1.4-0.7s-2.4,0.2-2.5,0.6c-0.2,0.6-0.4,1.3-0.5,1.9C11.9-0.3,9.6,3.8,8.2,6C7.8,5.2,7.4,4.4,7.4,3.8
		C7.2,2.9,7.1,2.4,7.2,1.3S8-1.3,8-1.4c0-0.1-0.1-0.7-1.4-0.7S4.2-1.9,4.1-1.5C3.9-1.2,3.8-0.4,3.5,0.4C3.3,1.2,0.1,8.1-0.7,9.9
		c-0.3,0.7-0.7,1.5-1,2.2c-0.3,0.5,0,0,0,0.1l-0.4,0.7v0c-0.2,0.3-0.4,0.6-0.5,0.6c-0.1,0-0.2-0.8,0-2C-2.1,9.1-0.9,5.3-1,5.2
		c0-0.1,0.2-0.7-0.7-1.1C-2.6,3.8-2.9,4.3-3,4.3s-0.1,0.2-0.1,0.2s1-4.2-1.9-4.2c-1.9,0-4.4,2-5.7,3.9l-6.4,3.5l-0.1-0.1
		C-20.8,3.7-27.4,1-27.2-4.2c0.1-1.9,0.8-6.8,12.7-12.7c9.8-4.9,17.6-3.5,19-0.6C6.5-13.2,0.4-5.3-9.8-4.2c-3.9,0.4-5.9-1.1-6.4-1.6
		c-0.5-0.6-0.6-0.6-0.8-0.5c-0.3,0.2-0.1,0.7,0,1c0.3,0.8,1.5,2.2,3.7,2.9c1.9,0.6,6.4,1,11.9-1.2c6.2-2.4,11-9,9.6-14.6
		c-1.5-5.6-10.8-7.5-19.6-4.4c-5.3,1.9-11,4.8-15.1,8.6c-4.9,4.6-5.7,8.5-5.3,10.2c1.1,5.9,9.2,9.7,12.5,12.6l-0.5,0.2
		c-1.6,0.8-7.8,4-9.4,7.5c-1.8,3.9,0.3,6.7,1.6,7c4.2,1.2,8.4-0.9,10.8-4.4c2.3-3.4,2-7.9,1-9.9l0-0.1l1.3-0.8
		c0.8-0.5,1.6-0.9,2.4-1.3c-0.4,1.1-0.7,2.4-0.8,4.2c-0.2,2.2,0.7,5.1,1.9,6.2c0.5,0.5,1.1,0.5,1.5,0.5c1.4,0,2-1.1,2.7-2.5
		C-6.2,14-5.4,12-5.4,12s-0.9,5.2,1.6,5.2c0.9,0,1.9-1.2,2.3-1.8v0c0,0,0,0,0.1-0.1c0.1-0.2,0.1-0.2,0.1-0.2v0
		c0.4-0.7,1.2-2.1,2.5-4.6c1.6-3.2,3.2-7.1,3.2-7.1s0.2,1,0.6,2.6c0.3,1,0.9,2,1.3,3L5.7,9.7l0,0c-0.3,0.4-0.6,0.8-1,1.2
		c-1.3,1.5-2.8,3.3-3,3.8c-0.2,0.6-0.2,1,0.3,1.4c0.3,0.2,0.9,0.3,1.6,0.2c1.2-0.1,2-0.4,2.3-0.5c0.7-0.3,1.4-0.6,2-1.1
		c1.2-0.9,2-2.2,1.9-4c0-1-0.3-1.9-0.7-2.8l0.3-0.5c2-2.9,3.5-6.1,3.5-6.1s0.2,1,0.6,2.6c0.2,0.8,0.7,1.7,1.1,2.6
		c-1.8,1.5-3,3.3-3.4,4.4c-0.7,2.1-0.2,3.1,0.9,3.3c0.5,0.1,1.2-0.1,1.7-0.3c0.8-0.3,1.5-0.6,2.2-1.1c1.2-0.9,2.5-2.2,2.4-4
		c0-0.8-0.2-1.6-0.5-2.3c1.6-0.6,3.6-1,6.2-0.7c5.6,0.6,6.7,4.1,6.5,5.6s-1.4,2.2-1.8,2.5c-0.4,0.2-0.5,0.3-0.5,0.5
		c0,0.3,0.2,0.2,0.6,0.2c0.5-0.1,2.9-1.2,3-3.9C32.1,7.3,28.9,3.5,23.1,3.6L23.1,3.6z M-19.8,18c-1.8,2-4.4,2.8-5.5,2.1
		c-1.2-0.7-0.7-3.7,1.5-5.8c1.4-1.3,3.2-2.5,4.3-3.2l1.1-0.7c0.1,0,0.1-0.1,0.1-0.1c0.1,0,0.2-0.1,0.3-0.2
		C-17.1,13.2-17.9,15.9-19.8,18L-19.8,18z M-6.4,8.9c-0.6,1.6-2,5.6-2.8,5.3C-9.9,14-10.3,11-9.3,8c0.5-1.5,1.6-3.3,2.2-4
		c1-1.1,2.1-1.5,2.4-1C-4.4,3.6-6,7.9-6.4,8.9L-6.4,8.9z M4.7,14.2c-0.3,0.1-0.5,0.2-0.6,0.2c-0.1,0,0.1-0.2,0.1-0.2
		s1.4-1.5,1.9-2.2l1.1-1.4v0.2C7.2,12.5,5.5,13.7,4.7,14.2L4.7,14.2z M13.3,12.2c-0.2-0.2-0.2-0.6,0.5-2.1c0.3-0.6,0.9-1.5,1.9-2.5
		c0.1,0.4,0.2,0.7,0.2,1.1C15.9,11,14.3,11.9,13.3,12.2z"/>
</symbol>
<use xlink:href="#A"  width="64" height="48" x="-32" y="-24" transform="matrix(1 0 0 1 31.999 23.9845)" style="overflow:visible;"/>
</svg>
