<?xml version="1.0" encoding="utf-8"?>
<!-- Generator: Adobe Illustrator 25.2.1, SVG Export Plug-In . SVG Version: 6.00 Build 0)  -->
<svg version="1.1" id="Layer_1" xmlns="http://www.w3.org/2000/svg" xmlns:xlink="http://www.w3.org/1999/xlink" x="0px" y="0px"
	 viewBox="0 0 220.4 300" style="enable-background:new 0 0 220.4 300;" xml:space="preserve">
<style type="text/css">
	.st0{fill:#98AD68;}
	.st1{fill:#D7E9C0;}
</style>
<g id="Layer_4">
	<path class="st0" d="M68.3,234.3C33.1,222.8,8,188.6,1.8,152.8c-17-99,88.3-188.2,193.5-138.6c1.2,22.2-9.1,53.8-37.4,63.3
		C298.5,166.2,178.3,348,31,288.2C4.1,274.5,18.5,249.5,47.2,264c32.1,11.1,73.8,11.1,100.1-3.5c16.9-9.3,32.1-21.9,42.8-38.1
		c3.9-6,7.3-12.2,10.1-18.8c2.2-5.2,9.4-26.9,3.8-29.2c-1.4-0.6-2.1,1.1-2.5,2.6c-3.6,14.4-10.5,26.8-20.1,38
		c-11.6,13.5-26.6,23.8-43.4,29.7c-21,7.6-45.4,8.6-78.8,1.3C61.3,243.6,65.8,237,68.3,234.3 M165.3,23c0.6,3.2,0.9,6.5,0.9,9.8
		c0.6,16.4-3.9,27-15.6,38.6c-2.4,2.4-5.1,4.8-8,7.4c39.7,24.7,60.4,78.6,37.4,116.4C149,246,87.4,234.5,53.7,199.7
		c-35.2-36.5-30.5-83.6-5.2-118.6C74.6,45.1,122.6,21.7,165.3,23"/>
	<path d="M45.7,134.6c7.6-75.4,94.4-90.4,126.6,10.2C198.3,248.1,33.7,225.6,45.7,134.6 M116.5,184.2c68.5,2.5,35.7-67.6-9.3-83.1
		C62.6,85.8,37.8,184.2,116.5,184.2"/>
	<path class="st1" d="M116.5,184.2c68.5,2.5,35.7-67.6-9.3-83.1C62.6,85.8,37.8,184.2,116.5,184.2"/>
</g>
</svg>
