<svg id="Layer_1" data-name="Layer 1" xmlns="http://www.w3.org/2000/svg" viewBox="0 0 200.18526 200.03817"><defs><style>.cls-1{fill:#3e4b60;}</style></defs><path class="cls-1" d="M112.56122,199.14939C71.86114,204.726,32.4586,183.62661,12.32544,148.03815-7.45184,113.07877-3.00927,67.05361,22.641,36.2501,49.11724,4.45462,95.40371-8.67087,134.3163,5.966c34.3148,12.90745,60.49529,44.58805,65.08579,81.148,3.8012,30.27378-6.33709,62.31446-28.185,83.86093C155.51933,186.456,134.31569,196.16866,112.56122,199.14939ZM58.369,88.6301c.0387-1.33217-.26053-1.7681.92082-2.15251a16.1934,16.1934,0,0,1,3.53312-.23717c2.265-.15283,4.52762-.27417,6.79833-.27417,4.02815.03009,7.72693,1.23789,11.53153,2.40364,4.10889,1.259,8.19441,2.5952,12.26278,3.9792,8.05572,2.74044,16.04073,5.68389,23.99693,8.69968,15.78,5.9814,31.11264,7.90686,46.37466-1.47717,3.09188-1.90107,3.89643-3.82047,3.39542-7.23807-3.6976-25.22307-17.1951-43.50525-40.21619-53.754-33.573-14.94635-73.29939-.48345-88.97492,35.5714-15.1058,34.74444,1.51706,75.31744,39.00041,89.37091,23.5354,8.824,45.78537,4.757,65.69739-10.82609a57.94951,57.94951,0,0,0,16.84938-20.9841c-.546-.22469-.70641-.35431-.85293-.34009a10.8809,10.8809,0,0,0-1.95931.26973c-12.49358,3.60088-23.93336.5569-33.98915-6.75229-10.1769-7.39724-19.65431-15.76631-29.33736-23.83067-8.84638-7.36753-18.761-11.86709-30.41756-12.09689C61.447,88.93116,59.91591,88.76727,58.369,88.6301Z"/></svg>