<svg id="Layer_1" data-name="Layer 1" xmlns="http://www.w3.org/2000/svg" viewBox="0 0 356.89639 387.1762"><defs><style>.cls-1{fill:#e82c30;}.cls-2{fill:#fff;}</style></defs><polygon class="cls-1" points="236.067 0 0 30.868 32.339 234.01 82.021 387.176 331.025 316.327 356.896 95.252 236.067 0"/><polygon class="cls-2" points="143.17 233.422 73.791 248.414 87.02 287.643 162.868 269.289 143.17 233.422"/><polygon class="cls-2" points="49.096 144.345 62.031 181.094 213.139 150.226 189.031 119.945 49.096 144.345"/><polygon class="cls-2" points="213.139 150.226 138.404 165.493 159.045 199.909 240.184 182.269 213.139 150.226"/><polygon class="cls-2" points="328.967 100.101 263.997 49.684 229.308 22.343 24.696 48.802 36.17 81.682 187.6 60.413 241.654 115.535 328.967 100.101"/></svg>