<?xml version="1.0" encoding="utf-8"?>
<!-- Generator: Adobe Illustrator 25.2.1, SVG Export Plug-In . SVG Version: 6.00 Build 0)  -->
<svg version="1.1" id="Layer_1" xmlns="http://www.w3.org/2000/svg" xmlns:xlink="http://www.w3.org/1999/xlink" x="0px" y="0px"
	 viewBox="0 0 64 64" style="enable-background:new 0 0 64 64;" xml:space="preserve">
<style type="text/css">
	
		.st0{fill-rule:evenodd;clip-rule:evenodd;fill:#E01E5A;stroke:#E01E5A;stroke-width:0.79;stroke-linecap:round;stroke-linejoin:round;}
	
		.st1{fill-rule:evenodd;clip-rule:evenodd;fill:#ECB22D;stroke:#ECB22D;stroke-width:0.79;stroke-linecap:round;stroke-linejoin:round;}
	
		.st2{fill-rule:evenodd;clip-rule:evenodd;fill:#2FB67C;stroke:#2FB67C;stroke-width:0.79;stroke-linecap:round;stroke-linejoin:round;}
	
		.st3{fill-rule:evenodd;clip-rule:evenodd;fill:#36C5F1;stroke:#36C5F1;stroke-width:0.79;stroke-linecap:round;stroke-linejoin:round;}
</style>
<symbol  id="A" viewBox="-32 -32 64 64">
	<g>
		<path class="st0" d="M-14.2,8.3c0-3.7,2.8-6.7,6.3-6.7s6.3,3,6.3,6.7v16.6c0,3.7-2.8,6.7-6.3,6.7s-6.3-3-6.3-6.7V8.3z"/>
		<path class="st1" d="M8.3,14.2c-3.7,0-6.7-2.8-6.7-6.3s3-6.3,6.7-6.3h16.6c3.7,0,6.7,2.8,6.7,6.3s-3,6.3-6.7,6.3H8.3z"/>
		<path class="st2" d="M1.6-24.9c0-3.7,2.8-6.7,6.3-6.7s6.3,3,6.3,6.7v16.6c0,3.7-2.8,6.7-6.3,6.7s-6.3-3-6.3-6.7V-24.9z"/>
		<path class="st3" d="M-24.9-1.6c-3.7,0-6.7-2.8-6.7-6.3s3-6.3,6.7-6.3h16.6c3.7,0,6.7,2.8,6.7,6.3s-3,6.3-6.7,6.3H-24.9z"/>
		<path class="st1" d="M1.6,25.3c0,3.5,2.8,6.3,6.3,6.3c0,0,0,0,0,0c3.5,0,6.3-2.8,6.3-6.3c0-1.7-0.7-3.3-1.9-4.5
			C11.2,19.6,9.6,19,7.9,19H1.6L1.6,25.3z"/>
		<path class="st2" d="M25.3-1.6H19v-6.3c0-3.5,2.8-6.3,6.3-6.3c1.1,0,2.2,0.3,3.2,0.8c2,1.1,3.2,3.2,3.2,5.5
			C31.6-4.4,28.8-1.6,25.3-1.6C25.3-1.6,25.3-1.6,25.3-1.6L25.3-1.6z"/>
		<path class="st0" d="M-25.3,1.6h6.3v6.3c0,3.5-2.8,6.3-6.3,6.3c0,0,0,0,0,0c-3.5,0-6.3-2.8-6.3-6.3c0,0,0,0,0,0
			C-31.6,4.4-28.8,1.6-25.3,1.6C-25.3,1.6-25.3,1.6-25.3,1.6L-25.3,1.6z"/>
		<path class="st3" d="M-1.6-25.3v6.3h-6.3c-3.5,0-6.3-2.8-6.3-6.3c0,0,0,0,0,0c0-3.5,2.8-6.3,6.3-6.3c0,0,0,0,0,0
			C-4.4-31.6-1.6-28.8-1.6-25.3C-1.6-25.3-1.6-25.3-1.6-25.3z"/>
	</g>
</symbol>
<use xlink:href="#A"  width="64" height="64" x="-32" y="-32" transform="matrix(1 0 0 1 32.001 32.0001)" style="overflow:visible;"/>
</svg>
