<?xml version="1.0" encoding="utf-8"?>
<!-- Generator: Adobe Illustrator 25.2.1, SVG Export Plug-In . SVG Version: 6.00 Build 0)  -->
<svg version="1.1" id="Layer_1" xmlns="http://www.w3.org/2000/svg" xmlns:xlink="http://www.w3.org/1999/xlink" x="0px" y="0px"
	 viewBox="0 0 137.7 178.8" style="enable-background:new 0 0 137.7 178.8;" xml:space="preserve">
<style type="text/css">
	.st0{fill-rule:evenodd;clip-rule:evenodd;fill:url(#SVGID_1_);}
	.st1{fill-rule:evenodd;clip-rule:evenodd;fill:#FF9800;}
</style>
<g>
	<g>
		
			<linearGradient id="SVGID_1_" gradientUnits="userSpaceOnUse" x1="1.299429e-05" y1="651.0741" x2="1" y2="651.0741" gradientTransform="matrix(11.7888 -39.4189 -33.3659 -13.638 21788.4922 9025.7275)">
			<stop  offset="0" style="stop-color:#FF9700"/>
			<stop  offset="0.53" style="stop-color:#F48E00"/>
			<stop  offset="1" style="stop-color:#D06F00"/>
		</linearGradient>
		<path class="st0" d="M137.7,89.9c0-2.1-1.5-3.3-3.4-2.7L3.4,128.7c-1.9,0.6-3.4,2.8-3.4,4.9V176c0,2.1,1.5,3.3,3.4,2.7l130.8-41.5
			c1.9-0.6,3.4-2.8,3.4-4.9V89.9z"/>
		<path class="st1" d="M0,88.6c0,2.1,1.5,4.3,3.4,4.9L134.2,135c1.9,0.6,3.4-0.6,3.4-2.7V89.9c0-2.1-1.5-4.3-3.4-4.9L3.4,43.5
			C1.5,42.9,0,44.1,0,46.2C0,46.2,0,88.6,0,88.6z"/>
		<path class="st1" d="M137.7,2.9c0-2.1-1.5-3.3-3.4-2.7L3.4,41.6C1.5,42.2,0,44.4,0,46.5v42.4c0,2.1,1.5,3.3,3.4,2.7l130.8-41.5
			c1.9-0.6,3.4-2.8,3.4-4.9C137.7,45.2,137.7,2.9,137.7,2.9z"/>
	</g>
</g>
</svg>
