<svg xmlns="http://www.w3.org/2000/svg" xmlns:xlink="http://www.w3.org/1999/xlink" viewBox="0 0 67 37" fill="#fff" fill-rule="evenodd" stroke="#000" stroke-linecap="round" stroke-linejoin="round"><use xlink:href="#A" x="1" y="1"/><symbol id="A" overflow="visible"><g stroke="none" fill-rule="nonzero"><path d="M16.966.242l6.072 20.65 6.08-20.65h16.464v2.05l-6.2 10.68c2.2.7 3.826 1.97 4.94 3.812s1.68 4.008 1.68 6.492c0 3.072-.816 5.656-2.45 7.75s-3.754 3.146-6.348 3.146c-1.956 0-3.66-.6-5.11-1.864s-2.528-2.924-3.226-5.048l3.434-1.424c.504 1.284 1.166 2.3 1.99 3.04a4.21 4.21 0 0 0 2.912 1.11c1.172 0 2.164-.656 2.974-1.968s1.216-2.89 1.216-4.734c0-2.04-.432-3.6-1.3-4.734-1.006-1.312-2.584-1.968-4.736-1.968h-1.68v-2.01l5.864-10.14h-7.08l-.4.686-8.604 29.054h-.4l-6.304-21.028-6.284 21.028h-.4L0 .242h4.4l6.074 20.65 4.124-13.92-2.03-6.734h4.4z" fill="#005a9c"/><path d="M63.046.052l.712 4.332-2.532 4.826s-.968-2.046-2.576-3.2c-1.356-.954-2.24-1.16-3.6-.88-1.772.366-3.784 2.486-4.66 5.1-1.05 3.128-1.06 4.64-1.096 6.03-.06 2.228.292 3.546.292 3.546s-1.53-2.834-1.516-7c.01-2.96.474-5.648 1.846-8.3 1.206-2.32 3-3.728 4.588-3.9 1.646-.168 2.954.632 3.948 1.48 1.054.9 2.11 2.868 2.11 2.868L63.046 0zm.31 24.51s-1.114 2.004-1.808 2.76-1.94 2.11-3.472 2.796-2.34.804-3.856.66-2.924-1.024-3.4-1.39-1.756-1.444-2.468-2.45-1.828-3.016-1.828-3.016l1.01 2.868c.224.492.912 2 1.9 3.308.91 1.224 2.68 3.326 5.364 3.8s4.532-.73 4.988-1.024 1.4-1.096 2.03-1.75c.636-.68 1.24-1.548 1.6-2.07l.64-1.152-.632-3.344z" fill="#000"/></g></symbol><defs /></svg>