<?xml version="1.0" encoding="utf-8"?>
<!-- Generator: Adobe Illustrator 25.2.1, SVG Export Plug-In . SVG Version: 6.00 Build 0)  -->
<svg version="1.1" id="Layer_1" xmlns="http://www.w3.org/2000/svg" xmlns:xlink="http://www.w3.org/1999/xlink" x="0px" y="0px"
	 viewBox="0 0 64.1 34.2" style="enable-background:new 0 0 64.1 34.2;" xml:space="preserve">
<style type="text/css">
	.st0{fill:#005A9C;}
</style>
<symbol  id="A" viewBox="-32 -17.1 64.1 34.2">
	<g>
		<path class="st0" d="M-15.1-16.8L-9,3.8l6.1-20.6h16.5v2.1L7.4-4.1c2.2,0.7,3.8,2,4.9,3.8s1.7,4,1.7,6.5c0,3.1-0.8,5.7-2.5,7.8
			s-3.8,3.1-6.3,3.1c-2,0-3.7-0.6-5.1-1.9s-2.5-2.9-3.2-5l3.4-1.4c0.5,1.3,1.2,2.3,2,3c0.8,0.7,1.8,1.1,2.9,1.1c1.2,0,2.2-0.7,3-2
			S9.4,8,9.4,6.2c0-2-0.4-3.6-1.3-4.7c-1-1.3-2.6-2-4.7-2H1.6v-2l5.9-10.1H0.4L0-12l-8.6,29.1H-9l-6.3-21l-6.3,21H-22L-32-16.8h4.4
			l6.1,20.6l4.1-13.9l-2-6.7L-15.1-16.8L-15.1-16.8z"/>
		<path d="M31-17l0.7,4.3l-2.5,4.8c0,0-1-2-2.6-3.2c-1.4-1-2.2-1.2-3.6-0.9c-1.8,0.4-3.8,2.5-4.7,5.1c-1,3.1-1.1,4.6-1.1,6
			c-0.1,2.2,0.3,3.5,0.3,3.5S16-0.1,16-4.3c0-3,0.5-5.6,1.8-8.3c1.2-2.3,3-3.7,4.6-3.9c1.6-0.2,3,0.6,3.9,1.5
			c1.1,0.9,2.1,2.9,2.1,2.9L31-17L31-17z M31.3,7.5c0,0-1.1,2-1.8,2.8S27.6,12.3,26,13s-2.3,0.8-3.9,0.7s-2.9-1-3.4-1.4
			s-1.8-1.4-2.5-2.5s-1.8-3-1.8-3l1,2.9c0.2,0.5,0.9,2,1.9,3.3c0.9,1.2,2.7,3.3,5.4,3.8s4.5-0.7,5-1s1.4-1.1,2-1.8
			c0.6-0.7,1.2-1.5,1.6-2.1l0.6-1.2L31.3,7.5L31.3,7.5z"/>
	</g>
</symbol>
<use xlink:href="#A"  width="64.1" height="34.2" x="-32" y="-17.1" transform="matrix(1 0 0 1 32.028 17.086)" style="overflow:visible;"/>
</svg>
